<svg xmlns="http://www.w3.org/2000/svg" xmlns:xlink="http://www.w3.org/1999/xlink" width="800" zoomAndPan="magnify" viewBox="0 0 600 374.999991" height="500" preserveAspectRatio="xMidYMid meet" version="1.0"><defs><g/></defs><g fill="#ff5757" fill-opacity="0.302"><g transform="translate(24.190025, 172.695838)"><g><path d="M 82.8125 -13.828125 C 84.457031 -11.597656 85.132812 -9.414062 84.84375 -7.28125 C 84.550781 -5.144531 83.628906 -3.320312 82.078125 -1.8125 C 80.523438 -0.3125 78.65625 0.75 76.46875 1.375 C 74.289062 2.007812 72.0625 2.035156 69.78125 1.453125 C 67.5 0.867188 65.535156 -0.535156 63.890625 -2.765625 C 59.523438 -8.773438 54.648438 -14.328125 49.265625 -19.421875 C 43.878906 -24.515625 38.082031 -29.101562 31.875 -33.1875 C 31.382812 -27.363281 30.921875 -21.585938 30.484375 -15.859375 C 30.046875 -10.140625 29.585938 -4.367188 29.109375 1.453125 C 28.910156 4.265625 28.007812 6.492188 26.40625 8.140625 C 24.8125 9.796875 22.894531 10.914062 20.65625 11.5 C 18.425781 12.082031 16.269531 12.082031 14.1875 11.5 C 12.101562 10.914062 10.378906 9.796875 9.015625 8.140625 C 7.660156 6.492188 7.082031 4.265625 7.28125 1.453125 C 8.15625 -9.210938 8.832031 -20.023438 9.3125 -30.984375 C 9.800781 -41.953125 11.113281 -52.675781 13.25 -63.15625 C 14.3125 -68.5 16.296875 -73.691406 19.203125 -78.734375 C 22.117188 -83.773438 25.832031 -87.96875 30.34375 -91.3125 C 34.851562 -94.664062 40.117188 -96.4375 46.140625 -96.625 C 50.304688 -96.820312 54.253906 -96.046875 57.984375 -94.296875 C 61.722656 -92.554688 64.898438 -90.15625 67.515625 -87.09375 C 70.140625 -84.039062 71.910156 -80.550781 72.828125 -76.625 C 73.753906 -72.695312 73.539062 -68.644531 72.1875 -64.46875 C 70.820312 -60.394531 68.613281 -56.488281 65.5625 -52.75 C 62.507812 -49.019531 58.992188 -45.796875 55.015625 -43.078125 C 65.390625 -34.734375 74.65625 -24.984375 82.8125 -13.828125 Z M 51.65625 -72.1875 C 51.269531 -74.125 50.519531 -75.210938 49.40625 -75.453125 C 48.289062 -75.703125 47.03125 -75.390625 45.625 -74.515625 C 44.21875 -73.640625 42.832031 -72.519531 41.46875 -71.15625 C 40.113281 -69.800781 38.953125 -68.46875 37.984375 -67.15625 C 37.015625 -65.851562 36.382812 -64.910156 36.09375 -64.328125 C 35.3125 -62.191406 34.628906 -59.765625 34.046875 -57.046875 C 35.992188 -57.335938 37.742188 -57.941406 39.296875 -58.859375 C 40.847656 -59.785156 42.351562 -60.925781 43.8125 -62.28125 C 44.382812 -62.863281 45.347656 -63.785156 46.703125 -65.046875 C 48.066406 -66.304688 49.28125 -67.613281 50.34375 -68.96875 C 51.414062 -70.332031 51.851562 -71.40625 51.65625 -72.1875 Z M 51.65625 -72.1875 "/></g></g></g><g fill="#ff5757" fill-opacity="0.502"><g transform="translate(19.224332, 164.431535)"><g><path d="M 82.8125 -13.828125 C 84.457031 -11.597656 85.132812 -9.414062 84.84375 -7.28125 C 84.550781 -5.144531 83.628906 -3.320312 82.078125 -1.8125 C 80.523438 -0.3125 78.65625 0.75 76.46875 1.375 C 74.289062 2.007812 72.0625 2.035156 69.78125 1.453125 C 67.5 0.867188 65.535156 -0.535156 63.890625 -2.765625 C 59.523438 -8.773438 54.648438 -14.328125 49.265625 -19.421875 C 43.878906 -24.515625 38.082031 -29.101562 31.875 -33.1875 C 31.382812 -27.363281 30.921875 -21.585938 30.484375 -15.859375 C 30.046875 -10.140625 29.585938 -4.367188 29.109375 1.453125 C 28.910156 4.265625 28.007812 6.492188 26.40625 8.140625 C 24.8125 9.796875 22.894531 10.914062 20.65625 11.5 C 18.425781 12.082031 16.269531 12.082031 14.1875 11.5 C 12.101562 10.914062 10.378906 9.796875 9.015625 8.140625 C 7.660156 6.492188 7.082031 4.265625 7.28125 1.453125 C 8.15625 -9.210938 8.832031 -20.023438 9.3125 -30.984375 C 9.800781 -41.953125 11.113281 -52.675781 13.25 -63.15625 C 14.3125 -68.5 16.296875 -73.691406 19.203125 -78.734375 C 22.117188 -83.773438 25.832031 -87.96875 30.34375 -91.3125 C 34.851562 -94.664062 40.117188 -96.4375 46.140625 -96.625 C 50.304688 -96.820312 54.253906 -96.046875 57.984375 -94.296875 C 61.722656 -92.554688 64.898438 -90.15625 67.515625 -87.09375 C 70.140625 -84.039062 71.910156 -80.550781 72.828125 -76.625 C 73.753906 -72.695312 73.539062 -68.644531 72.1875 -64.46875 C 70.820312 -60.394531 68.613281 -56.488281 65.5625 -52.75 C 62.507812 -49.019531 58.992188 -45.796875 55.015625 -43.078125 C 65.390625 -34.734375 74.65625 -24.984375 82.8125 -13.828125 Z M 51.65625 -72.1875 C 51.269531 -74.125 50.519531 -75.210938 49.40625 -75.453125 C 48.289062 -75.703125 47.03125 -75.390625 45.625 -74.515625 C 44.21875 -73.640625 42.832031 -72.519531 41.46875 -71.15625 C 40.113281 -69.800781 38.953125 -68.46875 37.984375 -67.15625 C 37.015625 -65.851562 36.382812 -64.910156 36.09375 -64.328125 C 35.3125 -62.191406 34.628906 -59.765625 34.046875 -57.046875 C 35.992188 -57.335938 37.742188 -57.941406 39.296875 -58.859375 C 40.847656 -59.785156 42.351562 -60.925781 43.8125 -62.28125 C 44.382812 -62.863281 45.347656 -63.785156 46.703125 -65.046875 C 48.066406 -66.304688 49.28125 -67.613281 50.34375 -68.96875 C 51.414062 -70.332031 51.851562 -71.40625 51.65625 -72.1875 Z M 51.65625 -72.1875 "/></g></g></g><g fill="#ff914d" fill-opacity="1"><g transform="translate(14.258637, 156.167232)"><g><path d="M 82.8125 -13.828125 C 84.457031 -11.597656 85.132812 -9.414062 84.84375 -7.28125 C 84.550781 -5.144531 83.628906 -3.320312 82.078125 -1.8125 C 80.523438 -0.3125 78.65625 0.75 76.46875 1.375 C 74.289062 2.007812 72.0625 2.035156 69.78125 1.453125 C 67.5 0.867188 65.535156 -0.535156 63.890625 -2.765625 C 59.523438 -8.773438 54.648438 -14.328125 49.265625 -19.421875 C 43.878906 -24.515625 38.082031 -29.101562 31.875 -33.1875 C 31.382812 -27.363281 30.921875 -21.585938 30.484375 -15.859375 C 30.046875 -10.140625 29.585938 -4.367188 29.109375 1.453125 C 28.910156 4.265625 28.007812 6.492188 26.40625 8.140625 C 24.8125 9.796875 22.894531 10.914062 20.65625 11.5 C 18.425781 12.082031 16.269531 12.082031 14.1875 11.5 C 12.101562 10.914062 10.378906 9.796875 9.015625 8.140625 C 7.660156 6.492188 7.082031 4.265625 7.28125 1.453125 C 8.15625 -9.210938 8.832031 -20.023438 9.3125 -30.984375 C 9.800781 -41.953125 11.113281 -52.675781 13.25 -63.15625 C 14.3125 -68.5 16.296875 -73.691406 19.203125 -78.734375 C 22.117188 -83.773438 25.832031 -87.96875 30.34375 -91.3125 C 34.851562 -94.664062 40.117188 -96.4375 46.140625 -96.625 C 50.304688 -96.820312 54.253906 -96.046875 57.984375 -94.296875 C 61.722656 -92.554688 64.898438 -90.15625 67.515625 -87.09375 C 70.140625 -84.039062 71.910156 -80.550781 72.828125 -76.625 C 73.753906 -72.695312 73.539062 -68.644531 72.1875 -64.46875 C 70.820312 -60.394531 68.613281 -56.488281 65.5625 -52.75 C 62.507812 -49.019531 58.992188 -45.796875 55.015625 -43.078125 C 65.390625 -34.734375 74.65625 -24.984375 82.8125 -13.828125 Z M 51.65625 -72.1875 C 51.269531 -74.125 50.519531 -75.210938 49.40625 -75.453125 C 48.289062 -75.703125 47.03125 -75.390625 45.625 -74.515625 C 44.21875 -73.640625 42.832031 -72.519531 41.46875 -71.15625 C 40.113281 -69.800781 38.953125 -68.46875 37.984375 -67.15625 C 37.015625 -65.851562 36.382812 -64.910156 36.09375 -64.328125 C 35.3125 -62.191406 34.628906 -59.765625 34.046875 -57.046875 C 35.992188 -57.335938 37.742188 -57.941406 39.296875 -58.859375 C 40.847656 -59.785156 42.351562 -60.925781 43.8125 -62.28125 C 44.382812 -62.863281 45.347656 -63.785156 46.703125 -65.046875 C 48.066406 -66.304688 49.28125 -67.613281 50.34375 -68.96875 C 51.414062 -70.332031 51.851562 -71.40625 51.65625 -72.1875 Z M 51.65625 -72.1875 "/></g></g></g><g fill="#8c52ff" fill-opacity="0.302"><g transform="translate(114.431637, 172.695838)"><g><path d="M 60.6875 -30.859375 C 63.5 -30.753906 65.753906 -29.953125 67.453125 -28.453125 C 69.148438 -26.953125 70.265625 -25.109375 70.796875 -22.921875 C 71.328125 -20.734375 71.328125 -18.546875 70.796875 -16.359375 C 70.265625 -14.179688 69.148438 -12.390625 67.453125 -10.984375 C 65.753906 -9.578125 63.5 -8.972656 60.6875 -9.171875 C 54.09375 -9.359375 47.492188 -9.304688 40.890625 -9.015625 C 34.296875 -8.734375 27.703125 -8.054688 21.109375 -6.984375 C 19.066406 -6.597656 16.925781 -6.769531 14.6875 -7.5 C 12.457031 -8.226562 10.59375 -9.414062 9.09375 -11.0625 C 7.59375 -12.707031 7.035156 -14.84375 7.421875 -17.46875 C 9.066406 -30.945312 10.882812 -44.378906 12.875 -57.765625 C 14.863281 -71.160156 17.023438 -84.503906 19.359375 -97.796875 C 19.648438 -99.441406 20.234375 -100.894531 21.109375 -102.15625 C 21.878906 -103.519531 22.988281 -104.632812 24.4375 -105.5 C 25.894531 -106.375 27.691406 -106.863281 29.828125 -106.96875 C 40.304688 -107.351562 50.785156 -107.160156 61.265625 -106.390625 C 64.078125 -106.191406 66.332031 -105.289062 68.03125 -103.6875 C 69.726562 -102.09375 70.84375 -100.203125 71.375 -98.015625 C 71.914062 -95.828125 71.914062 -93.664062 71.375 -91.53125 C 70.84375 -89.40625 69.726562 -87.660156 68.03125 -86.296875 C 66.332031 -84.941406 64.078125 -84.359375 61.265625 -84.546875 C 54.085938 -85.035156 46.765625 -85.28125 39.296875 -85.28125 C 38.804688 -82.46875 38.316406 -79.65625 37.828125 -76.84375 C 37.347656 -74.03125 36.914062 -71.21875 36.53125 -68.40625 C 40.507812 -68.300781 44.34375 -68.101562 48.03125 -67.8125 C 50.9375 -67.425781 53.476562 -66.3125 55.65625 -64.46875 C 57.84375 -62.625 58.9375 -60.101562 58.9375 -56.90625 C 58.9375 -55.0625 58.425781 -53.265625 57.40625 -51.515625 C 56.394531 -49.773438 55.0625 -48.367188 53.40625 -47.296875 C 51.757812 -46.234375 49.96875 -45.796875 48.03125 -45.984375 C 43.082031 -46.472656 38.132812 -46.664062 33.1875 -46.5625 C 32.789062 -43.851562 32.398438 -41.113281 32.015625 -38.34375 C 31.628906 -35.582031 31.242188 -32.796875 30.859375 -29.984375 C 35.804688 -30.460938 40.753906 -30.800781 45.703125 -31 C 50.648438 -31.195312 55.644531 -31.148438 60.6875 -30.859375 Z M 60.6875 -30.859375 "/></g></g></g><g fill="#8c52ff" fill-opacity="0.502"><g transform="translate(109.465942, 164.431535)"><g><path d="M 60.6875 -30.859375 C 63.5 -30.753906 65.753906 -29.953125 67.453125 -28.453125 C 69.148438 -26.953125 70.265625 -25.109375 70.796875 -22.921875 C 71.328125 -20.734375 71.328125 -18.546875 70.796875 -16.359375 C 70.265625 -14.179688 69.148438 -12.390625 67.453125 -10.984375 C 65.753906 -9.578125 63.5 -8.972656 60.6875 -9.171875 C 54.09375 -9.359375 47.492188 -9.304688 40.890625 -9.015625 C 34.296875 -8.734375 27.703125 -8.054688 21.109375 -6.984375 C 19.066406 -6.597656 16.925781 -6.769531 14.6875 -7.5 C 12.457031 -8.226562 10.59375 -9.414062 9.09375 -11.0625 C 7.59375 -12.707031 7.035156 -14.84375 7.421875 -17.46875 C 9.066406 -30.945312 10.882812 -44.378906 12.875 -57.765625 C 14.863281 -71.160156 17.023438 -84.503906 19.359375 -97.796875 C 19.648438 -99.441406 20.234375 -100.894531 21.109375 -102.15625 C 21.878906 -103.519531 22.988281 -104.632812 24.4375 -105.5 C 25.894531 -106.375 27.691406 -106.863281 29.828125 -106.96875 C 40.304688 -107.351562 50.785156 -107.160156 61.265625 -106.390625 C 64.078125 -106.191406 66.332031 -105.289062 68.03125 -103.6875 C 69.726562 -102.09375 70.84375 -100.203125 71.375 -98.015625 C 71.914062 -95.828125 71.914062 -93.664062 71.375 -91.53125 C 70.84375 -89.40625 69.726562 -87.660156 68.03125 -86.296875 C 66.332031 -84.941406 64.078125 -84.359375 61.265625 -84.546875 C 54.085938 -85.035156 46.765625 -85.28125 39.296875 -85.28125 C 38.804688 -82.46875 38.316406 -79.65625 37.828125 -76.84375 C 37.347656 -74.03125 36.914062 -71.21875 36.53125 -68.40625 C 40.507812 -68.300781 44.34375 -68.101562 48.03125 -67.8125 C 50.9375 -67.425781 53.476562 -66.3125 55.65625 -64.46875 C 57.84375 -62.625 58.9375 -60.101562 58.9375 -56.90625 C 58.9375 -55.0625 58.425781 -53.265625 57.40625 -51.515625 C 56.394531 -49.773438 55.0625 -48.367188 53.40625 -47.296875 C 51.757812 -46.234375 49.96875 -45.796875 48.03125 -45.984375 C 43.082031 -46.472656 38.132812 -46.664062 33.1875 -46.5625 C 32.789062 -43.851562 32.398438 -41.113281 32.015625 -38.34375 C 31.628906 -35.582031 31.242188 -32.796875 30.859375 -29.984375 C 35.804688 -30.460938 40.753906 -30.800781 45.703125 -31 C 50.648438 -31.195312 55.644531 -31.148438 60.6875 -30.859375 Z M 60.6875 -30.859375 "/></g></g></g><g fill="#ff914d" fill-opacity="1"><g transform="translate(104.500246, 156.167232)"><g><path d="M 60.6875 -30.859375 C 63.5 -30.753906 65.753906 -29.953125 67.453125 -28.453125 C 69.148438 -26.953125 70.265625 -25.109375 70.796875 -22.921875 C 71.328125 -20.734375 71.328125 -18.546875 70.796875 -16.359375 C 70.265625 -14.179688 69.148438 -12.390625 67.453125 -10.984375 C 65.753906 -9.578125 63.5 -8.972656 60.6875 -9.171875 C 54.09375 -9.359375 47.492188 -9.304688 40.890625 -9.015625 C 34.296875 -8.734375 27.703125 -8.054688 21.109375 -6.984375 C 19.066406 -6.597656 16.925781 -6.769531 14.6875 -7.5 C 12.457031 -8.226562 10.59375 -9.414062 9.09375 -11.0625 C 7.59375 -12.707031 7.035156 -14.84375 7.421875 -17.46875 C 9.066406 -30.945312 10.882812 -44.378906 12.875 -57.765625 C 14.863281 -71.160156 17.023438 -84.503906 19.359375 -97.796875 C 19.648438 -99.441406 20.234375 -100.894531 21.109375 -102.15625 C 21.878906 -103.519531 22.988281 -104.632812 24.4375 -105.5 C 25.894531 -106.375 27.691406 -106.863281 29.828125 -106.96875 C 40.304688 -107.351562 50.785156 -107.160156 61.265625 -106.390625 C 64.078125 -106.191406 66.332031 -105.289062 68.03125 -103.6875 C 69.726562 -102.09375 70.84375 -100.203125 71.375 -98.015625 C 71.914062 -95.828125 71.914062 -93.664062 71.375 -91.53125 C 70.84375 -89.40625 69.726562 -87.660156 68.03125 -86.296875 C 66.332031 -84.941406 64.078125 -84.359375 61.265625 -84.546875 C 54.085938 -85.035156 46.765625 -85.28125 39.296875 -85.28125 C 38.804688 -82.46875 38.316406 -79.65625 37.828125 -76.84375 C 37.347656 -74.03125 36.914062 -71.21875 36.53125 -68.40625 C 40.507812 -68.300781 44.34375 -68.101562 48.03125 -67.8125 C 50.9375 -67.425781 53.476562 -66.3125 55.65625 -64.46875 C 57.84375 -62.625 58.9375 -60.101562 58.9375 -56.90625 C 58.9375 -55.0625 58.425781 -53.265625 57.40625 -51.515625 C 56.394531 -49.773438 55.0625 -48.367188 53.40625 -47.296875 C 51.757812 -46.234375 49.96875 -45.796875 48.03125 -45.984375 C 43.082031 -46.472656 38.132812 -46.664062 33.1875 -46.5625 C 32.789062 -43.851562 32.398438 -41.113281 32.015625 -38.34375 C 31.628906 -35.582031 31.242188 -32.796875 30.859375 -29.984375 C 35.804688 -30.460938 40.753906 -30.800781 45.703125 -31 C 50.648438 -31.195312 55.644531 -31.148438 60.6875 -30.859375 Z M 60.6875 -30.859375 "/></g></g></g><g fill="#000000" fill-opacity="0.302"><g transform="translate(195.372959, 172.695838)"><g><path d="M 65.78125 -101.140625 C 68.59375 -101.523438 71.015625 -101.160156 73.046875 -100.046875 C 75.085938 -98.929688 76.664062 -97.351562 77.78125 -95.3125 C 78.894531 -93.28125 79.476562 -91.195312 79.53125 -89.0625 C 79.582031 -86.925781 78.976562 -85.007812 77.71875 -83.3125 C 76.457031 -81.613281 74.414062 -80.523438 71.59375 -80.046875 C 66.644531 -79.265625 61.695312 -78.484375 56.75 -77.703125 C 51.800781 -76.929688 46.851562 -76.160156 41.90625 -75.390625 C 41.8125 -75.390625 41.398438 -75.316406 40.671875 -75.171875 C 39.941406 -75.023438 39.144531 -74.898438 38.28125 -74.796875 C 38.28125 -74.117188 38.226562 -73.632812 38.125 -73.34375 C 38.320312 -71.113281 38.175781 -68.757812 37.6875 -66.28125 C 37.207031 -63.8125 36.820312 -61.460938 36.53125 -59.234375 C 36.53125 -58.941406 36.503906 -58.625 36.453125 -58.28125 C 36.398438 -57.945312 36.375 -57.582031 36.375 -57.1875 C 43.851562 -58.351562 51.28125 -58.984375 58.65625 -59.078125 C 61.46875 -59.179688 63.722656 -58.503906 65.421875 -57.046875 C 67.117188 -55.585938 68.234375 -53.765625 68.765625 -51.578125 C 69.296875 -49.398438 69.296875 -47.242188 68.765625 -45.109375 C 68.234375 -42.972656 67.117188 -41.15625 65.421875 -39.65625 C 63.722656 -38.15625 61.46875 -37.351562 58.65625 -37.25 C 50.207031 -37.15625 41.8125 -36.234375 33.46875 -34.484375 C 32.695312 -28.765625 31.894531 -23.039062 31.0625 -17.3125 C 30.238281 -11.59375 29.394531 -5.867188 28.53125 -0.140625 C 28.039062 2.671875 26.96875 4.707031 25.3125 5.96875 C 23.664062 7.226562 21.75 7.832031 19.5625 7.78125 C 17.382812 7.738281 15.273438 7.15625 13.234375 6.03125 C 11.203125 4.914062 9.628906 3.335938 8.515625 1.296875 C 7.398438 -0.734375 7.035156 -3.109375 7.421875 -5.828125 C 9.359375 -17.953125 11.078125 -30.078125 12.578125 -42.203125 C 14.085938 -54.328125 15.519531 -66.457031 16.875 -78.59375 C 17.457031 -83.832031 18.960938 -87.804688 21.390625 -90.515625 C 23.816406 -93.234375 27.648438 -95.03125 32.890625 -95.90625 C 38.328125 -96.875 43.804688 -97.769531 49.328125 -98.59375 C 54.859375 -99.414062 60.34375 -100.265625 65.78125 -101.140625 Z M 65.78125 -101.140625 "/></g></g></g><g fill="#000000" fill-opacity="0.502"><g transform="translate(190.407256, 164.431535)"><g><path d="M 65.78125 -101.140625 C 68.59375 -101.523438 71.015625 -101.160156 73.046875 -100.046875 C 75.085938 -98.929688 76.664062 -97.351562 77.78125 -95.3125 C 78.894531 -93.28125 79.476562 -91.195312 79.53125 -89.0625 C 79.582031 -86.925781 78.976562 -85.007812 77.71875 -83.3125 C 76.457031 -81.613281 74.414062 -80.523438 71.59375 -80.046875 C 66.644531 -79.265625 61.695312 -78.484375 56.75 -77.703125 C 51.800781 -76.929688 46.851562 -76.160156 41.90625 -75.390625 C 41.8125 -75.390625 41.398438 -75.316406 40.671875 -75.171875 C 39.941406 -75.023438 39.144531 -74.898438 38.28125 -74.796875 C 38.28125 -74.117188 38.226562 -73.632812 38.125 -73.34375 C 38.320312 -71.113281 38.175781 -68.757812 37.6875 -66.28125 C 37.207031 -63.8125 36.820312 -61.460938 36.53125 -59.234375 C 36.53125 -58.941406 36.503906 -58.625 36.453125 -58.28125 C 36.398438 -57.945312 36.375 -57.582031 36.375 -57.1875 C 43.851562 -58.351562 51.28125 -58.984375 58.65625 -59.078125 C 61.46875 -59.179688 63.722656 -58.503906 65.421875 -57.046875 C 67.117188 -55.585938 68.234375 -53.765625 68.765625 -51.578125 C 69.296875 -49.398438 69.296875 -47.242188 68.765625 -45.109375 C 68.234375 -42.972656 67.117188 -41.15625 65.421875 -39.65625 C 63.722656 -38.15625 61.46875 -37.351562 58.65625 -37.25 C 50.207031 -37.15625 41.8125 -36.234375 33.46875 -34.484375 C 32.695312 -28.765625 31.894531 -23.039062 31.0625 -17.3125 C 30.238281 -11.59375 29.394531 -5.867188 28.53125 -0.140625 C 28.039062 2.671875 26.96875 4.707031 25.3125 5.96875 C 23.664062 7.226562 21.75 7.832031 19.5625 7.78125 C 17.382812 7.738281 15.273438 7.15625 13.234375 6.03125 C 11.203125 4.914062 9.628906 3.335938 8.515625 1.296875 C 7.398438 -0.734375 7.035156 -3.109375 7.421875 -5.828125 C 9.359375 -17.953125 11.078125 -30.078125 12.578125 -42.203125 C 14.085938 -54.328125 15.519531 -66.457031 16.875 -78.59375 C 17.457031 -83.832031 18.960938 -87.804688 21.390625 -90.515625 C 23.816406 -93.234375 27.648438 -95.03125 32.890625 -95.90625 C 38.328125 -96.875 43.804688 -97.769531 49.328125 -98.59375 C 54.859375 -99.414062 60.34375 -100.265625 65.78125 -101.140625 Z M 65.78125 -101.140625 "/></g></g></g><g fill="#ff914d" fill-opacity="1"><g transform="translate(185.441568, 156.167232)"><g><path d="M 65.78125 -101.140625 C 68.59375 -101.523438 71.015625 -101.160156 73.046875 -100.046875 C 75.085938 -98.929688 76.664062 -97.351562 77.78125 -95.3125 C 78.894531 -93.28125 79.476562 -91.195312 79.53125 -89.0625 C 79.582031 -86.925781 78.976562 -85.007812 77.71875 -83.3125 C 76.457031 -81.613281 74.414062 -80.523438 71.59375 -80.046875 C 66.644531 -79.265625 61.695312 -78.484375 56.75 -77.703125 C 51.800781 -76.929688 46.851562 -76.160156 41.90625 -75.390625 C 41.8125 -75.390625 41.398438 -75.316406 40.671875 -75.171875 C 39.941406 -75.023438 39.144531 -74.898438 38.28125 -74.796875 C 38.28125 -74.117188 38.226562 -73.632812 38.125 -73.34375 C 38.320312 -71.113281 38.175781 -68.757812 37.6875 -66.28125 C 37.207031 -63.8125 36.820312 -61.460938 36.53125 -59.234375 C 36.53125 -58.941406 36.503906 -58.625 36.453125 -58.28125 C 36.398438 -57.945312 36.375 -57.582031 36.375 -57.1875 C 43.851562 -58.351562 51.28125 -58.984375 58.65625 -59.078125 C 61.46875 -59.179688 63.722656 -58.503906 65.421875 -57.046875 C 67.117188 -55.585938 68.234375 -53.765625 68.765625 -51.578125 C 69.296875 -49.398438 69.296875 -47.242188 68.765625 -45.109375 C 68.234375 -42.972656 67.117188 -41.15625 65.421875 -39.65625 C 63.722656 -38.15625 61.46875 -37.351562 58.65625 -37.25 C 50.207031 -37.15625 41.8125 -36.234375 33.46875 -34.484375 C 32.695312 -28.765625 31.894531 -23.039062 31.0625 -17.3125 C 30.238281 -11.59375 29.394531 -5.867188 28.53125 -0.140625 C 28.039062 2.671875 26.96875 4.707031 25.3125 5.96875 C 23.664062 7.226562 21.75 7.832031 19.5625 7.78125 C 17.382812 7.738281 15.273438 7.15625 13.234375 6.03125 C 11.203125 4.914062 9.628906 3.335938 8.515625 1.296875 C 7.398438 -0.734375 7.035156 -3.109375 7.421875 -5.828125 C 9.359375 -17.953125 11.078125 -30.078125 12.578125 -42.203125 C 14.085938 -54.328125 15.519531 -66.457031 16.875 -78.59375 C 17.457031 -83.832031 18.960938 -87.804688 21.390625 -90.515625 C 23.816406 -93.234375 27.648438 -95.03125 32.890625 -95.90625 C 38.328125 -96.875 43.804688 -97.769531 49.328125 -98.59375 C 54.859375 -99.414062 60.34375 -100.265625 65.78125 -101.140625 Z M 65.78125 -101.140625 "/></g></g></g><g fill="#00bf63" fill-opacity="0.302"><g transform="translate(280.160408, 172.695838)"><g><path d="M 64.171875 -36.234375 C 66.992188 -36.429688 69.226562 -35.875 70.875 -34.5625 C 72.519531 -33.25 73.632812 -31.523438 74.21875 -29.390625 C 74.800781 -27.265625 74.800781 -25.082031 74.21875 -22.84375 C 73.632812 -20.613281 72.492188 -18.695312 70.796875 -17.09375 C 69.097656 -15.5 66.890625 -14.601562 64.171875 -14.40625 C 56.804688 -13.925781 49.554688 -13.003906 42.421875 -11.640625 C 35.285156 -10.285156 28.179688 -8.585938 21.109375 -6.546875 C 19.066406 -5.960938 16.925781 -6.082031 14.6875 -6.90625 C 12.457031 -7.738281 10.613281 -9.050781 9.15625 -10.84375 C 7.707031 -12.632812 7.082031 -14.742188 7.28125 -17.171875 C 8.4375 -28.523438 9.570312 -39.875 10.6875 -51.21875 C 11.8125 -62.570312 12.90625 -73.925781 13.96875 -85.28125 C 14.257812 -88 15.226562 -90.207031 16.875 -91.90625 C 18.53125 -93.601562 20.472656 -94.71875 22.703125 -95.25 C 24.929688 -95.78125 27.085938 -95.78125 29.171875 -95.25 C 31.265625 -94.71875 32.960938 -93.625 34.265625 -91.96875 C 35.578125 -90.320312 36.085938 -88.09375 35.796875 -85.28125 C 34.921875 -76.257812 34.046875 -67.257812 33.171875 -58.28125 C 32.304688 -49.3125 31.4375 -40.363281 30.5625 -31.4375 C 41.519531 -33.757812 52.722656 -35.359375 64.171875 -36.234375 Z M 64.171875 -36.234375 "/></g></g></g><g fill="#00bf63" fill-opacity="0.502"><g transform="translate(275.194736, 164.431535)"><g><path d="M 64.171875 -36.234375 C 66.992188 -36.429688 69.226562 -35.875 70.875 -34.5625 C 72.519531 -33.25 73.632812 -31.523438 74.21875 -29.390625 C 74.800781 -27.265625 74.800781 -25.082031 74.21875 -22.84375 C 73.632812 -20.613281 72.492188 -18.695312 70.796875 -17.09375 C 69.097656 -15.5 66.890625 -14.601562 64.171875 -14.40625 C 56.804688 -13.925781 49.554688 -13.003906 42.421875 -11.640625 C 35.285156 -10.285156 28.179688 -8.585938 21.109375 -6.546875 C 19.066406 -5.960938 16.925781 -6.082031 14.6875 -6.90625 C 12.457031 -7.738281 10.613281 -9.050781 9.15625 -10.84375 C 7.707031 -12.632812 7.082031 -14.742188 7.28125 -17.171875 C 8.4375 -28.523438 9.570312 -39.875 10.6875 -51.21875 C 11.8125 -62.570312 12.90625 -73.925781 13.96875 -85.28125 C 14.257812 -88 15.226562 -90.207031 16.875 -91.90625 C 18.53125 -93.601562 20.472656 -94.71875 22.703125 -95.25 C 24.929688 -95.78125 27.085938 -95.78125 29.171875 -95.25 C 31.265625 -94.71875 32.960938 -93.625 34.265625 -91.96875 C 35.578125 -90.320312 36.085938 -88.09375 35.796875 -85.28125 C 34.921875 -76.257812 34.046875 -67.257812 33.171875 -58.28125 C 32.304688 -49.3125 31.4375 -40.363281 30.5625 -31.4375 C 41.519531 -33.757812 52.722656 -35.359375 64.171875 -36.234375 Z M 64.171875 -36.234375 "/></g></g></g><g fill="#ff914d" fill-opacity="1"><g transform="translate(270.229033, 156.167232)"><g><path d="M 64.171875 -36.234375 C 66.992188 -36.429688 69.226562 -35.875 70.875 -34.5625 C 72.519531 -33.25 73.632812 -31.523438 74.21875 -29.390625 C 74.800781 -27.265625 74.800781 -25.082031 74.21875 -22.84375 C 73.632812 -20.613281 72.492188 -18.695312 70.796875 -17.09375 C 69.097656 -15.5 66.890625 -14.601562 64.171875 -14.40625 C 56.804688 -13.925781 49.554688 -13.003906 42.421875 -11.640625 C 35.285156 -10.285156 28.179688 -8.585938 21.109375 -6.546875 C 19.066406 -5.960938 16.925781 -6.082031 14.6875 -6.90625 C 12.457031 -7.738281 10.613281 -9.050781 9.15625 -10.84375 C 7.707031 -12.632812 7.082031 -14.742188 7.28125 -17.171875 C 8.4375 -28.523438 9.570312 -39.875 10.6875 -51.21875 C 11.8125 -62.570312 12.90625 -73.925781 13.96875 -85.28125 C 14.257812 -88 15.226562 -90.207031 16.875 -91.90625 C 18.53125 -93.601562 20.472656 -94.71875 22.703125 -95.25 C 24.929688 -95.78125 27.085938 -95.78125 29.171875 -95.25 C 31.265625 -94.71875 32.960938 -93.625 34.265625 -91.96875 C 35.578125 -90.320312 36.085938 -88.09375 35.796875 -85.28125 C 34.921875 -76.257812 34.046875 -67.257812 33.171875 -58.28125 C 32.304688 -49.3125 31.4375 -40.363281 30.5625 -31.4375 C 41.519531 -33.757812 52.722656 -35.359375 64.171875 -36.234375 Z M 64.171875 -36.234375 "/></g></g></g><g fill="#ffbd59" fill-opacity="0.302"><g transform="translate(362.367231, 172.695838)"><g><path d="M 60.6875 -30.859375 C 63.5 -30.753906 65.753906 -29.953125 67.453125 -28.453125 C 69.148438 -26.953125 70.265625 -25.109375 70.796875 -22.921875 C 71.328125 -20.734375 71.328125 -18.546875 70.796875 -16.359375 C 70.265625 -14.179688 69.148438 -12.390625 67.453125 -10.984375 C 65.753906 -9.578125 63.5 -8.972656 60.6875 -9.171875 C 54.09375 -9.359375 47.492188 -9.304688 40.890625 -9.015625 C 34.296875 -8.734375 27.703125 -8.054688 21.109375 -6.984375 C 19.066406 -6.597656 16.925781 -6.769531 14.6875 -7.5 C 12.457031 -8.226562 10.59375 -9.414062 9.09375 -11.0625 C 7.59375 -12.707031 7.035156 -14.84375 7.421875 -17.46875 C 9.066406 -30.945312 10.882812 -44.378906 12.875 -57.765625 C 14.863281 -71.160156 17.023438 -84.503906 19.359375 -97.796875 C 19.648438 -99.441406 20.234375 -100.894531 21.109375 -102.15625 C 21.878906 -103.519531 22.988281 -104.632812 24.4375 -105.5 C 25.894531 -106.375 27.691406 -106.863281 29.828125 -106.96875 C 40.304688 -107.351562 50.785156 -107.160156 61.265625 -106.390625 C 64.078125 -106.191406 66.332031 -105.289062 68.03125 -103.6875 C 69.726562 -102.09375 70.84375 -100.203125 71.375 -98.015625 C 71.914062 -95.828125 71.914062 -93.664062 71.375 -91.53125 C 70.84375 -89.40625 69.726562 -87.660156 68.03125 -86.296875 C 66.332031 -84.941406 64.078125 -84.359375 61.265625 -84.546875 C 54.085938 -85.035156 46.765625 -85.28125 39.296875 -85.28125 C 38.804688 -82.46875 38.316406 -79.65625 37.828125 -76.84375 C 37.347656 -74.03125 36.914062 -71.21875 36.53125 -68.40625 C 40.507812 -68.300781 44.34375 -68.101562 48.03125 -67.8125 C 50.9375 -67.425781 53.476562 -66.3125 55.65625 -64.46875 C 57.84375 -62.625 58.9375 -60.101562 58.9375 -56.90625 C 58.9375 -55.0625 58.425781 -53.265625 57.40625 -51.515625 C 56.394531 -49.773438 55.0625 -48.367188 53.40625 -47.296875 C 51.757812 -46.234375 49.96875 -45.796875 48.03125 -45.984375 C 43.082031 -46.472656 38.132812 -46.664062 33.1875 -46.5625 C 32.789062 -43.851562 32.398438 -41.113281 32.015625 -38.34375 C 31.628906 -35.582031 31.242188 -32.796875 30.859375 -29.984375 C 35.804688 -30.460938 40.753906 -30.800781 45.703125 -31 C 50.648438 -31.195312 55.644531 -31.148438 60.6875 -30.859375 Z M 60.6875 -30.859375 "/></g></g></g><g fill="#ffbd59" fill-opacity="0.502"><g transform="translate(357.401557, 164.431535)"><g><path d="M 60.6875 -30.859375 C 63.5 -30.753906 65.753906 -29.953125 67.453125 -28.453125 C 69.148438 -26.953125 70.265625 -25.109375 70.796875 -22.921875 C 71.328125 -20.734375 71.328125 -18.546875 70.796875 -16.359375 C 70.265625 -14.179688 69.148438 -12.390625 67.453125 -10.984375 C 65.753906 -9.578125 63.5 -8.972656 60.6875 -9.171875 C 54.09375 -9.359375 47.492188 -9.304688 40.890625 -9.015625 C 34.296875 -8.734375 27.703125 -8.054688 21.109375 -6.984375 C 19.066406 -6.597656 16.925781 -6.769531 14.6875 -7.5 C 12.457031 -8.226562 10.59375 -9.414062 9.09375 -11.0625 C 7.59375 -12.707031 7.035156 -14.84375 7.421875 -17.46875 C 9.066406 -30.945312 10.882812 -44.378906 12.875 -57.765625 C 14.863281 -71.160156 17.023438 -84.503906 19.359375 -97.796875 C 19.648438 -99.441406 20.234375 -100.894531 21.109375 -102.15625 C 21.878906 -103.519531 22.988281 -104.632812 24.4375 -105.5 C 25.894531 -106.375 27.691406 -106.863281 29.828125 -106.96875 C 40.304688 -107.351562 50.785156 -107.160156 61.265625 -106.390625 C 64.078125 -106.191406 66.332031 -105.289062 68.03125 -103.6875 C 69.726562 -102.09375 70.84375 -100.203125 71.375 -98.015625 C 71.914062 -95.828125 71.914062 -93.664062 71.375 -91.53125 C 70.84375 -89.40625 69.726562 -87.660156 68.03125 -86.296875 C 66.332031 -84.941406 64.078125 -84.359375 61.265625 -84.546875 C 54.085938 -85.035156 46.765625 -85.28125 39.296875 -85.28125 C 38.804688 -82.46875 38.316406 -79.65625 37.828125 -76.84375 C 37.347656 -74.03125 36.914062 -71.21875 36.53125 -68.40625 C 40.507812 -68.300781 44.34375 -68.101562 48.03125 -67.8125 C 50.9375 -67.425781 53.476562 -66.3125 55.65625 -64.46875 C 57.84375 -62.625 58.9375 -60.101562 58.9375 -56.90625 C 58.9375 -55.0625 58.425781 -53.265625 57.40625 -51.515625 C 56.394531 -49.773438 55.0625 -48.367188 53.40625 -47.296875 C 51.757812 -46.234375 49.96875 -45.796875 48.03125 -45.984375 C 43.082031 -46.472656 38.132812 -46.664062 33.1875 -46.5625 C 32.789062 -43.851562 32.398438 -41.113281 32.015625 -38.34375 C 31.628906 -35.582031 31.242188 -32.796875 30.859375 -29.984375 C 35.804688 -30.460938 40.753906 -30.800781 45.703125 -31 C 50.648438 -31.195312 55.644531 -31.148438 60.6875 -30.859375 Z M 60.6875 -30.859375 "/></g></g></g><g fill="#ff914d" fill-opacity="1"><g transform="translate(352.435854, 156.167232)"><g><path d="M 60.6875 -30.859375 C 63.5 -30.753906 65.753906 -29.953125 67.453125 -28.453125 C 69.148438 -26.953125 70.265625 -25.109375 70.796875 -22.921875 C 71.328125 -20.734375 71.328125 -18.546875 70.796875 -16.359375 C 70.265625 -14.179688 69.148438 -12.390625 67.453125 -10.984375 C 65.753906 -9.578125 63.5 -8.972656 60.6875 -9.171875 C 54.09375 -9.359375 47.492188 -9.304688 40.890625 -9.015625 C 34.296875 -8.734375 27.703125 -8.054688 21.109375 -6.984375 C 19.066406 -6.597656 16.925781 -6.769531 14.6875 -7.5 C 12.457031 -8.226562 10.59375 -9.414062 9.09375 -11.0625 C 7.59375 -12.707031 7.035156 -14.84375 7.421875 -17.46875 C 9.066406 -30.945312 10.882812 -44.378906 12.875 -57.765625 C 14.863281 -71.160156 17.023438 -84.503906 19.359375 -97.796875 C 19.648438 -99.441406 20.234375 -100.894531 21.109375 -102.15625 C 21.878906 -103.519531 22.988281 -104.632812 24.4375 -105.5 C 25.894531 -106.375 27.691406 -106.863281 29.828125 -106.96875 C 40.304688 -107.351562 50.785156 -107.160156 61.265625 -106.390625 C 64.078125 -106.191406 66.332031 -105.289062 68.03125 -103.6875 C 69.726562 -102.09375 70.84375 -100.203125 71.375 -98.015625 C 71.914062 -95.828125 71.914062 -93.664062 71.375 -91.53125 C 70.84375 -89.40625 69.726562 -87.660156 68.03125 -86.296875 C 66.332031 -84.941406 64.078125 -84.359375 61.265625 -84.546875 C 54.085938 -85.035156 46.765625 -85.28125 39.296875 -85.28125 C 38.804688 -82.46875 38.316406 -79.65625 37.828125 -76.84375 C 37.347656 -74.03125 36.914062 -71.21875 36.53125 -68.40625 C 40.507812 -68.300781 44.34375 -68.101562 48.03125 -67.8125 C 50.9375 -67.425781 53.476562 -66.3125 55.65625 -64.46875 C 57.84375 -62.625 58.9375 -60.101562 58.9375 -56.90625 C 58.9375 -55.0625 58.425781 -53.265625 57.40625 -51.515625 C 56.394531 -49.773438 55.0625 -48.367188 53.40625 -47.296875 C 51.757812 -46.234375 49.96875 -45.796875 48.03125 -45.984375 C 43.082031 -46.472656 38.132812 -46.664062 33.1875 -46.5625 C 32.789062 -43.851562 32.398438 -41.113281 32.015625 -38.34375 C 31.628906 -35.582031 31.242188 -32.796875 30.859375 -29.984375 C 35.804688 -30.460938 40.753906 -30.800781 45.703125 -31 C 50.648438 -31.195312 55.644531 -31.148438 60.6875 -30.859375 Z M 60.6875 -30.859375 "/></g></g></g><g fill="#5271ff" fill-opacity="0.302"><g transform="translate(435.840027, 172.695838)"><g><path d="M 64.765625 -35.21875 C 67.484375 -35.894531 69.832031 -35.769531 71.8125 -34.84375 C 73.800781 -33.925781 75.351562 -32.5 76.46875 -30.5625 C 77.59375 -28.625 78.175781 -26.515625 78.21875 -24.234375 C 78.269531 -21.953125 77.6875 -19.890625 76.46875 -18.046875 C 75.257812 -16.203125 73.296875 -14.890625 70.578125 -14.109375 C 65.628906 -12.753906 60.5625 -11.710938 55.375 -10.984375 C 50.1875 -10.253906 45.046875 -10.226562 39.953125 -10.90625 C 34.859375 -11.59375 29.984375 -13.242188 25.328125 -15.859375 C 19.304688 -19.253906 14.71875 -23.957031 11.5625 -29.96875 C 8.414062 -35.988281 6.988281 -42.492188 7.28125 -49.484375 C 7.664062 -56.273438 9.359375 -62.773438 12.359375 -68.984375 C 15.367188 -75.191406 19.375 -80.695312 24.375 -85.5 C 29.375 -90.300781 35.050781 -93.988281 41.40625 -96.5625 C 47.757812 -99.132812 54.378906 -100.128906 61.265625 -99.546875 C 64.078125 -99.347656 66.332031 -98.445312 68.03125 -96.84375 C 69.726562 -95.25 70.84375 -93.332031 71.375 -91.09375 C 71.914062 -88.863281 71.914062 -86.679688 71.375 -84.546875 C 70.84375 -82.421875 69.726562 -80.703125 68.03125 -79.390625 C 66.332031 -78.078125 64.078125 -77.519531 61.265625 -77.71875 C 56.222656 -78.101562 51.445312 -77.15625 46.9375 -74.875 C 42.425781 -72.59375 38.617188 -69.4375 35.515625 -65.40625 C 32.410156 -61.382812 30.421875 -56.851562 29.546875 -51.8125 C 28.671875 -47.445312 28.882812 -43.925781 30.1875 -41.25 C 31.5 -38.582031 33.460938 -36.59375 36.078125 -35.28125 C 38.703125 -33.976562 41.6875 -33.203125 45.03125 -32.953125 C 48.382812 -32.710938 51.78125 -32.8125 55.21875 -33.25 C 58.664062 -33.6875 61.847656 -34.34375 64.765625 -35.21875 Z M 64.765625 -35.21875 "/></g></g></g><g fill="#5271ff" fill-opacity="0.502"><g transform="translate(430.874355, 164.431535)"><g><path d="M 64.765625 -35.21875 C 67.484375 -35.894531 69.832031 -35.769531 71.8125 -34.84375 C 73.800781 -33.925781 75.351562 -32.5 76.46875 -30.5625 C 77.59375 -28.625 78.175781 -26.515625 78.21875 -24.234375 C 78.269531 -21.953125 77.6875 -19.890625 76.46875 -18.046875 C 75.257812 -16.203125 73.296875 -14.890625 70.578125 -14.109375 C 65.628906 -12.753906 60.5625 -11.710938 55.375 -10.984375 C 50.1875 -10.253906 45.046875 -10.226562 39.953125 -10.90625 C 34.859375 -11.59375 29.984375 -13.242188 25.328125 -15.859375 C 19.304688 -19.253906 14.71875 -23.957031 11.5625 -29.96875 C 8.414062 -35.988281 6.988281 -42.492188 7.28125 -49.484375 C 7.664062 -56.273438 9.359375 -62.773438 12.359375 -68.984375 C 15.367188 -75.191406 19.375 -80.695312 24.375 -85.5 C 29.375 -90.300781 35.050781 -93.988281 41.40625 -96.5625 C 47.757812 -99.132812 54.378906 -100.128906 61.265625 -99.546875 C 64.078125 -99.347656 66.332031 -98.445312 68.03125 -96.84375 C 69.726562 -95.25 70.84375 -93.332031 71.375 -91.09375 C 71.914062 -88.863281 71.914062 -86.679688 71.375 -84.546875 C 70.84375 -82.421875 69.726562 -80.703125 68.03125 -79.390625 C 66.332031 -78.078125 64.078125 -77.519531 61.265625 -77.71875 C 56.222656 -78.101562 51.445312 -77.15625 46.9375 -74.875 C 42.425781 -72.59375 38.617188 -69.4375 35.515625 -65.40625 C 32.410156 -61.382812 30.421875 -56.851562 29.546875 -51.8125 C 28.671875 -47.445312 28.882812 -43.925781 30.1875 -41.25 C 31.5 -38.582031 33.460938 -36.59375 36.078125 -35.28125 C 38.703125 -33.976562 41.6875 -33.203125 45.03125 -32.953125 C 48.382812 -32.710938 51.78125 -32.8125 55.21875 -33.25 C 58.664062 -33.6875 61.847656 -34.34375 64.765625 -35.21875 Z M 64.765625 -35.21875 "/></g></g></g><g fill="#ff914d" fill-opacity="1"><g transform="translate(425.908659, 156.167232)"><g><path d="M 64.765625 -35.21875 C 67.484375 -35.894531 69.832031 -35.769531 71.8125 -34.84375 C 73.800781 -33.925781 75.351562 -32.5 76.46875 -30.5625 C 77.59375 -28.625 78.175781 -26.515625 78.21875 -24.234375 C 78.269531 -21.953125 77.6875 -19.890625 76.46875 -18.046875 C 75.257812 -16.203125 73.296875 -14.890625 70.578125 -14.109375 C 65.628906 -12.753906 60.5625 -11.710938 55.375 -10.984375 C 50.1875 -10.253906 45.046875 -10.226562 39.953125 -10.90625 C 34.859375 -11.59375 29.984375 -13.242188 25.328125 -15.859375 C 19.304688 -19.253906 14.71875 -23.957031 11.5625 -29.96875 C 8.414062 -35.988281 6.988281 -42.492188 7.28125 -49.484375 C 7.664062 -56.273438 9.359375 -62.773438 12.359375 -68.984375 C 15.367188 -75.191406 19.375 -80.695312 24.375 -85.5 C 29.375 -90.300781 35.050781 -93.988281 41.40625 -96.5625 C 47.757812 -99.132812 54.378906 -100.128906 61.265625 -99.546875 C 64.078125 -99.347656 66.332031 -98.445312 68.03125 -96.84375 C 69.726562 -95.25 70.84375 -93.332031 71.375 -91.09375 C 71.914062 -88.863281 71.914062 -86.679688 71.375 -84.546875 C 70.84375 -82.421875 69.726562 -80.703125 68.03125 -79.390625 C 66.332031 -78.078125 64.078125 -77.519531 61.265625 -77.71875 C 56.222656 -78.101562 51.445312 -77.15625 46.9375 -74.875 C 42.425781 -72.59375 38.617188 -69.4375 35.515625 -65.40625 C 32.410156 -61.382812 30.421875 -56.851562 29.546875 -51.8125 C 28.671875 -47.445312 28.882812 -43.925781 30.1875 -41.25 C 31.5 -38.582031 33.460938 -36.59375 36.078125 -35.28125 C 38.703125 -33.976562 41.6875 -33.203125 45.03125 -32.953125 C 48.382812 -32.710938 51.78125 -32.8125 55.21875 -33.25 C 58.664062 -33.6875 61.847656 -34.34375 64.765625 -35.21875 Z M 64.765625 -35.21875 "/></g></g></g><g fill="#ff16b7" fill-opacity="0.302"><g transform="translate(513.522741, 172.695838)"><g><path d="M 66.359375 -100.125 C 69.078125 -99.832031 71.257812 -98.835938 72.90625 -97.140625 C 74.5625 -95.441406 75.675781 -93.476562 76.25 -91.25 C 76.832031 -89.019531 76.832031 -86.859375 76.25 -84.765625 C 75.675781 -82.679688 74.5625 -81.007812 72.90625 -79.75 C 71.257812 -78.488281 69.078125 -78.050781 66.359375 -78.4375 C 61.796875 -79.019531 57.140625 -79.457031 52.390625 -79.75 C 51.710938 -69.082031 51.054688 -58.457031 50.421875 -47.875 C 49.796875 -37.300781 49.144531 -26.726562 48.46875 -16.15625 C 48.363281 -13.34375 47.507812 -11.085938 45.90625 -9.390625 C 44.3125 -7.691406 42.421875 -6.570312 40.234375 -6.03125 C 38.054688 -5.5 35.898438 -5.5 33.765625 -6.03125 C 31.628906 -6.570312 29.878906 -7.691406 28.515625 -9.390625 C 27.160156 -11.085938 26.53125 -13.34375 26.625 -16.15625 C 27.3125 -26.726562 27.96875 -37.347656 28.59375 -48.015625 C 29.226562 -58.691406 29.882812 -69.316406 30.5625 -79.890625 C 26.195312 -79.796875 21.925781 -79.503906 17.75 -79.015625 C 14.9375 -78.828125 12.679688 -79.363281 10.984375 -80.625 C 9.285156 -81.882812 8.171875 -83.582031 7.640625 -85.71875 C 7.109375 -87.851562 7.132812 -90.035156 7.71875 -92.265625 C 8.300781 -94.492188 9.414062 -96.410156 11.0625 -98.015625 C 12.707031 -99.617188 14.9375 -100.566406 17.75 -100.859375 C 33.957031 -102.503906 50.160156 -102.257812 66.359375 -100.125 Z M 66.359375 -100.125 "/></g></g></g><g fill="#ff16b7" fill-opacity="0.502"><g transform="translate(508.557046, 164.431535)"><g><path d="M 66.359375 -100.125 C 69.078125 -99.832031 71.257812 -98.835938 72.90625 -97.140625 C 74.5625 -95.441406 75.675781 -93.476562 76.25 -91.25 C 76.832031 -89.019531 76.832031 -86.859375 76.25 -84.765625 C 75.675781 -82.679688 74.5625 -81.007812 72.90625 -79.75 C 71.257812 -78.488281 69.078125 -78.050781 66.359375 -78.4375 C 61.796875 -79.019531 57.140625 -79.457031 52.390625 -79.75 C 51.710938 -69.082031 51.054688 -58.457031 50.421875 -47.875 C 49.796875 -37.300781 49.144531 -26.726562 48.46875 -16.15625 C 48.363281 -13.34375 47.507812 -11.085938 45.90625 -9.390625 C 44.3125 -7.691406 42.421875 -6.570312 40.234375 -6.03125 C 38.054688 -5.5 35.898438 -5.5 33.765625 -6.03125 C 31.628906 -6.570312 29.878906 -7.691406 28.515625 -9.390625 C 27.160156 -11.085938 26.53125 -13.34375 26.625 -16.15625 C 27.3125 -26.726562 27.96875 -37.347656 28.59375 -48.015625 C 29.226562 -58.691406 29.882812 -69.316406 30.5625 -79.890625 C 26.195312 -79.796875 21.925781 -79.503906 17.75 -79.015625 C 14.9375 -78.828125 12.679688 -79.363281 10.984375 -80.625 C 9.285156 -81.882812 8.171875 -83.582031 7.640625 -85.71875 C 7.109375 -87.851562 7.132812 -90.035156 7.71875 -92.265625 C 8.300781 -94.492188 9.414062 -96.410156 11.0625 -98.015625 C 12.707031 -99.617188 14.9375 -100.566406 17.75 -100.859375 C 33.957031 -102.503906 50.160156 -102.257812 66.359375 -100.125 Z M 66.359375 -100.125 "/></g></g></g><g fill="#ff914d" fill-opacity="1"><g transform="translate(503.59135, 156.167232)"><g><path d="M 66.359375 -100.125 C 69.078125 -99.832031 71.257812 -98.835938 72.90625 -97.140625 C 74.5625 -95.441406 75.675781 -93.476562 76.25 -91.25 C 76.832031 -89.019531 76.832031 -86.859375 76.25 -84.765625 C 75.675781 -82.679688 74.5625 -81.007812 72.90625 -79.75 C 71.257812 -78.488281 69.078125 -78.050781 66.359375 -78.4375 C 61.796875 -79.019531 57.140625 -79.457031 52.390625 -79.75 C 51.710938 -69.082031 51.054688 -58.457031 50.421875 -47.875 C 49.796875 -37.300781 49.144531 -26.726562 48.46875 -16.15625 C 48.363281 -13.34375 47.507812 -11.085938 45.90625 -9.390625 C 44.3125 -7.691406 42.421875 -6.570312 40.234375 -6.03125 C 38.054688 -5.5 35.898438 -5.5 33.765625 -6.03125 C 31.628906 -6.570312 29.878906 -7.691406 28.515625 -9.390625 C 27.160156 -11.085938 26.53125 -13.34375 26.625 -16.15625 C 27.3125 -26.726562 27.96875 -37.347656 28.59375 -48.015625 C 29.226562 -58.691406 29.882812 -69.316406 30.5625 -79.890625 C 26.195312 -79.796875 21.925781 -79.503906 17.75 -79.015625 C 14.9375 -78.828125 12.679688 -79.363281 10.984375 -80.625 C 9.285156 -81.882812 8.171875 -83.582031 7.640625 -85.71875 C 7.109375 -87.851562 7.132812 -90.035156 7.71875 -92.265625 C 8.300781 -94.492188 9.414062 -96.410156 11.0625 -98.015625 C 12.707031 -99.617188 14.9375 -100.566406 17.75 -100.859375 C 33.957031 -102.503906 50.160156 -102.257812 66.359375 -100.125 Z M 66.359375 -100.125 "/></g></g></g><path stroke-linecap="butt" transform="matrix(0.75, 0, 0, 0.75, 14.258637, 7.667242)" fill="none" stroke-linejoin="miter" d="M 110.425991 179.573897 C 112.608283 182.542648 113.504117 185.443689 113.129117 188.28744 C 112.748908 191.13119 111.514533 193.563482 109.4312 195.584315 C 107.379116 197.573899 104.884324 198.995774 101.946824 199.84994 C 99.040574 200.698899 96.071824 200.730149 93.040574 199.94369 C 90.009323 199.152024 87.389532 197.271815 85.17599 194.303065 C 79.363489 186.282231 72.858281 178.875981 65.660363 172.089522 C 58.488488 165.297855 50.769737 159.183271 42.493695 153.750979 C 41.863487 161.521813 41.243695 169.230147 40.644737 176.870772 C 40.077028 184.485356 39.462445 192.172857 38.800987 199.94369 C 38.545778 203.698899 37.347862 206.667649 35.19682 208.849941 C 33.082236 211.058274 30.524944 212.54265 27.524944 213.303066 C 24.556194 214.089525 21.681194 214.089525 18.899944 213.303066 C 16.123902 212.54265 13.832235 211.058274 12.030152 208.849941 C 10.233276 206.667649 9.457235 203.698899 9.712443 199.94369 C 10.87911 185.698898 11.780152 171.28223 12.41036 156.688479 C 13.077027 142.068687 14.827027 127.761394 17.670777 113.77181 C 19.092652 106.662434 21.743694 99.745767 25.629111 93.021808 C 29.514528 86.292641 34.457236 80.704099 40.457237 76.250974 C 46.457237 71.766599 53.467654 69.396807 61.488488 69.146807 C 67.082239 68.891598 72.353072 69.933265 77.311406 72.271807 C 82.30099 74.610349 86.535365 77.813474 90.009323 81.886391 C 93.514532 85.964516 95.884324 90.620767 97.113491 95.865559 C 98.347866 101.073892 98.061407 106.459309 96.264532 112.016601 C 94.431199 117.480143 91.478073 122.70931 87.405157 127.698894 C 83.327031 132.657228 78.639531 136.954103 73.332239 140.584311 C 87.196823 151.698896 99.561407 164.698896 110.425991 179.573897 Z M 68.879114 101.740559 C 68.373905 99.146809 67.363489 97.693684 65.847863 97.381184 C 64.363488 97.063475 62.691613 97.490559 60.82703 98.657225 C 58.962446 99.8291 57.118696 101.313476 55.285363 103.110351 C 53.483279 104.912434 51.936404 106.698893 50.639529 108.464518 C 49.347862 110.204101 48.509321 111.464518 48.129112 112.256185 C 47.087446 115.094726 46.170779 118.318685 45.38432 121.917644 C 47.972862 121.537435 50.295779 120.735352 52.347863 119.500977 C 54.431196 118.27181 56.45203 116.756185 58.410363 114.954101 C 59.17078 114.167643 60.446821 112.933268 62.248905 111.261393 C 64.082238 109.584309 65.707238 107.849934 67.129114 106.047851 C 68.550989 104.219726 69.134322 102.782226 68.879114 101.740559 Z M 68.879114 101.740559 " stroke="#8c52ff" stroke-width="9.70205" stroke-opacity="1" stroke-miterlimit="4"/><g fill="#ffffff" fill-opacity="1"><g transform="translate(14.258637, 156.167232)"><g><path d="M 82.8125 -13.828125 C 84.457031 -11.597656 85.132812 -9.414062 84.84375 -7.28125 C 84.550781 -5.144531 83.628906 -3.320312 82.078125 -1.8125 C 80.523438 -0.3125 78.65625 0.75 76.46875 1.375 C 74.289062 2.007812 72.0625 2.035156 69.78125 1.453125 C 67.5 0.867188 65.535156 -0.535156 63.890625 -2.765625 C 59.523438 -8.773438 54.648438 -14.328125 49.265625 -19.421875 C 43.878906 -24.515625 38.082031 -29.101562 31.875 -33.1875 C 31.382812 -27.363281 30.921875 -21.585938 30.484375 -15.859375 C 30.046875 -10.140625 29.585938 -4.367188 29.109375 1.453125 C 28.910156 4.265625 28.007812 6.492188 26.40625 8.140625 C 24.8125 9.796875 22.894531 10.914062 20.65625 11.5 C 18.425781 12.082031 16.269531 12.082031 14.1875 11.5 C 12.101562 10.914062 10.378906 9.796875 9.015625 8.140625 C 7.660156 6.492188 7.082031 4.265625 7.28125 1.453125 C 8.15625 -9.210938 8.832031 -20.023438 9.3125 -30.984375 C 9.800781 -41.953125 11.113281 -52.675781 13.25 -63.15625 C 14.3125 -68.5 16.296875 -73.691406 19.203125 -78.734375 C 22.117188 -83.773438 25.832031 -87.96875 30.34375 -91.3125 C 34.851562 -94.664062 40.117188 -96.4375 46.140625 -96.625 C 50.304688 -96.820312 54.253906 -96.046875 57.984375 -94.296875 C 61.722656 -92.554688 64.898438 -90.15625 67.515625 -87.09375 C 70.140625 -84.039062 71.910156 -80.550781 72.828125 -76.625 C 73.753906 -72.695312 73.539062 -68.644531 72.1875 -64.46875 C 70.820312 -60.394531 68.613281 -56.488281 65.5625 -52.75 C 62.507812 -49.019531 58.992188 -45.796875 55.015625 -43.078125 C 65.390625 -34.734375 74.65625 -24.984375 82.8125 -13.828125 Z M 51.65625 -72.1875 C 51.269531 -74.125 50.519531 -75.210938 49.40625 -75.453125 C 48.289062 -75.703125 47.03125 -75.390625 45.625 -74.515625 C 44.21875 -73.640625 42.832031 -72.519531 41.46875 -71.15625 C 40.113281 -69.800781 38.953125 -68.46875 37.984375 -67.15625 C 37.015625 -65.851562 36.382812 -64.910156 36.09375 -64.328125 C 35.3125 -62.191406 34.628906 -59.765625 34.046875 -57.046875 C 35.992188 -57.335938 37.742188 -57.941406 39.296875 -58.859375 C 40.847656 -59.785156 42.351562 -60.925781 43.8125 -62.28125 C 44.382812 -62.863281 45.347656 -63.785156 46.703125 -65.046875 C 48.066406 -66.304688 49.28125 -67.613281 50.34375 -68.96875 C 51.414062 -70.332031 51.851562 -71.40625 51.65625 -72.1875 Z M 51.65625 -72.1875 "/></g></g></g><path stroke-linecap="butt" transform="matrix(0.75, 0, 0, 0.75, 104.500246, 7.667242)" fill="none" stroke-linejoin="miter" d="M 80.911136 156.881188 C 84.671553 157.006188 87.671553 158.079104 89.916345 160.099938 C 92.187178 162.089521 93.671553 164.537438 94.36947 167.443688 C 95.093428 170.349938 95.093428 173.256189 94.36947 176.162439 C 93.671553 179.068689 92.187178 181.464523 89.916345 183.360356 C 87.671553 185.224939 84.671553 186.032231 80.911136 185.777023 C 72.135093 185.527023 63.338218 185.589523 54.525717 185.969731 C 45.713217 186.344731 36.92155 187.245773 28.140299 188.667648 C 25.421549 189.204106 22.567382 188.985356 19.567382 188.00619 C 16.598632 187.027023 14.119465 185.443689 12.129881 183.266606 C 10.140298 181.058272 9.395506 178.198897 9.900714 174.693689 C 12.114256 156.719729 14.525715 138.813478 17.150715 120.969727 C 19.801757 103.125976 22.692382 85.3291 25.817382 67.584307 C 26.19759 65.402015 26.973632 63.474931 28.140299 61.803056 C 29.181966 59.969723 30.666341 58.485348 32.593424 57.349931 C 34.551758 56.183264 36.9528 55.516598 39.791341 55.360348 C 53.754884 54.855139 67.713218 55.120764 81.671552 56.167639 C 85.431969 56.417639 88.447595 57.615556 90.718428 59.766598 C 92.99447 61.881181 94.478845 64.407223 95.171553 67.344723 C 95.90072 70.250974 95.90072 73.125974 95.171553 75.964516 C 94.478845 78.808266 92.99447 81.131183 90.718428 82.933266 C 88.447595 84.730141 85.431969 85.506183 81.671552 85.250975 C 72.103843 84.620766 62.343426 84.303058 52.395509 84.303058 C 51.728842 88.063475 51.067384 91.818683 50.405925 95.5791 C 49.775717 99.308267 49.2028 103.047851 48.697592 106.808268 C 54.004884 106.933268 59.119468 107.188476 64.046551 107.563476 C 67.931968 108.099934 71.327802 109.599934 74.234052 112.063476 C 77.140302 114.495768 78.593427 117.844727 78.593427 122.110352 C 78.593427 124.573894 77.911136 126.969727 76.556969 129.308269 C 75.197594 131.646811 73.411135 133.527019 71.202802 134.948894 C 69.02051 136.365561 66.640301 136.954103 64.046551 136.698895 C 57.447593 136.037436 50.848634 135.766603 44.244467 135.891603 C 43.739258 139.52702 43.218425 143.188478 42.681967 146.886395 C 42.176758 150.547854 41.655925 154.261396 41.119466 158.016604 C 47.718425 157.386396 54.322592 156.943688 60.921551 156.688479 C 67.52051 156.407229 74.187177 156.469729 80.911136 156.881188 Z M 80.911136 156.881188 " stroke="#8c52ff" stroke-width="9.70205" stroke-opacity="1" stroke-miterlimit="4"/><g fill="#ffffff" fill-opacity="1"><g transform="translate(104.500246, 156.167232)"><g><path d="M 60.6875 -30.859375 C 63.5 -30.753906 65.753906 -29.953125 67.453125 -28.453125 C 69.148438 -26.953125 70.265625 -25.109375 70.796875 -22.921875 C 71.328125 -20.734375 71.328125 -18.546875 70.796875 -16.359375 C 70.265625 -14.179688 69.148438 -12.390625 67.453125 -10.984375 C 65.753906 -9.578125 63.5 -8.972656 60.6875 -9.171875 C 54.09375 -9.359375 47.492188 -9.304688 40.890625 -9.015625 C 34.296875 -8.734375 27.703125 -8.054688 21.109375 -6.984375 C 19.066406 -6.597656 16.925781 -6.769531 14.6875 -7.5 C 12.457031 -8.226562 10.59375 -9.414062 9.09375 -11.0625 C 7.59375 -12.707031 7.035156 -14.84375 7.421875 -17.46875 C 9.066406 -30.945312 10.882812 -44.378906 12.875 -57.765625 C 14.863281 -71.160156 17.023438 -84.503906 19.359375 -97.796875 C 19.648438 -99.441406 20.234375 -100.894531 21.109375 -102.15625 C 21.878906 -103.519531 22.988281 -104.632812 24.4375 -105.5 C 25.894531 -106.375 27.691406 -106.863281 29.828125 -106.96875 C 40.304688 -107.351562 50.785156 -107.160156 61.265625 -106.390625 C 64.078125 -106.191406 66.332031 -105.289062 68.03125 -103.6875 C 69.726562 -102.09375 70.84375 -100.203125 71.375 -98.015625 C 71.914062 -95.828125 71.914062 -93.664062 71.375 -91.53125 C 70.84375 -89.40625 69.726562 -87.660156 68.03125 -86.296875 C 66.332031 -84.941406 64.078125 -84.359375 61.265625 -84.546875 C 54.085938 -85.035156 46.765625 -85.28125 39.296875 -85.28125 C 38.804688 -82.46875 38.316406 -79.65625 37.828125 -76.84375 C 37.347656 -74.03125 36.914062 -71.21875 36.53125 -68.40625 C 40.507812 -68.300781 44.34375 -68.101562 48.03125 -67.8125 C 50.9375 -67.425781 53.476562 -66.3125 55.65625 -64.46875 C 57.84375 -62.625 58.9375 -60.101562 58.9375 -56.90625 C 58.9375 -55.0625 58.425781 -53.265625 57.40625 -51.515625 C 56.394531 -49.773438 55.0625 -48.367188 53.40625 -47.296875 C 51.757812 -46.234375 49.96875 -45.796875 48.03125 -45.984375 C 43.082031 -46.472656 38.132812 -46.664062 33.1875 -46.5625 C 32.789062 -43.851562 32.398438 -41.113281 32.015625 -38.34375 C 31.628906 -35.582031 31.242188 -32.796875 30.859375 -29.984375 C 35.804688 -30.460938 40.753906 -30.800781 45.703125 -31 C 50.648438 -31.195312 55.644531 -31.148438 60.6875 -30.859375 Z M 60.6875 -30.859375 "/></g></g></g><path stroke-linecap="butt" transform="matrix(0.75, 0, 0, 0.75, 185.441568, 7.667242)" fill="none" stroke-linejoin="miter" d="M 87.68729 63.131181 C 91.447707 62.625973 94.682082 63.115556 97.400833 64.599932 C 100.114374 66.084307 102.213333 68.183265 103.697708 70.896807 C 105.182083 73.615557 105.958125 76.391599 106.020625 79.235349 C 106.114375 82.079099 105.312291 84.636391 103.603958 86.912433 C 101.932083 89.183266 99.213333 90.636392 95.458124 91.2666 C 88.853957 92.308267 82.254998 93.355142 75.65604 94.396808 C 69.083122 95.438475 62.499789 96.464517 55.90083 97.474934 C 55.77583 97.474934 55.223747 97.584309 54.24458 97.808267 C 53.265413 97.995767 52.187288 98.152017 51.020621 98.282225 C 51.020621 99.162434 50.958121 99.813475 50.833121 100.219726 C 51.083121 103.188476 50.879996 106.334309 50.21333 109.646809 C 49.583121 112.933268 49.077913 116.058268 48.697704 119.027018 C 48.697704 119.407227 48.666454 119.83431 48.603954 120.308268 C 48.541454 120.750977 48.510204 121.224935 48.510204 121.730144 C 58.458122 120.183268 68.359164 119.344727 78.213331 119.219727 C 81.93729 119.094727 84.93729 120.006185 87.213332 121.964519 C 89.489374 123.891602 90.973749 126.308269 91.666457 129.214519 C 92.395624 132.120769 92.395624 134.995769 91.666457 137.834311 C 90.973749 140.678061 89.489374 143.110353 87.213332 145.131187 C 84.93729 147.12077 81.93729 148.178062 78.213331 148.30827 C 66.937289 148.46452 55.74458 149.693687 44.624788 152.000979 C 43.583121 159.641604 42.510204 167.287438 41.406037 174.928064 C 40.327912 182.542648 39.20812 190.167648 38.041454 197.808274 C 37.374787 201.56869 35.942495 204.287441 33.728953 205.959316 C 31.55187 207.631191 29.010203 208.438483 26.103953 208.375983 C 23.197703 208.313483 20.385203 207.537441 17.671661 206.053066 C 14.952911 204.568691 12.853952 202.469732 11.369577 199.750982 C 9.885202 197.03744 9.395619 193.860357 9.900827 190.230148 C 12.489369 174.058272 14.781036 157.891604 16.770619 141.719728 C 18.791452 125.553061 20.702911 109.381184 22.499786 93.209308 C 23.291453 86.230141 25.296661 80.943683 28.52062 77.339516 C 31.77062 73.709307 36.890412 71.308265 43.869579 70.141599 C 51.098746 68.844723 58.395622 67.646807 65.754997 66.537432 C 73.145623 65.433265 80.452915 64.297848 87.68729 63.131181 Z M 87.68729 63.131181 " stroke="#8c52ff" stroke-width="9.70205" stroke-opacity="1" stroke-miterlimit="4"/><g fill="#ffffff" fill-opacity="1"><g transform="translate(185.441568, 156.167232)"><g><path d="M 65.78125 -101.140625 C 68.59375 -101.523438 71.015625 -101.160156 73.046875 -100.046875 C 75.085938 -98.929688 76.664062 -97.351562 77.78125 -95.3125 C 78.894531 -93.28125 79.476562 -91.195312 79.53125 -89.0625 C 79.582031 -86.925781 78.976562 -85.007812 77.71875 -83.3125 C 76.457031 -81.613281 74.414062 -80.523438 71.59375 -80.046875 C 66.644531 -79.265625 61.695312 -78.484375 56.75 -77.703125 C 51.800781 -76.929688 46.851562 -76.160156 41.90625 -75.390625 C 41.8125 -75.390625 41.398438 -75.316406 40.671875 -75.171875 C 39.941406 -75.023438 39.144531 -74.898438 38.28125 -74.796875 C 38.28125 -74.117188 38.226562 -73.632812 38.125 -73.34375 C 38.320312 -71.113281 38.175781 -68.757812 37.6875 -66.28125 C 37.207031 -63.8125 36.820312 -61.460938 36.53125 -59.234375 C 36.53125 -58.941406 36.503906 -58.625 36.453125 -58.28125 C 36.398438 -57.945312 36.375 -57.582031 36.375 -57.1875 C 43.851562 -58.351562 51.28125 -58.984375 58.65625 -59.078125 C 61.46875 -59.179688 63.722656 -58.503906 65.421875 -57.046875 C 67.117188 -55.585938 68.234375 -53.765625 68.765625 -51.578125 C 69.296875 -49.398438 69.296875 -47.242188 68.765625 -45.109375 C 68.234375 -42.972656 67.117188 -41.15625 65.421875 -39.65625 C 63.722656 -38.15625 61.46875 -37.351562 58.65625 -37.25 C 50.207031 -37.15625 41.8125 -36.234375 33.46875 -34.484375 C 32.695312 -28.765625 31.894531 -23.039062 31.0625 -17.3125 C 30.238281 -11.59375 29.394531 -5.867188 28.53125 -0.140625 C 28.039062 2.671875 26.96875 4.707031 25.3125 5.96875 C 23.664062 7.226562 21.75 7.832031 19.5625 7.78125 C 17.382812 7.738281 15.273438 7.15625 13.234375 6.03125 C 11.203125 4.914062 9.628906 3.335938 8.515625 1.296875 C 7.398438 -0.734375 7.035156 -3.109375 7.421875 -5.828125 C 9.359375 -17.953125 11.078125 -30.078125 12.578125 -42.203125 C 14.085938 -54.328125 15.519531 -66.457031 16.875 -78.59375 C 17.457031 -83.832031 18.960938 -87.804688 21.390625 -90.515625 C 23.816406 -93.234375 27.648438 -95.03125 32.890625 -95.90625 C 38.328125 -96.875 43.804688 -97.769531 49.328125 -98.59375 C 54.859375 -99.414062 60.34375 -100.265625 65.78125 -101.140625 Z M 65.78125 -101.140625 "/></g></g></g><path stroke-linecap="butt" transform="matrix(0.75, 0, 0, 0.75, 270.229033, 7.667242)" fill="none" stroke-linejoin="miter" d="M 85.554003 149.678062 C 89.31442 149.428062 92.28317 150.167645 94.460253 151.907229 C 96.673795 153.641604 98.173795 155.948896 98.960254 158.823896 C 99.75192 161.662438 99.75192 164.568688 98.960254 167.537438 C 98.173795 170.506188 96.642545 173.06348 94.366503 175.214522 C 92.12692 177.329106 89.18942 178.511397 85.554003 178.766606 C 75.736294 179.428064 66.069626 180.678064 56.564417 182.511398 C 47.059208 184.308273 37.580041 186.56869 28.137332 189.282231 C 25.42379 190.042648 22.564415 189.88119 19.564415 188.808273 C 16.595665 187.704106 14.147748 185.948898 12.220665 183.553064 C 10.293581 181.152022 9.460248 178.339522 9.710248 175.120772 C 11.257123 159.959313 12.772748 144.813478 14.257123 129.688477 C 15.741498 114.558268 17.194623 99.433267 18.616498 84.303058 C 19.027957 80.672849 20.324832 77.735349 22.501915 75.495766 C 24.715457 73.219724 27.303999 71.735349 30.272749 71.04264 C 33.241499 70.313474 36.116499 70.313474 38.892541 71.04264 C 41.673791 71.735349 43.929 73.188474 45.668583 75.396807 C 47.434209 77.579099 48.132125 80.547849 47.751917 84.303058 C 46.58525 96.339517 45.413375 108.339518 44.246708 120.308268 C 43.080042 132.245769 41.908166 144.167645 40.7415 156.073896 C 55.361292 152.980146 70.304002 150.849937 85.554003 149.678062 Z M 85.554003 149.678062 " stroke="#8c52ff" stroke-width="9.70205" stroke-opacity="1" stroke-miterlimit="4"/><g fill="#ffffff" fill-opacity="1"><g transform="translate(270.229033, 156.167232)"><g><path d="M 64.171875 -36.234375 C 66.992188 -36.429688 69.226562 -35.875 70.875 -34.5625 C 72.519531 -33.25 73.632812 -31.523438 74.21875 -29.390625 C 74.800781 -27.265625 74.800781 -25.082031 74.21875 -22.84375 C 73.632812 -20.613281 72.492188 -18.695312 70.796875 -17.09375 C 69.097656 -15.5 66.890625 -14.601562 64.171875 -14.40625 C 56.804688 -13.925781 49.554688 -13.003906 42.421875 -11.640625 C 35.285156 -10.285156 28.179688 -8.585938 21.109375 -6.546875 C 19.066406 -5.960938 16.925781 -6.082031 14.6875 -6.90625 C 12.457031 -7.738281 10.613281 -9.050781 9.15625 -10.84375 C 7.707031 -12.632812 7.082031 -14.742188 7.28125 -17.171875 C 8.4375 -28.523438 9.570312 -39.875 10.6875 -51.21875 C 11.8125 -62.570312 12.90625 -73.925781 13.96875 -85.28125 C 14.257812 -88 15.226562 -90.207031 16.875 -91.90625 C 18.53125 -93.601562 20.472656 -94.71875 22.703125 -95.25 C 24.929688 -95.78125 27.085938 -95.78125 29.171875 -95.25 C 31.265625 -94.71875 32.960938 -93.625 34.265625 -91.96875 C 35.578125 -90.320312 36.085938 -88.09375 35.796875 -85.28125 C 34.921875 -76.257812 34.046875 -67.257812 33.171875 -58.28125 C 32.304688 -49.3125 31.4375 -40.363281 30.5625 -31.4375 C 41.519531 -33.757812 52.722656 -35.359375 64.171875 -36.234375 Z M 64.171875 -36.234375 "/></g></g></g><path stroke-linecap="butt" transform="matrix(0.75, 0, 0, 0.75, 352.435854, 7.667242)" fill="none" stroke-linejoin="miter" d="M 80.913659 156.881188 C 84.668867 157.006188 87.674076 158.079104 89.913659 160.099938 C 92.189701 162.089521 93.674076 164.537438 94.366785 167.443688 C 95.095951 170.349938 95.095951 173.256189 94.366785 176.162439 C 93.674076 179.068689 92.189701 181.464523 89.913659 183.360356 C 87.674076 185.224939 84.668867 186.032231 80.913659 185.777023 C 72.132408 185.527023 63.335533 185.589523 54.52824 185.969731 C 45.71574 186.344731 36.918864 187.245773 28.137614 188.667648 C 25.424072 189.204106 22.564697 188.985356 19.564696 188.00619 C 16.595946 187.027023 14.116779 185.443689 12.127196 183.266606 C 10.137612 181.058272 9.398029 178.198897 9.903237 174.693689 C 12.111571 156.719729 14.528238 138.813478 17.14803 120.969727 C 19.80428 103.125976 22.689697 85.3291 25.819905 67.584307 C 26.194905 65.402015 26.970947 63.474931 28.137614 61.803056 C 29.17928 59.969723 30.663655 58.485348 32.590739 57.349931 C 34.549072 56.183264 36.950114 55.516598 39.793864 55.360348 C 53.752199 54.855139 67.710533 55.120764 81.668867 56.167639 C 85.429284 56.417639 88.444909 57.615556 90.720951 59.766598 C 92.991785 61.881181 94.47616 64.407223 95.174076 67.344723 C 95.898035 70.250974 95.898035 73.125974 95.174076 75.964516 C 94.47616 78.808266 92.991785 81.131183 90.720951 82.933266 C 88.444909 84.730141 85.429284 85.506183 81.668867 85.250975 C 72.101158 84.620766 62.340741 84.303058 52.392824 84.303058 C 51.731365 88.063475 51.069907 91.818683 50.40324 95.5791 C 49.773032 99.308267 49.205323 103.047851 48.700115 106.808268 C 54.007407 106.933268 59.121991 107.188476 64.049074 107.563476 C 67.934491 108.099934 71.330325 109.599934 74.231367 112.063476 C 77.137617 114.495768 78.590742 117.844727 78.590742 122.110352 C 78.590742 124.573894 77.913659 126.969727 76.554283 129.308269 C 75.194908 131.646811 73.413658 133.527019 71.200116 134.948894 C 69.023033 136.365561 66.637616 136.954103 64.049074 136.698895 C 57.450116 136.037436 50.845948 135.766603 44.24699 135.891603 C 43.741781 139.52702 43.220948 143.188478 42.68449 146.886395 C 42.179281 150.547854 41.658448 154.261396 41.121989 158.016604 C 47.720948 157.386396 54.319907 156.943688 60.924074 156.688479 C 67.523033 156.407229 74.184492 156.469729 80.913659 156.881188 Z M 80.913659 156.881188 " stroke="#8c52ff" stroke-width="9.70205" stroke-opacity="1" stroke-miterlimit="4"/><g fill="#ffffff" fill-opacity="1"><g transform="translate(352.435854, 156.167232)"><g><path d="M 60.6875 -30.859375 C 63.5 -30.753906 65.753906 -29.953125 67.453125 -28.453125 C 69.148438 -26.953125 70.265625 -25.109375 70.796875 -22.921875 C 71.328125 -20.734375 71.328125 -18.546875 70.796875 -16.359375 C 70.265625 -14.179688 69.148438 -12.390625 67.453125 -10.984375 C 65.753906 -9.578125 63.5 -8.972656 60.6875 -9.171875 C 54.09375 -9.359375 47.492188 -9.304688 40.890625 -9.015625 C 34.296875 -8.734375 27.703125 -8.054688 21.109375 -6.984375 C 19.066406 -6.597656 16.925781 -6.769531 14.6875 -7.5 C 12.457031 -8.226562 10.59375 -9.414062 9.09375 -11.0625 C 7.59375 -12.707031 7.035156 -14.84375 7.421875 -17.46875 C 9.066406 -30.945312 10.882812 -44.378906 12.875 -57.765625 C 14.863281 -71.160156 17.023438 -84.503906 19.359375 -97.796875 C 19.648438 -99.441406 20.234375 -100.894531 21.109375 -102.15625 C 21.878906 -103.519531 22.988281 -104.632812 24.4375 -105.5 C 25.894531 -106.375 27.691406 -106.863281 29.828125 -106.96875 C 40.304688 -107.351562 50.785156 -107.160156 61.265625 -106.390625 C 64.078125 -106.191406 66.332031 -105.289062 68.03125 -103.6875 C 69.726562 -102.09375 70.84375 -100.203125 71.375 -98.015625 C 71.914062 -95.828125 71.914062 -93.664062 71.375 -91.53125 C 70.84375 -89.40625 69.726562 -87.660156 68.03125 -86.296875 C 66.332031 -84.941406 64.078125 -84.359375 61.265625 -84.546875 C 54.085938 -85.035156 46.765625 -85.28125 39.296875 -85.28125 C 38.804688 -82.46875 38.316406 -79.65625 37.828125 -76.84375 C 37.347656 -74.03125 36.914062 -71.21875 36.53125 -68.40625 C 40.507812 -68.300781 44.34375 -68.101562 48.03125 -67.8125 C 50.9375 -67.425781 53.476562 -66.3125 55.65625 -64.46875 C 57.84375 -62.625 58.9375 -60.101562 58.9375 -56.90625 C 58.9375 -55.0625 58.425781 -53.265625 57.40625 -51.515625 C 56.394531 -49.773438 55.0625 -48.367188 53.40625 -47.296875 C 51.757812 -46.234375 49.96875 -45.796875 48.03125 -45.984375 C 43.082031 -46.472656 38.132812 -46.664062 33.1875 -46.5625 C 32.789062 -43.851562 32.398438 -41.113281 32.015625 -38.34375 C 31.628906 -35.582031 31.242188 -32.796875 30.859375 -29.984375 C 35.804688 -30.460938 40.753906 -30.800781 45.703125 -31 C 50.648438 -31.195312 55.644531 -31.148438 60.6875 -30.859375 Z M 60.6875 -30.859375 "/></g></g></g><path stroke-linecap="butt" transform="matrix(0.75, 0, 0, 0.75, 425.908659, 7.667242)" fill="none" stroke-linejoin="miter" d="M 86.361377 151.053062 C 89.960335 150.136395 93.090544 150.297854 95.741586 151.527021 C 98.392627 152.756187 100.460336 154.667646 101.944711 157.261396 C 103.460336 159.849938 104.252003 162.65723 104.314503 165.693688 C 104.377003 168.724938 103.590544 171.46973 101.944711 173.933272 C 100.335336 176.396814 97.731169 178.152022 94.132211 179.193689 C 87.528043 180.990564 80.75721 182.381189 73.809293 183.360356 C 66.892625 184.308273 60.038458 184.339523 53.246791 183.454106 C 46.455124 182.542648 39.96554 180.344731 33.77804 176.870772 C 25.757206 172.323897 19.642622 166.037438 15.444705 158.016604 C 11.24158 149.99577 9.330122 141.323895 9.71033 132.011394 C 10.215538 122.974935 12.475955 114.323893 16.486372 106.047851 C 20.496789 97.740559 25.835331 90.402017 32.49679 84.021808 C 39.163457 77.610349 46.725957 72.69889 55.1895 69.287432 C 63.684292 65.844723 72.512417 64.500973 81.668668 65.26139 C 85.429085 65.54264 88.44471 66.76139 90.720752 68.907223 C 92.991585 71.027015 94.475961 73.568682 95.173877 76.537432 C 95.897836 79.506182 95.897836 82.407224 95.173877 85.250975 C 94.475961 88.094725 92.991585 90.402017 90.720752 92.167642 C 88.44471 93.907225 85.429085 94.646808 81.668668 94.396808 C 74.944709 93.86035 68.564501 95.120767 62.53325 98.183267 C 56.53325 101.214517 51.460333 105.417643 47.324916 110.787435 C 43.189499 116.157227 40.533249 122.204102 39.366582 128.928061 C 38.231165 134.740561 38.52804 139.43327 40.267624 143.000978 C 42.001999 146.537437 44.611374 149.188479 48.085333 150.959312 C 51.590541 152.693687 55.569708 153.719729 60.022833 154.037437 C 64.507209 154.355146 69.038459 154.224937 73.616584 153.657229 C 78.231168 153.089521 82.47596 152.219729 86.361377 151.053062 Z M 86.361377 151.053062 " stroke="#8c52ff" stroke-width="9.70205" stroke-opacity="1" stroke-miterlimit="4"/><g fill="#ffffff" fill-opacity="1"><g transform="translate(425.908659, 156.167232)"><g><path d="M 64.765625 -35.21875 C 67.484375 -35.894531 69.832031 -35.769531 71.8125 -34.84375 C 73.800781 -33.925781 75.351562 -32.5 76.46875 -30.5625 C 77.59375 -28.625 78.175781 -26.515625 78.21875 -24.234375 C 78.269531 -21.953125 77.6875 -19.890625 76.46875 -18.046875 C 75.257812 -16.203125 73.296875 -14.890625 70.578125 -14.109375 C 65.628906 -12.753906 60.5625 -11.710938 55.375 -10.984375 C 50.1875 -10.253906 45.046875 -10.226562 39.953125 -10.90625 C 34.859375 -11.59375 29.984375 -13.242188 25.328125 -15.859375 C 19.304688 -19.253906 14.71875 -23.957031 11.5625 -29.96875 C 8.414062 -35.988281 6.988281 -42.492188 7.28125 -49.484375 C 7.664062 -56.273438 9.359375 -62.773438 12.359375 -68.984375 C 15.367188 -75.191406 19.375 -80.695312 24.375 -85.5 C 29.375 -90.300781 35.050781 -93.988281 41.40625 -96.5625 C 47.757812 -99.132812 54.378906 -100.128906 61.265625 -99.546875 C 64.078125 -99.347656 66.332031 -98.445312 68.03125 -96.84375 C 69.726562 -95.25 70.84375 -93.332031 71.375 -91.09375 C 71.914062 -88.863281 71.914062 -86.679688 71.375 -84.546875 C 70.84375 -82.421875 69.726562 -80.703125 68.03125 -79.390625 C 66.332031 -78.078125 64.078125 -77.519531 61.265625 -77.71875 C 56.222656 -78.101562 51.445312 -77.15625 46.9375 -74.875 C 42.425781 -72.59375 38.617188 -69.4375 35.515625 -65.40625 C 32.410156 -61.382812 30.421875 -56.851562 29.546875 -51.8125 C 28.671875 -47.445312 28.882812 -43.925781 30.1875 -41.25 C 31.5 -38.582031 33.460938 -36.59375 36.078125 -35.28125 C 38.703125 -33.976562 41.6875 -33.203125 45.03125 -32.953125 C 48.382812 -32.710938 51.78125 -32.8125 55.21875 -33.25 C 58.664062 -33.6875 61.847656 -34.34375 64.765625 -35.21875 Z M 64.765625 -35.21875 "/></g></g></g><path stroke-linecap="butt" transform="matrix(0.75, 0, 0, 0.75, 503.59135, 7.667242)" fill="none" stroke-linejoin="miter" d="M 88.492789 64.500973 C 92.091748 64.881182 94.997998 66.209307 97.21154 68.48014 C 99.419873 70.756182 100.904248 73.375974 101.664665 76.344724 C 102.451123 79.313474 102.451123 82.188474 101.664665 84.969725 C 100.904248 87.745766 99.419873 89.990558 97.21154 91.693683 C 94.997998 93.370767 92.091748 93.938475 88.492789 93.402017 C 82.399039 92.6416 76.190705 92.058267 69.872996 91.646808 C 68.961538 105.891601 68.076121 120.073893 67.221954 134.188478 C 66.399038 148.271812 65.534454 162.360355 64.617787 176.443689 C 64.492787 180.204106 63.352162 183.219731 61.206329 185.495773 C 59.091745 187.735356 56.565704 189.219731 53.628203 189.948898 C 50.721953 190.672856 47.846953 190.672856 45.003203 189.948898 C 42.159453 189.219731 39.826119 187.735356 37.992786 185.495773 C 36.190702 183.219731 35.372994 180.204106 35.529244 176.443689 C 36.414661 162.360355 37.268827 148.209312 38.086536 134.000978 C 38.940702 119.756185 39.826119 105.573893 40.742786 91.459308 C 34.930285 91.584308 29.242785 91.980142 23.685493 92.6416 C 19.930284 92.896808 16.914659 92.183267 14.638617 90.511392 C 12.393826 88.834308 10.909451 86.5791 10.185492 83.735349 C 9.492784 80.860349 9.524034 77.938474 10.279242 74.969724 C 11.070909 72.000974 12.555284 69.459307 14.732367 67.344723 C 16.945909 65.19889 19.930284 63.91764 23.685493 63.506181 C 45.289661 61.329098 66.888621 61.662431 88.492789 64.500973 Z M 88.492789 64.500973 " stroke="#8c52ff" stroke-width="9.70205" stroke-opacity="1" stroke-miterlimit="4"/><g fill="#ffffff" fill-opacity="1"><g transform="translate(503.59135, 156.167232)"><g><path d="M 66.359375 -100.125 C 69.078125 -99.832031 71.257812 -98.835938 72.90625 -97.140625 C 74.5625 -95.441406 75.675781 -93.476562 76.25 -91.25 C 76.832031 -89.019531 76.832031 -86.859375 76.25 -84.765625 C 75.675781 -82.679688 74.5625 -81.007812 72.90625 -79.75 C 71.257812 -78.488281 69.078125 -78.050781 66.359375 -78.4375 C 61.796875 -79.019531 57.140625 -79.457031 52.390625 -79.75 C 51.710938 -69.082031 51.054688 -58.457031 50.421875 -47.875 C 49.796875 -37.300781 49.144531 -26.726562 48.46875 -16.15625 C 48.363281 -13.34375 47.507812 -11.085938 45.90625 -9.390625 C 44.3125 -7.691406 42.421875 -6.570312 40.234375 -6.03125 C 38.054688 -5.5 35.898438 -5.5 33.765625 -6.03125 C 31.628906 -6.570312 29.878906 -7.691406 28.515625 -9.390625 C 27.160156 -11.085938 26.53125 -13.34375 26.625 -16.15625 C 27.3125 -26.726562 27.96875 -37.347656 28.59375 -48.015625 C 29.226562 -58.691406 29.882812 -69.316406 30.5625 -79.890625 C 26.195312 -79.796875 21.925781 -79.503906 17.75 -79.015625 C 14.9375 -78.828125 12.679688 -79.363281 10.984375 -80.625 C 9.285156 -81.882812 8.171875 -83.582031 7.640625 -85.71875 C 7.109375 -87.851562 7.132812 -90.035156 7.71875 -92.265625 C 8.300781 -94.492188 9.414062 -96.410156 11.0625 -98.015625 C 12.707031 -99.617188 14.9375 -100.566406 17.75 -100.859375 C 33.957031 -102.503906 50.160156 -102.257812 66.359375 -100.125 Z M 66.359375 -100.125 "/></g></g></g><g fill="#8c52ff" fill-opacity="1"><g transform="translate(84.138677, 314.548799)"><g><path d="M 9.71875 -3.8125 L 9.984375 -6.3125 L 9.453125 -24.96875 L 9.984375 -27.453125 L 9.59375 -85.390625 L 9.859375 -88.15625 L 11.296875 -90.78125 L 13.921875 -92.21875 L 17.734375 -91.171875 L 21.546875 -88.421875 L 24.4375 -85.390625 L 25.875 -83.546875 L 27.71875 -81.84375 L 29.171875 -79.875 L 30.875 -78.03125 L 33.109375 -76.0625 L 36.265625 -72.125 L 45.328125 -62.796875 L 46.90625 -60.6875 L 49 -58.984375 L 50.578125 -56.75 L 52.28125 -55.046875 L 54.65625 -54.265625 L 57.546875 -55.171875 L 76.984375 -75.796875 L 78.171875 -77.78125 L 85.65625 -85.53125 L 88.671875 -89.203125 L 91.96875 -91.046875 L 95.90625 -92.21875 L 98.53125 -90.65625 L 99.96875 -88.15625 L 99.84375 -85.390625 L 100.109375 -83.15625 L 99.84375 -80.40625 L 100.234375 -43.21875 L 99.84375 -40.859375 L 100.109375 -38.234375 L 99.84375 -35.46875 L 99.96875 -32.84375 L 99.578125 -30.21875 L 99.84375 -25.09375 L 99.578125 -22.59375 L 100.109375 -6.828125 L 99.71875 -4.203125 L 98.265625 -1.4375 L 95.765625 0.125 L 80 0 L 77.109375 -1.046875 L 75.796875 -3.8125 L 76.203125 -21.9375 L 75.796875 -26.796875 L 75.9375 -29.421875 L 75.796875 -31.796875 L 76.203125 -34.28125 L 75.796875 -36.921875 L 74.75 -38.5 L 73.171875 -38.234375 L 71.34375 -36.390625 L 69.625 -34.15625 L 58.59375 -22.984375 L 56.359375 -21.421875 L 53.34375 -21.421875 L 49 -24.96875 L 47.296875 -27.1875 L 39.9375 -34.15625 L 36.65625 -38.234375 L 34.6875 -38.75 L 33.5 -36.921875 L 34.03125 -29.296875 L 33.625 -11.5625 L 34.03125 -8.796875 L 34.15625 -6.046875 L 33.890625 -3.546875 L 32.453125 -1.4375 L 28.515625 -0.265625 L 14.0625 0 L 10.90625 -1.4375 Z M 9.71875 -3.8125 "/></g></g></g><g fill="#8c52ff" fill-opacity="1"><g transform="translate(193.96875, 314.548799)"><g><path d="M 6.3125 -3.8125 L 6.3125 -13.921875 L 6.5625 -16.421875 L 8.140625 -18.921875 L 16.8125 -21.671875 L 18.125 -24.5625 L 18.390625 -29.6875 L 17.859375 -35.34375 L 18.53125 -37.96875 L 18 -43.09375 L 18.265625 -45.71875 L 18.390625 -51.109375 L 18 -54.125 L 17.859375 -56.359375 L 18.265625 -67.53125 L 16.546875 -69.890625 L 8.546875 -72.65625 L 7.21875 -75.140625 L 7.21875 -77.640625 L 6.96875 -80.265625 L 6.96875 -83.15625 L 7.21875 -85.390625 L 7.21875 -87.890625 L 8.671875 -90.65625 L 11.5625 -91.96875 L 16.6875 -91.703125 L 19.1875 -91.828125 L 27.1875 -91.703125 L 30.078125 -91.96875 L 46.765625 -91.828125 L 50.96875 -90.65625 L 52.03125 -88.015625 L 52.28125 -85.390625 L 52.03125 -83.03125 L 52.03125 -75.28125 L 50.578125 -72.78125 L 48.078125 -71.34375 L 45.1875 -71.203125 L 42.703125 -69.765625 L 41.25 -67.390625 L 41.25 -61.875 L 41.515625 -59.125 L 41.25 -56.484375 L 41.515625 -54 L 41.25 -49.921875 L 41.515625 -45.984375 L 40.984375 -40.46875 L 41.515625 -35.203125 L 41.25 -24.4375 L 42.703125 -21.8125 L 51.5 -19.046875 L 53.34375 -16.8125 L 52.9375 -8.796875 L 53.203125 -6.4375 L 53.203125 -3.546875 L 51.765625 -1.1875 L 49.265625 0.125 L 10.25 -0.125 L 7.625 -1.046875 Z M 6.3125 -3.8125 "/></g></g></g><g fill="#8c52ff" fill-opacity="1"><g transform="translate(253.613317, 314.548799)"><g><path d="M 77.515625 -2.109375 L 75.796875 -3.8125 L 74.234375 -5.78125 L 72.125 -7.484375 L 70.421875 -9.59375 L 57.671875 -22.328125 L 55.578125 -24.046875 L 36.78125 -42.4375 L 35.078125 -42.828125 L 33.765625 -41.25 L 34.28125 -38.5 L 33.890625 -6.3125 L 34.28125 -3.671875 L 33.109375 -1.046875 L 30.484375 0.265625 L 27.453125 0 L 24.703125 0.390625 L 18.125 0 L 13.65625 0.265625 L 11.171875 -1.1875 L 9.984375 -4.078125 L 9.984375 -6.5625 L 9.59375 -9.203125 L 9.984375 -14.1875 L 9.71875 -16.8125 L 9.859375 -22.203125 L 9.453125 -24.96875 L 9.453125 -27.453125 L 9.71875 -30.34375 L 9.71875 -32.84375 L 9.984375 -35.203125 L 9.453125 -54 L 9.859375 -56.75 L 9.71875 -59.515625 L 9.984375 -61.875 L 9.59375 -67.265625 L 9.859375 -69.890625 L 9.59375 -88.28125 L 11.296875 -90.78125 L 14.453125 -92.359375 L 18 -91.3125 L 23.25 -87.765625 L 30.34375 -80.53125 L 32.0625 -78.296875 L 34.28125 -76.71875 L 35.609375 -74.75 L 38.09375 -73.046875 L 39.546875 -71.078125 L 43.609375 -67.65625 L 46.375 -64.765625 L 47.828125 -62.921875 L 49.921875 -61.359375 L 54.515625 -56.625 L 56.484375 -55.046875 L 62.265625 -49.140625 L 64.109375 -48.609375 L 64.765625 -50.703125 L 64.640625 -55.96875 L 65.15625 -58.71875 L 65.15625 -61.21875 L 64.640625 -63.984375 L 64.765625 -87.890625 L 66.078125 -90.65625 L 69.234375 -91.96875 L 71.859375 -91.828125 L 74.234375 -92.09375 L 76.984375 -91.703125 L 79.875 -91.96875 L 82.375 -91.96875 L 85 -91.703125 L 87.890625 -90.390625 L 89.46875 -88.015625 L 89.203125 -81.1875 L 89.46875 -77.25 L 88.9375 -74.625 L 88.9375 -69.359375 L 89.203125 -66.875 L 88.8125 -61.609375 L 89.328125 -45.84375 L 89.078125 -42.953125 L 89.59375 -39.28125 L 88.9375 -3.546875 L 87.765625 -0.78125 L 84.734375 0.65625 L 81.328125 -0.390625 Z M 77.515625 -2.109375 "/></g></g></g><g fill="#8c52ff" fill-opacity="1"><g transform="translate(352.670589, 314.548799)"><g><path d="M 9.859375 -4.078125 L 10.109375 -9.0625 L 9.71875 -19.578125 L 9.984375 -22.203125 L 9.71875 -32.71875 L 10.109375 -37.84375 L 9.71875 -40.59375 L 10.109375 -43.09375 L 9.71875 -48.734375 L 10.109375 -53.734375 L 9.59375 -64.25 L 9.984375 -66.875 L 9.59375 -69.5 L 9.984375 -72.390625 L 9.71875 -77.375 L 9.859375 -80 L 9.59375 -82.640625 L 9.59375 -88.015625 L 11.5625 -90.515625 L 13.921875 -91.96875 L 16.6875 -91.828125 L 19.046875 -91.96875 L 21.671875 -91.703125 L 30.078125 -91.96875 L 32.71875 -91.703125 L 51.375 -91.5625 L 56.75 -90.515625 L 63.984375 -88.15625 L 66.609375 -86.84375 L 71.46875 -83.8125 L 75.140625 -80.265625 L 77.375 -78.5625 L 80.796875 -74.484375 L 81.84375 -72.25 L 84.875 -67.796875 L 86.84375 -62.53125 L 87.5 -60.171875 L 87.765625 -57.40625 L 89.734375 -49.921875 L 89.203125 -41.515625 L 89.328125 -39.28125 L 88.671875 -36.515625 L 88.28125 -33.765625 L 87.359375 -31.40625 L 86.84375 -28.765625 L 85.53125 -26.28125 L 84.875 -23.78125 L 80.796875 -17.203125 L 75.546875 -11.171875 L 64.375 -3.671875 L 56.75 -1.3125 L 48.34375 -0.125 L 24.703125 0 L 21.9375 0.390625 L 19.3125 0.390625 L 16.546875 0 L 13.53125 0 L 11.421875 -1.1875 Z M 37.703125 -21.15625 L 48.609375 -21.671875 L 53.34375 -22.984375 L 55.96875 -24.296875 L 58.0625 -25.625 L 59.640625 -27.71875 L 61.359375 -29.5625 L 63.0625 -31.921875 L 65.03125 -36.65625 L 65.8125 -39.15625 L 66.46875 -45.59375 L 66.078125 -49.65625 L 64.5 -57.40625 L 62.796875 -59.515625 L 61.359375 -62.015625 L 58.0625 -65.6875 L 53.59375 -68.578125 L 48.34375 -70.15625 L 44.40625 -70.421875 L 41.640625 -70.28125 L 38.890625 -70.421875 L 35.078125 -68.96875 L 33.5 -66.609375 L 33.5 -32.84375 L 33.109375 -30.21875 L 33.625 -27.84375 L 33.375 -25.21875 L 34.546875 -22.328125 Z M 37.703125 -21.15625 "/></g></g></g><g fill="#8c52ff" fill-opacity="1"><g transform="translate(448.180718, 314.548799)"><g><path d="M 3.28125 -3.9375 L 4.59375 -7.21875 L 6.171875 -9.453125 L 17.734375 -29.953125 L 18.921875 -32.71875 L 20.5 -35.203125 L 21.28125 -37.171875 L 22.734375 -39.671875 L 23.78125 -42.046875 L 26.9375 -46.5 L 29.5625 -52.421875 L 33.109375 -58.0625 L 36.65625 -65.15625 L 38.09375 -67.265625 L 38.359375 -69.890625 L 35.078125 -70.8125 L 30.609375 -70.6875 L 28.25 -71.078125 L 23.515625 -70.6875 L 15.234375 -70.8125 L 12.484375 -71.203125 L 10.109375 -70.9375 L 7.625 -72.25 L 6.171875 -74.75 L 6.5625 -80.265625 L 6.171875 -82.640625 L 6.4375 -85.53125 L 5.90625 -88.15625 L 7.484375 -90.65625 L 11.296875 -91.828125 L 56.75 -92.09375 L 59.375 -91.828125 L 72.125 -91.96875 L 74.75 -91.171875 L 75.28125 -87.890625 L 58.203125 -56.75 L 56.359375 -52.28125 L 54.515625 -49.921875 L 53.203125 -47.828125 L 52.421875 -45.453125 L 40.328125 -24.296875 L 40.59375 -22.203125 L 44.265625 -21.015625 L 67.125 -20.890625 L 69.5 -21.15625 L 72.125 -20.890625 L 75.015625 -19.578125 L 76.328125 -17.203125 L 76.453125 -14.3125 L 76.203125 -11.953125 L 76.71875 -9.203125 L 76.328125 -6.5625 L 76.59375 -4.078125 L 75.015625 -1.578125 L 72.515625 0 L 6.703125 -0.125 L 3.9375 -0.78125 Z M 3.28125 -3.9375 "/></g></g></g><path stroke-linecap="butt" transform="matrix(1.09494, 0, 0, 1.09494, 77.426083, 164.484848)" fill="none" stroke-linejoin="miter" d="M 8.893621 121.513805 L 9.125511 119.230574 L 8.658162 102.209805 L 9.125511 99.923007 L 8.775891 47.019844 L 9.007782 44.497588 L 10.327775 42.096629 L 12.728734 40.780204 L 16.214228 41.714901 L 19.699722 44.23359 L 22.339707 47.019844 L 23.656132 48.689457 L 25.325745 50.24134 L 26.645737 52.057221 L 28.226161 53.726834 L 30.24896 55.514175 L 33.117268 59.117398 L 41.408249 67.640269 L 42.842403 69.57388 L 44.776014 71.125763 L 46.213735 73.177103 L 47.765619 74.728986 L 49.934688 75.435361 L 52.571105 74.614825 L 70.323222 55.778174 L 71.407756 53.962292 L 78.261015 46.902115 L 81.015162 43.530783 L 84.001199 41.83263 L 87.604422 40.780204 L 90.008949 42.214358 L 91.325374 44.497588 L 91.207645 47.019844 L 91.443103 49.039076 L 91.207645 51.557765 L 91.560832 85.510115 L 91.207645 87.679184 L 91.443103 90.080143 L 91.207645 92.598832 L 91.325374 95.003359 L 90.975755 97.404318 L 91.207645 102.092076 L 90.975755 104.346766 L 91.443103 118.759658 L 91.093484 121.164185 L 89.773491 123.682874 L 87.490261 125.117028 L 73.077368 124.999299 L 70.440951 124.032493 L 69.238687 121.513805 L 69.620415 104.963952 L 69.238687 100.508085 L 69.356416 98.107125 L 69.238687 95.970164 L 69.620415 93.683366 L 69.238687 91.282407 L 68.300422 89.848253 L 66.837728 90.080143 L 65.168116 91.749756 L 63.612665 93.801095 L 53.537911 103.997146 L 51.486571 105.4313 L 48.732424 105.4313 L 44.776014 102.209805 L 43.224131 100.158465 L 36.488601 93.801095 L 33.498996 90.080143 L 31.683114 89.612795 L 30.59858 91.282407 L 31.098036 98.253395 L 30.744849 114.453628 L 31.098036 116.972317 L 31.215766 119.491005 L 30.980307 121.749263 L 29.660315 123.682874 L 26.057092 124.767408 L 12.846463 124.999299 L 9.974587 123.682874 Z M 106.095021 121.513805 L 106.095021 112.284559 L 106.326912 110.001329 L 107.764633 107.714531 L 115.673886 105.195842 L 116.872582 102.559425 L 117.10804 97.871667 L 116.640692 92.716561 L 117.25431 90.315601 L 116.758421 85.656384 L 116.990311 83.255425 L 117.10804 78.332209 L 116.758421 75.549522 L 116.640692 73.53029 L 116.990311 63.334239 L 115.438428 61.168738 L 108.114253 58.646482 L 106.915557 56.363251 L 106.915557 54.076453 L 106.680099 51.675494 L 106.680099 49.039076 L 106.915557 47.019844 L 106.915557 44.733046 L 108.231982 42.214358 L 110.8684 41.012094 L 115.556157 41.247552 L 117.839388 41.129823 L 125.163563 41.247552 L 127.79998 41.012094 L 143.033408 41.129823 L 146.87209 42.214358 L 147.838895 44.615317 L 148.070786 47.019844 L 147.838895 49.156805 L 147.838895 56.245522 L 146.518902 58.53232 L 144.235672 59.848745 L 141.599254 59.966474 L 139.312456 61.282899 L 137.996031 63.451968 L 137.996031 68.489345 L 138.227922 71.011602 L 137.996031 73.412561 L 138.227922 75.695792 L 137.996031 79.416744 L 138.227922 82.991426 L 137.760573 88.028803 L 138.227922 92.83429 L 137.996031 102.677154 L 139.312456 105.078113 L 147.367979 107.600369 L 149.037591 109.648142 L 148.687971 116.972317 L 148.923429 119.112845 L 148.923429 121.749263 L 147.603437 123.914764 L 145.320206 125.117028 L 109.666136 124.88157 L 107.293717 124.032493 Z M 225.600729 123.065688 L 224.016738 121.513805 L 222.582584 119.726463 L 220.677513 118.17458 L 219.09709 116.240969 L 207.466885 104.610764 L 205.561814 103.030341 L 188.394775 86.24503 L 186.842892 85.891842 L 185.644196 87.325997 L 186.111545 89.848253 L 185.758358 119.230574 L 186.111545 121.631534 L 185.027011 124.032493 L 182.626051 125.234757 L 179.871904 124.999299 L 177.353216 125.352486 L 171.345466 124.999299 L 167.274894 125.234757 L 164.991664 123.914764 L 163.907129 121.278347 L 163.907129 118.995116 L 163.553942 116.594157 L 163.907129 112.052669 L 163.671671 109.648142 L 163.7894 104.728493 L 163.436213 102.209805 L 163.436213 99.923007 L 163.671671 97.286589 L 163.671671 95.003359 L 163.907129 92.83429 L 163.436213 75.695792 L 163.7894 73.177103 L 163.671671 70.658414 L 163.907129 68.489345 L 163.553942 63.569697 L 163.7894 61.168738 L 163.553942 44.351319 L 165.105825 42.096629 L 168.006241 40.662475 L 171.231304 41.597172 L 176.033223 44.850775 L 182.508322 51.440036 L 184.060205 53.491376 L 186.111545 54.929097 L 187.313809 56.716439 L 189.597039 58.296862 L 190.917032 60.084203 L 194.634416 63.21651 L 197.156672 65.852928 L 198.473097 67.52254 L 200.378168 68.960262 L 204.595009 73.294832 L 206.38235 74.728986 L 211.683726 80.119551 L 213.353338 80.590467 L 213.941983 78.685396 L 213.824254 73.87991 L 214.320144 71.361221 L 214.320144 69.077991 L 213.824254 66.559302 L 213.941983 44.733046 L 215.140679 42.214358 L 218.041096 41.012094 L 220.445623 41.129823 L 222.582584 40.894365 L 225.101272 41.247552 L 227.73769 41.012094 L 230.024488 41.012094 L 232.425447 41.247552 L 235.061865 42.449816 L 236.496019 44.615317 L 236.264128 50.854958 L 236.496019 54.458181 L 236.02867 56.8306 L 236.02867 61.636087 L 236.264128 63.922885 L 235.910941 68.724804 L 236.381858 83.109155 L 236.146399 85.774113 L 236.613748 89.113338 L 236.02867 121.749263 L 234.944136 124.267951 L 232.189989 125.584376 L 229.057682 124.649679 Z M 254.258838 121.278347 L 254.490729 116.708318 L 254.141109 107.129453 L 254.373 104.728493 L 254.141109 95.121088 L 254.490729 90.43333 L 254.141109 87.914642 L 254.490729 85.656384 L 254.141109 80.472738 L 254.490729 75.93125 L 254.02338 66.323844 L 254.373 63.922885 L 254.02338 61.518358 L 254.373 58.88194 L 254.141109 54.311912 L 254.258838 51.939492 L 254.02338 49.538533 L 254.02338 44.615317 L 255.810721 42.332087 L 257.976223 41.012094 L 260.498479 41.129823 L 262.66398 41.012094 L 265.068507 41.247552 L 272.742302 41.012094 L 275.143262 41.247552 L 292.192571 41.365281 L 297.087247 42.332087 L 303.705047 44.497588 L 306.109574 45.699852 L 310.533333 48.453998 L 313.901098 51.675494 L 315.952438 53.259485 L 319.056204 56.97687 L 320.02301 58.999669 L 322.777157 63.070241 L 324.564498 67.875727 L 325.178116 70.044796 L 325.413574 72.563485 L 327.229456 79.416744 L 326.729999 87.094106 L 326.847728 89.113338 L 326.26265 91.632026 L 325.913031 94.154283 L 325.060387 96.319784 L 324.564498 98.724311 L 323.362234 101.007541 L 322.777157 103.294339 L 319.056204 109.269982 L 314.250718 114.806815 L 304.058235 121.631534 L 297.087247 123.800603 L 289.409884 124.88157 L 267.819087 124.999299 L 265.300398 125.352486 L 262.899438 125.352486 L 260.38075 124.999299 L 257.626603 124.999299 L 255.692992 123.914764 Z M 279.71329 105.695299 L 289.673883 105.195842 L 293.979913 103.997146 L 296.380872 102.794883 L 298.285943 101.592619 L 299.752205 99.691116 L 301.304088 97.989396 L 302.855971 95.852435 L 304.671853 91.517865 L 305.37466 89.231067 L 305.991845 83.373154 L 305.610118 79.652202 L 304.175964 72.563485 L 302.620513 70.658414 L 301.304088 68.375184 L 298.285943 65.003852 L 294.215371 62.367434 L 289.409884 60.93328 L 285.806661 60.697822 L 283.287973 60.815551 L 280.769284 60.697822 L 277.312331 62.017814 L 275.846069 64.154775 L 275.846069 95.003359 L 275.496449 97.404318 L 275.992338 99.573387 L 275.728339 101.974347 L 276.812874 104.610764 Z M 335.481193 121.396076 L 336.679889 118.410038 L 338.146151 116.358699 L 348.691822 97.639777 L 349.776356 95.121088 L 351.210511 92.83429 L 351.945425 91.046949 L 353.26185 88.763718 L 354.200115 86.594649 L 357.100532 82.524078 L 359.501491 77.133513 L 362.722986 71.978407 L 365.97659 65.474768 L 367.293015 63.569697 L 367.528473 61.168738 L 364.538868 60.319662 L 360.439756 60.433823 L 358.299227 60.084203 L 353.964657 60.433823 L 346.408592 60.319662 L 343.886335 59.966474 L 341.720834 60.201933 L 339.466144 58.999669 L 338.146151 56.716439 L 338.499339 51.675494 L 338.146151 49.538533 L 338.38161 46.902115 L 337.882153 44.497588 L 339.316307 42.214358 L 342.805368 41.129823 L 384.313784 40.894365 L 386.714744 41.129823 L 398.377057 41.012094 L 400.778016 41.714901 L 401.245365 44.733046 L 385.662317 73.177103 L 383.964165 77.251242 L 382.294552 79.416744 L 381.092289 81.321814 L 380.360942 83.490883 L 369.315814 102.794883 L 369.579813 104.728493 L 372.919037 105.813028 L 393.807028 105.930757 L 395.97253 105.695299 L 398.377057 105.930757 L 401.013474 107.129453 L 402.21217 109.269982 L 402.329899 111.93494 L 402.094441 114.071901 L 402.565357 116.594157 L 402.21217 118.995116 L 402.447628 121.278347 L 401.013474 123.565145 L 398.726676 124.999299 L 338.6135 124.88157 L 336.094812 124.267951 Z M 335.481193 121.396076 " stroke="#8c52ff" stroke-width="8.999775" stroke-opacity="1" stroke-miterlimit="4"/><g fill="#ffffff" fill-opacity="1"><g transform="translate(77.443191, 301.35233)"><g><path d="M 9.71875 -3.8125 L 9.984375 -6.3125 L 9.453125 -24.96875 L 9.984375 -27.453125 L 9.59375 -85.390625 L 9.859375 -88.15625 L 11.296875 -90.78125 L 13.921875 -92.21875 L 17.734375 -91.171875 L 21.546875 -88.421875 L 24.4375 -85.390625 L 25.875 -83.546875 L 27.71875 -81.84375 L 29.171875 -79.875 L 30.875 -78.03125 L 33.109375 -76.0625 L 36.265625 -72.125 L 45.328125 -62.796875 L 46.90625 -60.6875 L 49 -58.984375 L 50.578125 -56.75 L 52.28125 -55.046875 L 54.65625 -54.265625 L 57.546875 -55.171875 L 76.984375 -75.796875 L 78.171875 -77.78125 L 85.65625 -85.53125 L 88.671875 -89.203125 L 91.96875 -91.046875 L 95.90625 -92.21875 L 98.53125 -90.65625 L 99.96875 -88.15625 L 99.84375 -85.390625 L 100.109375 -83.15625 L 99.84375 -80.40625 L 100.234375 -43.21875 L 99.84375 -40.859375 L 100.109375 -38.234375 L 99.84375 -35.46875 L 99.96875 -32.84375 L 99.578125 -30.21875 L 99.84375 -25.09375 L 99.578125 -22.59375 L 100.109375 -6.828125 L 99.71875 -4.203125 L 98.265625 -1.4375 L 95.765625 0.125 L 80 0 L 77.109375 -1.046875 L 75.796875 -3.8125 L 76.203125 -21.9375 L 75.796875 -26.796875 L 75.9375 -29.421875 L 75.796875 -31.796875 L 76.203125 -34.28125 L 75.796875 -36.921875 L 74.75 -38.5 L 73.171875 -38.234375 L 71.34375 -36.390625 L 69.625 -34.15625 L 58.59375 -22.984375 L 56.359375 -21.421875 L 53.34375 -21.421875 L 49 -24.96875 L 47.296875 -27.1875 L 39.9375 -34.15625 L 36.65625 -38.234375 L 34.6875 -38.75 L 33.5 -36.921875 L 34.03125 -29.296875 L 33.625 -11.5625 L 34.03125 -8.796875 L 34.15625 -6.046875 L 33.890625 -3.546875 L 32.453125 -1.4375 L 28.515625 -0.265625 L 14.0625 0 L 10.90625 -1.4375 Z M 9.71875 -3.8125 "/></g></g></g><g fill="#ffffff" fill-opacity="1"><g transform="translate(187.273264, 301.35233)"><g><path d="M 6.3125 -3.8125 L 6.3125 -13.921875 L 6.5625 -16.421875 L 8.140625 -18.921875 L 16.8125 -21.671875 L 18.125 -24.5625 L 18.390625 -29.6875 L 17.859375 -35.34375 L 18.53125 -37.96875 L 18 -43.09375 L 18.265625 -45.71875 L 18.390625 -51.109375 L 18 -54.125 L 17.859375 -56.359375 L 18.265625 -67.53125 L 16.546875 -69.890625 L 8.546875 -72.65625 L 7.21875 -75.140625 L 7.21875 -77.640625 L 6.96875 -80.265625 L 6.96875 -83.15625 L 7.21875 -85.390625 L 7.21875 -87.890625 L 8.671875 -90.65625 L 11.5625 -91.96875 L 16.6875 -91.703125 L 19.1875 -91.828125 L 27.1875 -91.703125 L 30.078125 -91.96875 L 46.765625 -91.828125 L 50.96875 -90.65625 L 52.03125 -88.015625 L 52.28125 -85.390625 L 52.03125 -83.03125 L 52.03125 -75.28125 L 50.578125 -72.78125 L 48.078125 -71.34375 L 45.1875 -71.203125 L 42.703125 -69.765625 L 41.25 -67.390625 L 41.25 -61.875 L 41.515625 -59.125 L 41.25 -56.484375 L 41.515625 -54 L 41.25 -49.921875 L 41.515625 -45.984375 L 40.984375 -40.46875 L 41.515625 -35.203125 L 41.25 -24.4375 L 42.703125 -21.8125 L 51.5 -19.046875 L 53.34375 -16.8125 L 52.9375 -8.796875 L 53.203125 -6.4375 L 53.203125 -3.546875 L 51.765625 -1.1875 L 49.265625 0.125 L 10.25 -0.125 L 7.625 -1.046875 Z M 6.3125 -3.8125 "/></g></g></g><g fill="#ffffff" fill-opacity="1"><g transform="translate(246.917831, 301.35233)"><g><path d="M 77.515625 -2.109375 L 75.796875 -3.8125 L 74.234375 -5.78125 L 72.125 -7.484375 L 70.421875 -9.59375 L 57.671875 -22.328125 L 55.578125 -24.046875 L 36.78125 -42.4375 L 35.078125 -42.828125 L 33.765625 -41.25 L 34.28125 -38.5 L 33.890625 -6.3125 L 34.28125 -3.671875 L 33.109375 -1.046875 L 30.484375 0.265625 L 27.453125 0 L 24.703125 0.390625 L 18.125 0 L 13.65625 0.265625 L 11.171875 -1.1875 L 9.984375 -4.078125 L 9.984375 -6.5625 L 9.59375 -9.203125 L 9.984375 -14.1875 L 9.71875 -16.8125 L 9.859375 -22.203125 L 9.453125 -24.96875 L 9.453125 -27.453125 L 9.71875 -30.34375 L 9.71875 -32.84375 L 9.984375 -35.203125 L 9.453125 -54 L 9.859375 -56.75 L 9.71875 -59.515625 L 9.984375 -61.875 L 9.59375 -67.265625 L 9.859375 -69.890625 L 9.59375 -88.28125 L 11.296875 -90.78125 L 14.453125 -92.359375 L 18 -91.3125 L 23.25 -87.765625 L 30.34375 -80.53125 L 32.0625 -78.296875 L 34.28125 -76.71875 L 35.609375 -74.75 L 38.09375 -73.046875 L 39.546875 -71.078125 L 43.609375 -67.65625 L 46.375 -64.765625 L 47.828125 -62.921875 L 49.921875 -61.359375 L 54.515625 -56.625 L 56.484375 -55.046875 L 62.265625 -49.140625 L 64.109375 -48.609375 L 64.765625 -50.703125 L 64.640625 -55.96875 L 65.15625 -58.71875 L 65.15625 -61.21875 L 64.640625 -63.984375 L 64.765625 -87.890625 L 66.078125 -90.65625 L 69.234375 -91.96875 L 71.859375 -91.828125 L 74.234375 -92.09375 L 76.984375 -91.703125 L 79.875 -91.96875 L 82.375 -91.96875 L 85 -91.703125 L 87.890625 -90.390625 L 89.46875 -88.015625 L 89.203125 -81.1875 L 89.46875 -77.25 L 88.9375 -74.625 L 88.9375 -69.359375 L 89.203125 -66.875 L 88.8125 -61.609375 L 89.328125 -45.84375 L 89.078125 -42.953125 L 89.59375 -39.28125 L 88.9375 -3.546875 L 87.765625 -0.78125 L 84.734375 0.65625 L 81.328125 -0.390625 Z M 77.515625 -2.109375 "/></g></g></g><g fill="#ffffff" fill-opacity="1"><g transform="translate(345.975103, 301.35233)"><g><path d="M 9.859375 -4.078125 L 10.109375 -9.0625 L 9.71875 -19.578125 L 9.984375 -22.203125 L 9.71875 -32.71875 L 10.109375 -37.84375 L 9.71875 -40.59375 L 10.109375 -43.09375 L 9.71875 -48.734375 L 10.109375 -53.734375 L 9.59375 -64.25 L 9.984375 -66.875 L 9.59375 -69.5 L 9.984375 -72.390625 L 9.71875 -77.375 L 9.859375 -80 L 9.59375 -82.640625 L 9.59375 -88.015625 L 11.5625 -90.515625 L 13.921875 -91.96875 L 16.6875 -91.828125 L 19.046875 -91.96875 L 21.671875 -91.703125 L 30.078125 -91.96875 L 32.71875 -91.703125 L 51.375 -91.5625 L 56.75 -90.515625 L 63.984375 -88.15625 L 66.609375 -86.84375 L 71.46875 -83.8125 L 75.140625 -80.265625 L 77.375 -78.5625 L 80.796875 -74.484375 L 81.84375 -72.25 L 84.875 -67.796875 L 86.84375 -62.53125 L 87.5 -60.171875 L 87.765625 -57.40625 L 89.734375 -49.921875 L 89.203125 -41.515625 L 89.328125 -39.28125 L 88.671875 -36.515625 L 88.28125 -33.765625 L 87.359375 -31.40625 L 86.84375 -28.765625 L 85.53125 -26.28125 L 84.875 -23.78125 L 80.796875 -17.203125 L 75.546875 -11.171875 L 64.375 -3.671875 L 56.75 -1.3125 L 48.34375 -0.125 L 24.703125 0 L 21.9375 0.390625 L 19.3125 0.390625 L 16.546875 0 L 13.53125 0 L 11.421875 -1.1875 Z M 37.703125 -21.15625 L 48.609375 -21.671875 L 53.34375 -22.984375 L 55.96875 -24.296875 L 58.0625 -25.625 L 59.640625 -27.71875 L 61.359375 -29.5625 L 63.0625 -31.921875 L 65.03125 -36.65625 L 65.8125 -39.15625 L 66.46875 -45.59375 L 66.078125 -49.65625 L 64.5 -57.40625 L 62.796875 -59.515625 L 61.359375 -62.015625 L 58.0625 -65.6875 L 53.59375 -68.578125 L 48.34375 -70.15625 L 44.40625 -70.421875 L 41.640625 -70.28125 L 38.890625 -70.421875 L 35.078125 -68.96875 L 33.5 -66.609375 L 33.5 -32.84375 L 33.109375 -30.21875 L 33.625 -27.84375 L 33.375 -25.21875 L 34.546875 -22.328125 Z M 37.703125 -21.15625 "/></g></g></g><g fill="#ffffff" fill-opacity="1"><g transform="translate(441.485232, 301.35233)"><g><path d="M 3.28125 -3.9375 L 4.59375 -7.21875 L 6.171875 -9.453125 L 17.734375 -29.953125 L 18.921875 -32.71875 L 20.5 -35.203125 L 21.28125 -37.171875 L 22.734375 -39.671875 L 23.78125 -42.046875 L 26.9375 -46.5 L 29.5625 -52.421875 L 33.109375 -58.0625 L 36.65625 -65.15625 L 38.09375 -67.265625 L 38.359375 -69.890625 L 35.078125 -70.8125 L 30.609375 -70.6875 L 28.25 -71.078125 L 23.515625 -70.6875 L 15.234375 -70.8125 L 12.484375 -71.203125 L 10.109375 -70.9375 L 7.625 -72.25 L 6.171875 -74.75 L 6.5625 -80.265625 L 6.171875 -82.640625 L 6.4375 -85.53125 L 5.90625 -88.15625 L 7.484375 -90.65625 L 11.296875 -91.828125 L 56.75 -92.09375 L 59.375 -91.828125 L 72.125 -91.96875 L 74.75 -91.171875 L 75.28125 -87.890625 L 58.203125 -56.75 L 56.359375 -52.28125 L 54.515625 -49.921875 L 53.203125 -47.828125 L 52.421875 -45.453125 L 40.328125 -24.296875 L 40.59375 -22.203125 L 44.265625 -21.015625 L 67.125 -20.890625 L 69.5 -21.15625 L 72.125 -20.890625 L 75.015625 -19.578125 L 76.328125 -17.203125 L 76.453125 -14.3125 L 76.203125 -11.953125 L 76.71875 -9.203125 L 76.328125 -6.5625 L 76.59375 -4.078125 L 75.015625 -1.578125 L 72.515625 0 L 6.703125 -0.125 L 3.9375 -0.78125 Z M 3.28125 -3.9375 "/></g></g></g></svg>