<svg xmlns="http://www.w3.org/2000/svg" xmlns:xlink="http://www.w3.org/1999/xlink" width="800" zoomAndPan="magnify" viewBox="0 0 600 262.499992" height="350" preserveAspectRatio="xMidYMid meet" version="1.0"><defs><g/><clipPath id="ac1b6f2018"><path d="M 0.570312 23.304688 L 175 23.304688 L 175 238.894531 L 0.570312 238.894531 Z M 0.570312 23.304688 " clip-rule="nonzero"/></clipPath><clipPath id="b398298fd6"><path d="M 158 4 L 599.429688 4 L 599.429688 164 L 158 164 Z M 158 4 " clip-rule="nonzero"/></clipPath><clipPath id="e8ebe97b47"><path d="M 164 98 L 599.429688 98 L 599.429688 257 L 164 257 Z M 164 98 " clip-rule="nonzero"/></clipPath></defs><g clip-path="url(#ac1b6f2018)"><path fill="#8c52ff" d="M 174.351562 101.894531 C 174.136719 93.535156 172.800781 85.347656 170.433594 77.59375 C 165.433594 61.261719 156.039062 47.476562 143.246094 37.78125 C 130.058594 27.742188 115.625 23.304688 96.496094 23.304688 C 86.414062 23.304688 76.503906 24.855469 67.109375 27.914062 C 57.761719 30.972656 49.273438 35.367188 41.949219 40.96875 C 37.464844 44.417969 33.460938 48.292969 30.011719 52.472656 C 26.480469 56.78125 23.59375 61.480469 21.394531 66.390625 C 19.113281 71.476562 17.515625 76.859375 16.742188 82.417969 C 15.921875 88.191406 15.921875 94.136719 16.742188 100.214844 C 16.914062 101.464844 17.128906 102.625 17.34375 103.703125 C 18.078125 107.667969 18.59375 110.296875 16.136719 113.828125 C 14.671875 115.941406 10.882812 122.101562 7.347656 128.609375 C 5.453125 132.140625 3.902344 135.15625 2.824219 137.65625 C 0.886719 141.921875 0.671875 143.644531 0.671875 144.550781 C 0.671875 144.550781 0.671875 144.59375 0.671875 144.59375 C 0.757812 147.695312 2.265625 150.152344 5.023438 151.660156 C 7.132812 152.824219 9.546875 153.253906 11.527344 153.597656 C 12.261719 153.726562 13.207031 153.898438 13.554688 154.027344 C 14.585938 154.847656 14.800781 155.578125 13.511719 157.863281 C 12.175781 160.234375 11.785156 162.300781 12.261719 164.242188 C 12.691406 165.878906 13.640625 166.953125 14.328125 167.6875 C 13.207031 169.972656 12.863281 171.738281 13.25 173.289062 C 13.683594 175.097656 14.976562 176.21875 16.222656 177.296875 C 16.699219 177.683594 17.171875 178.113281 17.644531 178.589844 C 18.335938 179.277344 18.335938 179.277344 17.558594 181.042969 L 17.472656 181.214844 C 14.113281 188.414062 14.628906 196.039062 18.808594 201.640625 C 20.75 204.226562 23.332031 206.207031 26.394531 207.414062 C 29.539062 208.664062 33.113281 209.050781 36.777344 208.492188 C 38.199219 208.273438 39.621094 208.015625 41.042969 207.800781 C 47.375 206.722656 53.925781 205.5625 58.707031 207.886719 C 60.691406 208.835938 61.59375 211.636719 61.378906 216.203125 C 61.164062 220.726562 59.914062 226.113281 58.878906 230.421875 C 58.320312 232.75 57.890625 234.730469 57.632812 236.28125 C 57.542969 236.882812 57.71875 237.53125 58.105469 237.960938 C 58.492188 238.4375 59.097656 238.695312 59.699219 238.695312 L 157.203125 238.695312 C 157.894531 238.695312 158.539062 238.351562 158.929688 237.789062 C 159.316406 237.230469 159.402344 236.496094 159.1875 235.851562 C 158.238281 233.222656 157.203125 230.59375 156.085938 227.792969 C 153.195312 220.382812 150.179688 212.757812 148.285156 204.699219 C 144.925781 190.566406 145.914062 180.3125 151.472656 171.523438 C 151.472656 171.480469 151.515625 171.480469 151.515625 171.4375 C 152.035156 170.488281 152.59375 169.539062 153.109375 168.59375 C 156.816406 162.128906 160.609375 155.40625 163.839844 148.601562 C 167.503906 140.929688 170.085938 133.777344 171.722656 126.753906 C 173.707031 118.613281 174.566406 110.253906 174.351562 101.894531 Z M 167.675781 125.851562 C 164.140625 140.800781 157.03125 153.296875 149.492188 166.566406 C 148.976562 167.515625 148.414062 168.417969 147.898438 169.367188 C 144.492188 174.753906 142.640625 180.570312 142.210938 187.164062 C 141.867188 192.632812 142.46875 198.539062 144.191406 205.734375 C 146.175781 214.046875 149.234375 221.847656 152.164062 229.386719 C 152.851562 231.152344 153.5 232.835938 154.144531 234.515625 L 62.285156 234.515625 C 62.5 233.566406 62.757812 232.53125 63.015625 231.414062 C 64.050781 226.933594 65.386719 221.332031 65.601562 216.417969 C 65.730469 213.574219 65.472656 211.25 64.871094 209.308594 C 64.050781 206.851562 62.628906 205.085938 60.5625 204.09375 C 54.570312 201.207031 47.332031 202.457031 40.351562 203.664062 C 38.886719 203.921875 37.550781 204.140625 36.171875 204.355469 C 30.398438 205.214844 25.359375 203.320312 22.257812 199.140625 C 18.980469 194.789062 18.679688 188.757812 21.351562 182.984375 L 21.4375 182.8125 C 21.910156 181.734375 22.386719 180.742188 22.429688 179.578125 C 22.472656 178.15625 21.910156 176.863281 20.664062 175.617188 C 20.058594 175.011719 19.5 174.539062 18.980469 174.105469 C 18.035156 173.289062 17.472656 172.773438 17.34375 172.296875 C 17.214844 171.824219 17.34375 170.832031 18.59375 168.59375 C 18.765625 168.289062 18.851562 167.945312 18.851562 167.558594 C 18.851562 166.308594 18.078125 165.488281 17.472656 164.84375 C 16.398438 163.722656 15.578125 162.820312 17.214844 159.933594 C 17.863281 158.769531 18.550781 157.347656 18.636719 155.753906 C 18.722656 154.375 18.335938 152.347656 16.09375 150.625 C 15.234375 149.9375 13.984375 149.71875 12.304688 149.417969 C 7.476562 148.558594 5.023438 147.566406 4.9375 144.464844 C 4.9375 143.945312 5.324219 141.101562 11.054688 130.546875 C 14.542969 124.167969 18.207031 118.179688 19.628906 116.113281 C 23.03125 111.113281 22.300781 107.0625 21.480469 102.800781 C 21.265625 101.765625 21.09375 100.6875 20.921875 99.523438 C 17.949219 77.808594 26.351562 58.203125 44.53125 44.285156 C 58.707031 33.429688 77.148438 27.484375 96.539062 27.484375 C 114.722656 27.484375 128.335938 31.664062 140.746094 41.054688 C 164.875 59.453125 175.472656 92.714844 167.675781 125.851562 Z M 167.675781 125.851562 " fill-opacity="1" fill-rule="nonzero"/></g><path fill="#8c52ff" d="M 137.558594 70.355469 C 135.273438 62.082031 131.265625 55.101562 125.835938 50.019531 C 121.65625 46.140625 116.445312 43.167969 110.28125 41.140625 C 105.027344 39.417969 99.082031 38.425781 92.617188 38.210938 C 87.664062 38.039062 83.050781 38.253906 78.914062 38.988281 C 74.046875 39.804688 69.652344 41.269531 65.773438 43.296875 C 61.59375 45.492188 58.148438 48.550781 55.5625 52.300781 C 53.105469 55.878906 51.46875 59.96875 50.867188 64.234375 C 50.78125 65.011719 50.695312 65.789062 50.652344 66.5625 C 48.839844 67.726562 46.988281 69.148438 45.09375 70.742188 C 42.421875 72.984375 40.480469 75.007812 38.929688 77.074219 C 36.90625 79.789062 35.65625 82.546875 35.226562 85.390625 C 34.664062 88.753906 35.226562 92.242188 36.863281 95.734375 C 38.242188 98.707031 40.394531 101.59375 43.023438 104.046875 C 43.5 104.523438 44.015625 104.953125 44.53125 105.382812 C 44.921875 109.820312 46.515625 113.355469 49.101562 115.640625 C 51.253906 117.492188 54.097656 118.480469 57.113281 118.480469 C 58.707031 118.480469 60.34375 118.179688 61.941406 117.621094 C 63.273438 117.148438 64.4375 116.5 65.515625 115.769531 C 68.058594 116.5 70.773438 117.058594 73.488281 117.058594 C 75.125 117.058594 76.804688 116.84375 78.441406 116.371094 C 78.570312 117.148438 78.742188 117.921875 78.914062 118.699219 C 80.207031 124.515625 82.707031 128.867188 86.457031 131.710938 C 89.386719 133.949219 93.003906 135.199219 97.441406 135.585938 C 98.5625 135.675781 99.640625 135.71875 100.71875 135.71875 C 106.320312 135.71875 111.53125 134.46875 116.1875 132.011719 C 121.355469 129.296875 125.792969 125.117188 129.285156 119.644531 C 130.359375 117.964844 131.136719 116.328125 131.609375 114.777344 C 132.988281 116.457031 134.453125 117.921875 136.089844 119.214844 C 139.195312 121.628906 142.511719 122.921875 145.613281 122.921875 C 146.433594 122.921875 147.207031 122.835938 147.984375 122.660156 C 150.527344 122.101562 152.808594 120.636719 154.707031 118.308594 C 156.214844 116.5 157.460938 114.128906 158.367188 111.503906 C 159.316406 108.703125 159.917969 105.773438 160.132812 102.753906 C 160.351562 99.738281 160.132812 96.765625 159.574219 93.835938 C 158.367188 87.675781 155.523438 82.289062 151.34375 78.238281 C 147.941406 74.921875 143.632812 72.421875 138.503906 70.742188 C 138.246094 70.570312 137.902344 70.441406 137.558594 70.355469 Z M 134.28125 80.136719 C 132.988281 83.667969 127.429688 84.746094 124.199219 85.046875 C 123.984375 85.089844 123.726562 85.089844 123.511719 85.089844 C 122.175781 81.429688 120.710938 77.894531 119.074219 74.578125 C 119.460938 73.886719 119.890625 73.15625 120.234375 72.421875 C 121.398438 72.378906 122.5625 72.421875 123.8125 72.464844 C 126.871094 72.59375 130.449219 72.941406 134.023438 73.800781 C 134.582031 76.214844 134.929688 78.324219 134.28125 80.136719 Z M 86.585938 71 C 85.550781 72.59375 84.558594 74.363281 83.613281 76.214844 C 82.878906 77.59375 82.234375 78.972656 81.671875 80.4375 C 80.554688 80.351562 79.433594 80.308594 78.3125 80.222656 C 78.097656 80.222656 77.839844 80.179688 77.625 80.179688 C 77.882812 76.085938 78.269531 71.820312 79.261719 67.726562 C 81.628906 68.542969 84.042969 69.664062 86.585938 71 Z M 80.511719 63.632812 C 81.542969 60.917969 82.921875 58.375 84.863281 56.179688 C 87.1875 53.507812 91.023438 50.964844 94.945312 51.699219 C 97.617188 52.171875 99.898438 54.152344 101.882812 56.265625 C 99.855469 57.300781 97.917969 58.546875 96.0625 60.058594 C 93.566406 62.082031 91.238281 64.582031 89.042969 67.46875 C 86.023438 65.917969 83.222656 64.625 80.511719 63.632812 Z M 84.515625 84.832031 C 87.1875 85.046875 89.859375 85.261719 92.53125 85.519531 C 92.488281 87.632812 92.917969 89.699219 93.394531 92.070312 C 93.695312 93.578125 94.039062 95.214844 94.296875 97.023438 C 92.617188 96.851562 90.980469 96.636719 89.34375 96.378906 C 86.800781 95.992188 84.386719 95.515625 82.148438 94.957031 C 82.578125 91.46875 83.398438 88.0625 84.515625 84.832031 Z M 93.394531 81.382812 C 90.980469 81.125 88.566406 80.910156 86.152344 80.738281 C 86.542969 79.875 86.972656 79.015625 87.402344 78.152344 C 88.351562 76.34375 89.300781 74.664062 90.332031 73.070312 C 92.53125 74.363281 94.511719 75.699219 96.367188 77.074219 C 94.988281 78.453125 93.996094 79.875 93.394531 81.382812 Z M 92.703125 69.578125 C 96.28125 64.925781 100.199219 61.609375 104.679688 59.582031 C 107.09375 62.597656 109.335938 65.789062 111.402344 69.191406 C 106.835938 70.183594 102.914062 71.863281 99.640625 74.230469 C 97.527344 72.636719 95.203125 71.085938 92.703125 69.578125 Z M 108.472656 82.675781 C 107.265625 81.167969 105.886719 79.703125 104.378906 78.28125 C 103.949219 77.851562 103.476562 77.421875 103 76.988281 C 105.929688 75.09375 109.464844 73.757812 113.558594 73.027344 C 113.773438 73.457031 114.03125 73.886719 114.246094 74.320312 C 114.203125 74.363281 114.203125 74.40625 114.160156 74.492188 C 112.4375 77.25 110.542969 79.960938 108.472656 82.675781 Z M 111.746094 98.835938 C 108.300781 98.359375 104.898438 98.058594 101.535156 97.757812 C 101.40625 97.757812 101.320312 97.714844 101.191406 97.714844 C 103.734375 95.042969 106.058594 92.414062 108.214844 89.785156 C 108.902344 90.949219 109.464844 92.15625 109.9375 93.40625 C 110.671875 95.300781 111.273438 97.15625 111.746094 98.835938 Z M 116.402344 78.84375 C 117.304688 80.910156 118.210938 83.023438 119.03125 85.175781 C 116.660156 85.089844 114.375 84.832031 112.4375 84.488281 C 113.816406 82.632812 115.152344 80.738281 116.402344 78.84375 Z M 117.519531 68.328125 C 116.960938 68.371094 116.402344 68.414062 115.839844 68.457031 C 113.730469 64.753906 111.402344 61.304688 108.859375 58.03125 C 110.800781 57.515625 112.867188 57.171875 114.980469 57.039062 C 115.96875 56.996094 116.703125 56.996094 117.304688 57.214844 C 118.855469 57.859375 119.375 60.402344 119.117188 62.640625 C 118.898438 64.625 118.296875 66.519531 117.519531 68.328125 Z M 102.742188 82.589844 C 101.105469 82.332031 99.46875 82.074219 97.875 81.859375 C 98.304688 81.167969 98.90625 80.4375 99.683594 79.660156 C 100.761719 80.652344 101.792969 81.601562 102.742188 82.589844 Z M 104.855469 87.246094 C 102.785156 89.699219 100.589844 92.199219 98.175781 94.742188 C 97.960938 93.492188 97.703125 92.328125 97.484375 91.207031 C 97.054688 89.183594 96.710938 87.503906 96.710938 85.996094 C 99.382812 86.339844 102.097656 86.726562 104.855469 87.246094 Z M 98.648438 104.265625 C 98.691406 103.359375 98.734375 102.496094 98.734375 101.722656 C 99.511719 101.808594 100.328125 101.894531 101.105469 101.9375 C 104.898438 102.28125 108.816406 102.667969 112.652344 103.230469 C 112.824219 104.480469 112.910156 105.6875 112.910156 106.804688 C 112.824219 111.285156 111.1875 114.433594 107.871094 116.371094 C 106.75 117.015625 105.113281 117.40625 103.5625 117.363281 C 102.011719 117.320312 100.71875 116.929688 99.984375 116.199219 C 99.511719 115.726562 98.863281 114.5625 98.648438 111.71875 C 98.476562 109.433594 98.5625 106.675781 98.648438 104.265625 Z M 112.480469 88.796875 C 114.894531 89.183594 117.652344 89.441406 120.539062 89.441406 C 120.96875 90.691406 121.398438 92.027344 121.785156 93.277344 C 122.691406 96.035156 123.597656 98.878906 124.628906 101.636719 C 123.339844 101.117188 121.917969 100.6875 120.277344 100.34375 C 118.941406 100.042969 117.652344 99.78125 116.316406 99.566406 C 115.753906 97.199219 114.980469 94.65625 113.902344 91.941406 C 113.472656 90.820312 112.996094 89.828125 112.480469 88.796875 Z M 67.800781 47 C 74.347656 43.511719 82.40625 42.046875 92.488281 42.433594 C 101.578125 42.777344 114.203125 44.933594 122.992188 53.121094 C 127.34375 57.171875 130.707031 62.683594 132.816406 69.234375 C 130.058594 68.71875 127.085938 68.371094 123.984375 68.285156 C 123.339844 68.242188 122.734375 68.242188 122.132812 68.242188 C 122.691406 66.648438 123.121094 64.96875 123.339844 63.246094 C 123.597656 61.347656 123.382812 59.410156 122.863281 57.816406 C 122.132812 55.660156 120.796875 54.152344 118.941406 53.421875 C 117.566406 52.863281 116.144531 52.863281 114.808594 52.90625 C 111.746094 53.078125 108.773438 53.636719 106.015625 54.585938 C 103.390625 51.570312 100.113281 48.421875 95.761719 47.605469 C 93.21875 47.128906 90.507812 47.519531 87.878906 48.769531 C 85.636719 49.800781 83.484375 51.441406 81.714844 53.507812 C 79.519531 56.007812 77.839844 58.980469 76.546875 62.46875 C 71.117188 61.046875 65.988281 60.832031 61.335938 61.910156 C 59.3125 62.382812 57.328125 63.074219 55.261719 64.0625 C 56.511719 56.738281 61.035156 50.621094 67.800781 47 Z M 62.242188 65.917969 C 66.207031 65.011719 70.515625 65.183594 75.253906 66.390625 C 75.253906 66.476562 75.210938 66.519531 75.210938 66.605469 C 74.132812 71.042969 73.703125 75.699219 73.445312 79.832031 C 71.117188 79.660156 68.746094 79.488281 66.378906 79.273438 C 65.085938 79.144531 63.792969 79.058594 62.5 79.058594 C 60.992188 79.058594 59.527344 79.1875 58.019531 79.53125 C 56.121094 76.257812 55.046875 72.59375 54.875 68.847656 C 57.371094 67.46875 59.828125 66.476562 62.242188 65.917969 Z M 73.183594 84.097656 C 73.054688 86.683594 72.882812 89.269531 72.582031 91.8125 C 68.488281 90.003906 65.085938 87.761719 62.285156 85.046875 C 61.722656 84.53125 61.25 83.96875 60.734375 83.453125 C 62.414062 83.28125 64.179688 83.410156 65.988281 83.582031 C 68.402344 83.753906 70.816406 83.925781 73.183594 84.097656 Z M 46.730469 90.605469 C 45.609375 93.363281 44.878906 96.464844 44.574219 99.609375 C 40.613281 95.386719 38.671875 90.390625 39.40625 86.039062 C 40.222656 80.867188 44.617188 76.6875 47.808594 73.972656 C 48.839844 73.113281 49.832031 72.292969 50.824219 71.5625 C 51.253906 74.964844 52.375 78.238281 54.054688 81.253906 C 50.953125 83.195312 48.453125 86.382812 46.730469 90.605469 Z M 51.898438 112.40625 C 50.824219 111.460938 50.132812 110.253906 49.617188 108.960938 C 52.589844 110.769531 55.949219 112.363281 59.871094 113.828125 C 56.984375 114.691406 53.839844 114.128906 51.898438 112.40625 Z M 64.652344 111.027344 C 64.4375 110.941406 64.222656 110.898438 64.007812 110.8125 C 57.585938 108.617188 52.632812 106.203125 48.667969 103.230469 C 48.582031 97.242188 50.566406 88.234375 56.382812 84.789062 C 57.285156 85.953125 58.234375 87.027344 59.355469 88.0625 C 62.757812 91.335938 66.9375 94.007812 71.9375 96.121094 C 71.203125 100.085938 69.953125 103.832031 67.84375 107.152344 C 67.109375 108.355469 66.03125 109.777344 64.652344 111.027344 Z M 77.449219 112.234375 C 74.867188 113.011719 72.066406 112.882812 69.308594 112.320312 C 70.167969 111.328125 70.859375 110.339844 71.460938 109.433594 C 73.574219 106.117188 75.039062 102.238281 75.984375 97.628906 C 76.503906 97.800781 77.019531 97.972656 77.535156 98.101562 C 77.148438 102.710938 77.277344 107.410156 77.839844 112.105469 C 77.710938 112.148438 77.578125 112.191406 77.449219 112.234375 Z M 78.011719 93.835938 C 77.578125 93.707031 77.105469 93.535156 76.675781 93.40625 C 77.0625 90.390625 77.277344 87.375 77.40625 84.402344 C 77.625 84.402344 77.839844 84.445312 78.054688 84.445312 C 78.742188 84.488281 79.476562 84.53125 80.164062 84.574219 C 79.21875 87.503906 78.484375 90.605469 78.011719 93.835938 Z M 81.628906 99.179688 C 83.871094 99.695312 86.199219 100.171875 88.652344 100.515625 C 89.730469 100.6875 90.851562 100.816406 91.972656 100.945312 C 90.117188 102.753906 88.136719 104.566406 86.066406 106.417969 C 84.644531 107.667969 83.265625 108.917969 81.800781 109.90625 C 81.457031 106.332031 81.414062 102.710938 81.628906 99.179688 Z M 125.792969 117.320312 C 121.269531 124.386719 112.78125 132.527344 97.832031 131.320312 C 89.644531 130.632812 84.949219 126.324219 83.09375 117.75 C 82.878906 116.714844 82.664062 115.640625 82.492188 114.605469 C 84.820312 113.269531 86.886719 111.503906 88.953125 109.605469 C 90.894531 107.882812 92.703125 106.160156 94.46875 104.480469 C 94.253906 110.082031 94.082031 116.285156 97.097656 119.214844 C 98.605469 120.679688 100.890625 121.5 103.519531 121.585938 C 105.84375 121.628906 108.214844 121.066406 110.023438 119.992188 C 112.480469 118.570312 114.332031 116.585938 115.539062 114.171875 C 116.574219 112.0625 117.132812 109.605469 117.175781 106.804688 C 117.175781 105.859375 117.132812 104.910156 117.046875 103.917969 C 117.824219 104.046875 118.597656 104.21875 119.375 104.394531 C 121.613281 104.910156 123.382812 105.511719 124.761719 106.332031 C 126.355469 107.238281 127.300781 108.3125 127.777344 109.605469 C 128.421875 111.632812 127.777344 114.21875 125.792969 117.320312 Z M 148.5 81.210938 C 155.652344 88.148438 158.066406 99.738281 154.488281 110.039062 C 153.714844 112.234375 151.515625 117.492188 147.164062 118.4375 C 143.804688 119.171875 140.445312 117.105469 138.761719 115.769531 C 131.695312 110.253906 128.679688 100.945312 125.792969 91.941406 C 125.492188 91.035156 125.191406 90.089844 124.890625 89.183594 C 132.085938 88.449219 136.695312 85.824219 138.246094 81.558594 C 139.023438 79.402344 138.933594 77.164062 138.632812 75.179688 C 142.210938 76.515625 145.613281 78.410156 148.5 81.210938 Z M 148.5 81.210938 " fill-opacity="1" fill-rule="nonzero"/><g clip-path="url(#b398298fd6)"><path stroke-linecap="butt" transform="matrix(0.805681, 0, 0, 0.805681, 194.359983, 37.531736)" fill="none" stroke-linejoin="miter" d="M 13.118967 102.368129 L 10.59296 100.739073 L 9.206323 98.087008 L 9.33238 70.223358 L 9.085113 67.818561 L 9.45359 55.072165 L 9.206323 52.546158 L 9.33238 32.37689 L 9.085113 30.098151 L 9.45359 25.201285 L 9.085113 17.502055 L 10.47175 14.854839 L 13.240176 13.594259 L 16.784343 14.578481 L 19.678827 16.731162 L 22.941788 20.149271 L 24.97326 21.904386 L 28.27016 25.81703 L 30.025274 27.324877 L 41.51109 40.076121 L 44.279516 42.597279 L 46.529165 45.491763 L 48.31337 47.246877 L 49.826065 49.404407 L 52.473281 50.422567 L 54.752021 48.909872 L 62.451251 41.089432 L 64.080307 38.936751 L 75.168556 27.572144 L 76.952761 25.322495 L 78.460608 23.940706 L 80.094512 21.904386 L 85.388945 16.362685 L 88.036162 14.733629 L 91.701538 13.594259 L 94.348755 14.976048 L 95.86145 17.628113 L 95.614182 20.028062 L 95.735392 25.201285 L 95.614182 27.324877 L 95.86145 32.745367 L 95.735392 35.145316 L 95.86145 47.649293 L 95.614182 50.422567 L 95.86145 88.264187 L 95.614182 90.761104 L 95.982659 97.320964 L 94.474813 100.981492 L 91.827596 102.368129 L 76.550345 101.878443 L 73.903129 101.10755 L 72.889817 98.213066 L 72.889817 96.331894 L 72.64255 90.635046 L 72.889817 88.390245 L 72.64255 83.706708 L 72.889817 78.780752 L 72.516492 73.733587 L 72.763759 66.805249 L 71.779538 64.924077 L 70.116543 65.665879 L 64.943319 70.960312 L 63.188205 72.220892 L 59.648886 76.409893 L 58.136191 77.91774 L 56.381077 79.798912 L 53.859919 81.709175 L 51.086644 81.554027 L 48.439428 79.672854 L 45.021319 76.409893 L 43.387414 74.378422 L 38.214191 69.205198 L 36.706344 67.328874 L 34.674872 65.665879 L 33.409444 65.171345 L 32.304013 66.310714 L 32.304013 71.23667 L 32.546432 74.009945 L 32.304013 78.533485 L 32.425223 81.18555 L 32.022807 85.093345 L 32.425223 98.334276 L 30.917376 100.613015 L 27.373209 102.120862 L 23.339355 101.878443 L 20.570929 102.24692 L 15.644973 101.999652 Z M 114.522871 98.334276 L 115.017406 95.808269 L 115.138616 93.28711 L 114.896197 88.390245 L 114.896197 85.864238 L 114.648929 82.969754 L 115.017406 80.691015 L 114.896197 78.291066 L 115.138616 75.517791 L 114.770139 72.870575 L 115.017406 67.818561 L 114.648929 62.892605 L 115.017406 60.245389 L 115.017406 37.671323 L 114.770139 35.392584 L 115.017406 32.745367 L 114.522871 26.311565 L 115.017406 22.675278 L 114.770139 17.628113 L 116.035566 14.854839 L 119.696095 13.962736 L 136.204834 13.594259 L 138.483574 13.836678 L 143.40953 13.715469 L 145.935537 13.962736 L 151.477237 13.715469 L 154.003244 14.083946 L 156.281983 13.836678 L 166.352072 13.962736 L 168.999289 15.102106 L 170.259868 17.628113 L 169.891391 20.028062 L 169.770181 22.801336 L 170.138658 25.201285 L 170.385926 30.345418 L 168.999289 32.624158 L 166.352072 34.005947 L 142.144102 34.132005 L 138.236306 35.271374 L 136.970879 38.936751 L 137.218146 42.844547 L 138.725993 45.123286 L 140.883523 46.509923 L 150.861493 46.388714 L 153.755976 46.631133 L 156.403193 46.631133 L 158.9292 46.388714 L 163.981214 46.509923 L 166.104805 47.89656 L 167.244175 50.296509 L 167.491442 52.822516 L 167.244175 62.771396 L 165.978747 65.171345 L 163.457588 66.557982 L 161.178849 66.679191 L 158.526784 66.431924 L 155.142614 66.679191 L 148.456695 66.310714 L 145.935537 66.557982 L 141.004732 66.557982 L 138.725993 67.944619 L 137.586623 70.591835 L 137.465414 76.778371 L 138.604783 80.691015 L 141.252 82.198861 L 144.025274 81.951594 L 146.798549 82.198861 L 149.198498 81.830384 L 165.857537 82.077652 L 169.644123 83.338231 L 171.278028 85.864238 L 171.030761 88.264187 L 171.15197 96.055536 L 170.909551 98.460334 L 169.770181 100.860283 L 167.118117 102.120862 L 164.718168 102.368129 L 157.018937 101.878443 L 149.319707 102.24692 L 147.074906 101.878443 L 118.556725 102.120862 L 116.156776 100.739073 Z M 252.139339 99.96818 L 250.476344 98.334276 L 248.968498 96.457952 L 246.966116 94.824047 L 245.303121 92.792575 L 233.075502 80.569805 L 231.07312 78.90681 L 213.032292 61.2587 L 211.398387 60.890223 L 210.137808 62.39807 L 210.627495 65.050135 L 210.259018 95.934327 L 210.627495 98.460334 L 209.488125 100.981492 L 206.962118 102.24692 L 204.067634 101.999652 L 201.420418 102.368129 L 195.107825 101.999652 L 190.826703 102.24692 L 188.426754 100.860283 L 187.287385 98.087008 L 187.287385 95.687059 L 186.918908 93.161052 L 187.287385 88.390245 L 187.040117 85.864238 L 187.166175 80.691015 L 186.79285 78.043798 L 186.79285 75.639001 L 187.040117 72.870575 L 187.040117 70.465777 L 187.287385 68.187038 L 186.79285 50.1753 L 187.166175 47.528083 L 187.040117 44.876018 L 187.287385 42.597279 L 186.918908 37.424056 L 187.166175 34.902897 L 186.918908 17.225697 L 188.547964 14.854839 L 191.597596 13.346992 L 194.986615 14.331213 L 200.03378 17.749323 L 206.840908 24.67766 L 208.474813 26.83519 L 210.627495 28.343037 L 211.892922 30.21936 L 214.292871 31.882355 L 215.679508 33.763527 L 219.587304 37.055579 L 222.239369 39.828853 L 223.621158 41.583967 L 225.623539 43.091814 L 230.059809 47.649293 L 231.936132 49.15714 L 237.511771 54.824898 L 239.266886 55.319433 L 239.88263 53.317051 L 239.761421 48.265037 L 240.280197 45.617821 L 240.280197 43.213024 L 239.761421 40.565807 L 239.88263 17.628113 L 241.143209 14.976048 L 244.192841 13.715469 L 246.718848 13.836678 L 248.968498 13.594259 L 251.615714 13.962736 L 254.38414 13.715469 L 256.788937 13.715469 L 259.314944 13.962736 L 262.08337 15.223316 L 263.591217 17.502055 L 263.348798 24.061916 L 263.591217 27.848502 L 263.10153 30.345418 L 263.10153 35.392584 L 263.348798 37.797381 L 262.975472 42.844547 L 263.470007 57.966649 L 263.22274 60.769014 L 263.717275 64.279242 L 263.10153 98.581543 L 261.962161 101.22876 L 259.067677 102.615397 L 255.770777 101.631175 Z M 297.011112 98.087008 L 296.889903 88.264187 L 297.166261 85.743028 L 296.763845 78.043798 L 296.889903 75.396582 L 296.763845 72.870575 L 297.28747 69.083989 L 296.889903 65.418612 L 296.889903 60.366598 L 297.166261 57.840591 L 296.889903 55.469733 L 297.28747 51.561937 L 296.889903 37.671323 L 295.624475 35.271374 L 293.379674 33.884737 L 282.141126 33.763527 L 278.873316 34.132005 L 276.352158 32.866577 L 274.965521 30.098151 L 275.08673 17.502055 L 276.352158 14.976048 L 279.120584 13.715469 L 316.690694 13.962736 L 319.614268 13.594259 L 322.140275 13.594259 L 324.632343 13.836678 L 327.15835 13.836678 L 329.931625 13.468201 L 332.331574 13.468201 L 334.363046 13.715469 L 337.383587 13.468201 L 339.909594 14.733629 L 341.170174 17.225697 L 340.922906 27.572144 L 341.170174 30.21936 L 339.909594 32.745367 L 337.01511 33.884737 L 330.086773 33.763527 L 327.808033 34.005947 L 325.282026 33.884737 L 323.124497 34.005947 L 320.356071 35.145316 L 319.33791 37.424056 L 319.614268 40.19733 L 319.216701 42.723337 L 319.735478 67.818561 L 319.33791 73.117842 L 319.614268 75.396582 L 319.33791 83.090964 L 318.969433 85.743028 L 319.33791 87.86662 L 319.493059 92.913785 L 319.216701 95.808269 L 319.33791 98.213066 L 318.353689 100.739073 L 315.827682 101.752385 L 308.007242 101.752385 L 305.602445 101.999652 L 303.076438 101.752385 L 300.676489 101.999652 L 298.029273 100.739073 Z M 344.942215 98.581543 L 346.45491 93.28711 L 347.594279 90.761104 L 349.102126 88.758722 L 352.767503 79.551645 L 356.306821 72.991784 L 357.198924 70.465777 L 358.309203 68.434305 L 359.080096 65.787089 L 360.83521 62.524128 L 361.727312 60.119331 L 363.603636 56.85637 L 365.639956 52.298891 L 367.021745 50.020152 L 367.671428 47.89656 L 374.720975 32.008413 L 376.107613 29.729674 L 381.528103 18.365067 L 382.298996 16.115418 L 384.669855 13.836678 L 388.732799 12.576099 L 393.01392 13.715469 L 395.292659 16.115418 L 396.029613 18.486277 L 397.168983 20.396539 L 399.200455 25.201285 L 401.697371 29.850883 L 403.607634 34.253214 L 404.223378 36.284686 L 406.502118 41.089432 L 407.268162 43.460291 L 409.794169 47.89656 L 410.409914 50.296509 L 411.675341 52.424949 L 412.688653 54.57763 L 414.07529 56.85637 L 414.817093 59.382377 L 415.956462 61.2587 L 416.848565 63.784707 L 417.987934 65.942237 L 419.001246 68.434305 L 420.387883 70.465777 L 422.142997 75.149314 L 423.408425 77.272905 L 424.300527 79.672854 L 426.424118 84.201243 L 427.195011 86.601192 L 428.45559 88.511454 L 429.197393 91.037461 L 430.860388 93.161052 L 431.718551 95.439792 L 432.489444 98.581543 L 431.965819 101.22876 L 429.721018 101.999652 L 421.89573 102.24692 L 417.464309 101.878443 L 415.21466 102.120862 L 411.922609 100.860283 L 409.794169 98.857901 L 408.407532 96.579162 L 407.762697 94.300422 L 405.115481 92.298041 L 400.955569 90.916252 L 395.016301 91.158671 L 392.364237 90.916252 L 390.119436 90.916252 L 387.191013 91.284729 L 384.543797 90.916252 L 377.49425 91.037461 L 374.968243 90.761104 L 371.952549 92.021683 L 369.795019 94.42648 L 367.671428 98.736692 L 365.392689 100.981492 L 362.498205 102.24692 L 359.201305 101.878443 L 348.117905 101.878443 L 345.591898 101.22876 Z M 383.928052 70.839103 L 393.750874 70.713045 L 395.908404 69.699733 L 396.155671 67.450084 L 395.292659 65.171345 L 394.027232 62.645338 L 393.503606 60.642956 L 392.121818 58.490274 L 390.487913 53.55947 L 388.980066 52.546158 L 387.346161 53.806738 L 386.206792 55.83821 L 381.159626 67.328874 L 381.528103 69.850033 Z M 444.334041 98.334276 L 444.086773 95.687059 L 444.581308 93.28711 L 444.334041 90.761104 L 444.45525 75.396582 L 444.207983 73.117842 L 444.086773 68.065828 L 444.45525 65.539822 L 444.086773 60.492656 L 444.45525 58.116949 L 444.086773 52.667368 L 444.45525 50.296509 L 444.207983 47.770502 L 444.581308 45.491763 L 444.207983 42.844547 L 444.45525 40.31854 L 444.334041 37.918591 L 444.702518 35.145316 L 444.45525 32.745367 L 444.086773 30.21936 L 444.45525 27.572144 L 444.702518 25.201285 L 443.965564 18.641425 L 445.59462 15.223316 L 449.259997 13.836678 L 462.379718 13.594259 L 465.642679 15.102106 L 466.903258 18.888692 L 467.179616 25.046137 L 466.903258 27.848502 L 467.305674 47.528083 L 466.903258 50.1753 L 467.305674 52.943726 L 466.903258 56.458803 L 467.029316 62.771396 L 466.782048 65.418612 L 467.029316 67.944619 L 466.903258 70.713045 L 467.305674 73.117842 L 467.179616 77.796531 L 467.921418 80.569805 L 470.568634 81.709175 L 492.769375 81.951594 L 495.542649 81.554027 L 497.574121 82.814606 L 499.208026 85.61697 L 498.839549 87.987829 L 499.208026 90.761104 L 498.960758 93.039843 L 498.839549 95.56585 L 499.081968 98.334276 L 497.700179 100.613015 L 494.156012 101.878443 L 449.507264 102.120862 L 445.47341 100.613015 Z M 444.334041 98.334276 " stroke="#000000" stroke-width="9.460425" stroke-opacity="1" stroke-miterlimit="4"/></g><g clip-path="url(#e8ebe97b47)"><path stroke-linecap="butt" transform="matrix(0.805681, 0, 0, 0.805681, 194.359983, 37.531736)" fill="none" stroke-linejoin="miter" d="M 17.162517 214.457867 L 17.530994 204.111421 L 17.162517 201.86662 L 17.162517 164.141362 L 17.404936 161.615355 L 17.283727 158.599661 L 17.530994 153.794915 L 17.036459 148.621691 L 17.283727 146.095685 L 17.036459 136.272863 L 17.283727 133.504437 L 18.544306 130.97843 L 21.31758 129.713003 L 33.821557 129.96027 L 36.589983 129.713003 L 39.237199 131.09964 L 40.376569 133.504437 L 40.623836 138.154035 L 40.376569 140.922461 L 40.255359 150.779221 L 40.376569 153.057961 L 40.376569 155.705177 L 40.502627 158.478452 L 41.763206 160.878401 L 44.168003 161.98868 L 51.586028 162.10989 L 53.864767 161.862622 L 56.511983 162.10989 L 61.442788 161.615355 L 63.842737 161.98868 L 66.339653 160.602043 L 67.755381 158.076036 L 67.87659 148.253214 L 67.479023 145.853265 L 67.755381 140.680042 L 67.479023 138.551603 L 67.600232 133.746856 L 68.860812 130.731163 L 72.526188 129.839061 L 87.032547 129.96027 L 89.553705 130.97843 L 90.693075 133.625647 L 90.571865 196.935816 L 90.940342 198.967288 L 90.571865 203.00599 L 90.819133 214.457867 L 89.311286 216.615397 L 86.906489 218.244454 L 81.733265 217.875977 L 79.207258 218.123244 L 72.652246 218.123244 L 68.98687 216.489339 L 67.600232 214.457867 L 67.479023 186.589369 L 66.213595 184.18942 L 63.842737 182.802783 L 61.563997 182.802783 L 58.916781 182.434306 L 44.012855 182.555515 L 41.365639 184.18942 L 40.255359 186.836637 L 40.255359 209.163435 L 40.502627 211.931861 L 40.255359 214.336658 L 39.237199 216.736607 L 36.589983 218.244454 L 31.29555 218.123244 L 28.648333 218.370512 L 23.59632 218.123244 L 21.070313 218.244454 L 18.670364 216.862665 Z M 109.359345 214.336658 L 109.85388 211.810651 L 109.975089 209.284644 L 109.73267 204.387779 L 109.73267 201.86662 L 109.485403 198.967288 L 109.85388 196.688548 L 109.73267 194.288599 L 109.975089 191.515325 L 109.606612 188.868109 L 109.85388 183.820943 L 109.485403 178.890139 L 109.85388 176.242922 L 109.85388 153.673705 L 109.606612 151.394966 L 109.85388 148.747749 L 109.359345 142.309098 L 109.85388 138.67766 L 109.606612 133.625647 L 110.87204 130.852372 L 114.532568 129.96027 L 131.041308 129.591793 L 133.320047 129.839061 L 138.246003 129.713003 L 140.77201 129.96027 L 146.31371 129.713003 L 148.839717 130.086328 L 151.118457 129.839061 L 161.188546 129.96027 L 163.835762 131.09964 L 165.096341 133.625647 L 164.727864 136.025596 L 164.606655 138.79887 L 164.975132 141.198819 L 165.222399 146.342952 L 163.835762 148.621691 L 161.188546 150.008329 L 136.980576 150.129538 L 133.07278 151.268908 L 131.807352 154.934285 L 132.05462 158.846929 L 133.562466 161.125668 L 135.719996 162.512305 L 145.697966 162.386247 L 148.59245 162.633515 L 151.239666 162.633515 L 153.765673 162.386247 L 158.812839 162.512305 L 160.941278 163.894094 L 162.080648 166.298891 L 162.327915 168.824898 L 162.080648 178.768929 L 160.81522 181.168878 L 158.289213 182.555515 L 156.010474 182.681573 L 153.363258 182.434306 L 149.979087 182.681573 L 143.293169 182.308248 L 140.77201 182.555515 L 135.841206 182.555515 L 133.562466 183.942153 L 132.423097 186.589369 L 132.301887 192.780753 L 133.441257 196.688548 L 136.088473 198.201243 L 138.861748 197.953976 L 141.630174 198.201243 L 144.034971 197.827918 L 160.694011 198.075185 L 164.480597 199.340613 L 166.114502 201.86662 L 165.867234 204.266569 L 165.988444 212.057918 L 165.741176 214.457867 L 164.606655 216.862665 L 161.95459 218.123244 L 159.554641 218.370512 L 151.855411 217.875977 L 144.156181 218.244454 L 141.91138 217.875977 L 113.393198 218.123244 L 110.993249 216.736607 Z M 174.17736 214.583925 L 175.685207 209.284644 L 176.824577 206.758637 L 178.337272 204.761104 L 181.9978 195.549179 L 185.541967 188.994166 L 186.43407 186.46816 L 187.544349 184.436688 L 188.310393 181.784623 L 190.065507 178.521662 L 190.962458 176.121713 L 192.838782 172.858752 L 194.870254 168.301273 L 196.256891 166.022534 L 196.901726 163.894094 L 203.956121 148.005947 L 205.342758 145.727208 L 210.763249 134.362601 L 211.529294 132.1178 L 213.900152 129.839061 L 217.967945 128.573633 L 222.249066 129.713003 L 224.527805 132.1178 L 225.264759 134.488659 L 226.404129 136.398921 L 228.435601 141.198819 L 230.932517 145.853265 L 232.837931 150.255596 L 233.453676 152.287068 L 235.732415 157.091814 L 236.503308 159.462673 L 239.029315 163.894094 L 239.645059 166.298891 L 240.905639 168.422483 L 241.923799 170.580012 L 243.310436 172.858752 L 244.04739 175.37991 L 245.18676 177.261083 L 246.078862 179.787089 L 247.218232 181.939771 L 248.236392 184.436688 L 249.623029 186.46816 L 251.378143 191.146848 L 252.638723 193.270439 L 253.530825 195.675237 L 255.659264 200.203625 L 256.430157 202.603574 L 257.690736 204.513836 L 258.42769 207.039843 L 260.090685 209.163435 L 260.953697 211.442174 L 261.72459 214.583925 L 261.200965 217.231142 L 258.951316 218.002035 L 251.130876 218.244454 L 246.694606 217.875977 L 244.449806 218.123244 L 241.152906 216.862665 L 239.029315 214.860283 L 237.642678 212.581544 L 236.997843 210.302804 L 234.350627 208.300423 L 230.190715 206.913785 L 224.246599 207.161053 L 221.599382 206.913785 L 219.354582 206.913785 L 216.426159 207.282262 L 213.778943 206.913785 L 206.729396 207.039843 L 204.203389 206.758637 L 201.182847 208.024065 L 199.030165 210.424014 L 196.901726 214.734225 L 194.622986 216.983874 L 191.728502 218.244454 L 188.436451 217.875977 L 177.348202 217.875977 L 174.827044 217.231142 Z M 213.163198 186.836637 L 222.98602 186.715427 L 225.14355 185.697267 L 225.385969 183.447618 L 224.527805 181.168878 L 223.262377 178.64772 L 222.738752 176.645338 L 221.352115 174.487808 L 219.723059 169.561852 L 218.215212 168.543692 L 216.581307 169.80912 L 215.441938 171.840592 L 210.389924 183.326408 L 210.763249 185.852415 Z M 273.569187 214.336658 L 273.321919 211.689441 L 273.811606 209.284644 L 273.569187 206.758637 L 273.690396 191.394115 L 273.443129 189.115376 L 273.321919 184.063362 L 273.690396 181.542204 L 273.321919 176.49019 L 273.690396 174.119331 L 273.321919 168.66975 L 273.690396 166.298891 L 273.443129 163.772885 L 273.811606 161.494145 L 273.443129 158.846929 L 273.690396 156.320922 L 273.569187 153.920973 L 273.937664 151.147698 L 273.690396 148.747749 L 273.321919 146.221743 L 273.690396 143.574526 L 273.937664 141.198819 L 273.195861 134.643807 L 274.829766 131.225698 L 278.495142 129.839061 L 291.610015 129.591793 L 294.877824 131.09964 L 296.138404 134.886226 L 296.414761 141.048519 L 296.138404 143.850884 L 296.540819 163.525617 L 296.138404 166.172833 L 296.540819 168.946108 L 296.138404 172.456336 L 296.259613 178.768929 L 296.017194 181.416146 L 296.259613 183.942153 L 296.138404 186.715427 L 296.540819 189.115376 L 296.414761 193.794064 L 297.156564 196.567339 L 299.80378 197.706708 L 322.00452 197.953976 L 324.777795 197.55156 L 326.809267 198.816988 L 328.438323 201.619353 L 328.069846 203.990211 L 328.438323 206.758637 L 328.195904 209.037377 L 328.069846 211.563384 L 328.317113 214.336658 L 326.930476 216.615397 L 323.391158 217.875977 L 278.74241 218.123244 L 274.708556 216.615397 Z M 356.171067 214.08939 L 356.049857 204.266569 L 356.326215 201.740562 L 355.923799 194.041332 L 356.049857 191.394115 L 355.923799 188.868109 L 356.447424 185.081522 L 356.049857 181.416146 L 356.049857 176.36898 L 356.326215 173.842973 L 356.049857 171.472115 L 356.447424 167.559471 L 356.049857 153.673705 L 354.78443 151.268908 L 352.539629 149.887119 L 341.30108 149.761061 L 338.033271 150.129538 L 335.512112 148.868959 L 334.125475 146.095685 L 334.246684 133.504437 L 335.512112 130.97843 L 338.280538 129.713003 L 375.850648 129.96027 L 378.774223 129.591793 L 381.300229 129.591793 L 383.792298 129.839061 L 386.318305 129.839061 L 389.091579 129.470584 L 391.491528 129.470584 L 393.523 129.713003 L 396.543542 129.470584 L 399.069549 130.731163 L 400.330128 133.223231 L 400.08286 143.574526 L 400.330128 146.221743 L 399.069549 148.747749 L 396.175065 149.887119 L 389.246727 149.761061 L 386.967988 150.008329 L 384.441981 149.887119 L 382.284451 150.008329 L 379.516025 151.147698 L 378.497865 153.426438 L 378.774223 156.199712 L 378.376655 158.720871 L 378.895432 183.820943 L 378.497865 189.115376 L 378.774223 191.394115 L 378.497865 199.093346 L 378.129388 201.740562 L 378.497865 203.864153 L 378.653013 208.916167 L 378.376655 211.810651 L 378.497865 214.2106 L 377.513643 216.736607 L 374.987636 217.754767 L 367.167197 217.754767 L 364.762399 218.002035 L 362.236392 217.754767 L 359.836443 218.002035 L 357.189227 216.736607 Z M 412.048667 214.457867 L 411.801399 201.619353 L 412.048667 199.093346 L 411.68019 196.814606 L 412.048667 194.288599 L 411.801399 191.515325 L 412.174724 185.576057 L 411.927457 182.681573 L 412.174724 178.768929 L 411.801399 176.36898 L 411.801399 169.067317 L 412.048667 166.420101 L 411.554132 158.720871 L 412.048667 156.199712 L 411.801399 154.042182 L 412.174724 151.268908 L 411.554132 143.695736 L 411.927457 141.324877 L 411.68019 138.551603 L 411.68019 136.151654 L 412.048667 133.378379 L 413.435304 131.225698 L 417.347948 130.086328 L 419.747897 129.839061 L 422.273904 130.086328 L 429.725866 129.839061 L 433.633662 131.09964 L 435.146357 133.746856 L 435.020299 135.904386 L 435.388776 148.374424 L 435.146357 150.653163 L 435.146357 158.197245 L 436.159669 160.602043 L 438.806886 161.741413 L 451.034504 161.615355 L 453.313244 161.862622 L 458.360409 161.862622 L 460.488849 160.602043 L 461.870638 158.076036 L 461.870638 150.779221 L 462.394263 148.621691 L 462.117905 134.886226 L 463.136065 131.225698 L 466.922651 130.086328 L 469.448658 130.086328 L 473.482512 129.713003 L 479.916314 129.839061 L 483.828959 131.09964 L 485.089538 133.625647 L 485.336805 136.151654 L 484.847119 138.67766 L 485.089538 141.048519 L 485.584073 143.448468 L 484.968328 153.920973 L 485.336805 166.298891 L 485.089538 169.067317 L 485.215596 173.842973 L 484.847119 176.49019 L 484.847119 179.016197 L 485.089538 181.663413 L 484.968328 184.18942 L 485.462863 188.994166 L 485.462863 209.284644 L 484.968328 214.457867 L 483.581691 216.862665 L 481.055684 218.244454 L 472.343142 218.244454 L 468.556556 217.875977 L 466.030549 218.123244 L 463.504542 216.862665 L 462.273053 214.2106 L 461.870638 209.284644 L 462.394263 205.498058 L 461.870638 196.567339 L 462.273053 194.16739 L 461.870638 186.46816 L 460.610058 183.942153 L 458.360409 182.681573 L 455.96046 182.681573 L 453.434453 182.434306 L 450.908446 182.681573 L 443.456484 182.681573 L 441.177744 182.434306 L 438.530528 182.434306 L 436.03846 183.942153 L 434.773032 186.589369 L 435.146357 196.567339 L 434.89909 199.214555 L 435.020299 201.98783 L 434.773032 204.387779 L 435.020299 206.913785 L 434.773032 209.163435 L 435.146357 211.931861 L 435.020299 214.457867 L 434.006988 216.983874 L 431.233713 218.123244 L 428.586497 218.370512 L 425.93928 218.002035 L 422.273904 217.875977 L 418.36126 218.244454 L 415.961311 218.244454 L 413.066827 217.105084 Z M 412.048667 214.457867 " stroke="#000000" stroke-width="9.460425" stroke-opacity="1" stroke-miterlimit="4"/></g><g fill="#8c52ff" fill-opacity="1"><g transform="translate(194.359983, 119.711218)"><g><path d="M 10.5625 0.3125 L 8.53125 -1.015625 L 7.421875 -3.15625 L 7.515625 -25.609375 L 7.3125 -27.546875 L 7.625 -37.796875 L 7.421875 -39.84375 L 7.515625 -56.09375 L 7.3125 -57.921875 L 7.625 -61.890625 L 7.3125 -68.09375 L 8.4375 -70.21875 L 10.671875 -71.234375 L 13.515625 -70.421875 L 15.859375 -68.703125 L 18.5 -65.953125 L 20.125 -64.53125 L 22.765625 -61.375 L 24.1875 -60.15625 L 33.4375 -49.890625 L 35.671875 -47.859375 L 37.5 -45.53125 L 38.921875 -44.109375 L 40.140625 -42.375 L 42.28125 -41.5625 L 44.109375 -42.78125 L 50.296875 -49.078125 L 51.625 -50.8125 L 60.5625 -59.953125 L 61.984375 -61.78125 L 63.203125 -62.90625 L 64.53125 -64.53125 L 68.796875 -69 L 70.9375 -70.328125 L 73.875 -71.234375 L 76.015625 -70.125 L 77.234375 -67.984375 L 77.03125 -66.0625 L 77.140625 -61.890625 L 77.03125 -60.15625 L 77.234375 -55.796875 L 77.140625 -53.859375 L 77.234375 -43.796875 L 77.03125 -41.5625 L 77.234375 -11.078125 L 77.03125 -9.046875 L 77.34375 -3.765625 L 76.109375 -0.8125 L 73.984375 0.3125 L 61.6875 -0.109375 L 59.546875 -0.71875 L 58.734375 -3.046875 L 58.734375 -4.578125 L 58.53125 -9.140625 L 58.734375 -10.96875 L 58.53125 -14.734375 L 58.734375 -18.703125 L 58.4375 -22.765625 L 58.640625 -28.359375 L 57.828125 -29.875 L 56.5 -29.265625 L 52.34375 -25 L 50.921875 -23.984375 L 48.0625 -20.625 L 46.84375 -19.40625 L 45.421875 -17.890625 L 43.390625 -16.359375 L 41.15625 -16.46875 L 39.03125 -17.984375 L 36.28125 -20.625 L 34.953125 -22.25 L 30.796875 -26.421875 L 29.578125 -27.953125 L 27.953125 -29.265625 L 26.9375 -29.671875 L 26.015625 -28.765625 L 26.015625 -24.796875 L 26.21875 -22.5625 L 26.015625 -18.90625 L 26.125 -16.765625 L 25.8125 -13.625 L 26.125 -2.953125 L 24.890625 -1.125 L 22.046875 0.109375 L 18.796875 -0.109375 L 16.5625 0.203125 L 12.59375 0 Z M 10.5625 0.3125 "/></g></g></g><g fill="#8c52ff" fill-opacity="1"><g transform="translate(279.311477, 119.711218)"><g><path d="M 7.3125 -2.953125 L 7.71875 -4.984375 L 7.828125 -7.015625 L 7.625 -10.96875 L 7.625 -13.015625 L 7.421875 -15.34375 L 7.71875 -17.171875 L 7.625 -19.109375 L 7.828125 -21.34375 L 7.515625 -23.46875 L 7.71875 -27.546875 L 7.421875 -31.5 L 7.71875 -33.640625 L 7.71875 -51.828125 L 7.515625 -53.65625 L 7.71875 -55.796875 L 7.3125 -60.96875 L 7.71875 -63.921875 L 7.515625 -67.984375 L 8.53125 -70.21875 L 11.484375 -70.9375 L 24.796875 -71.234375 L 26.625 -71.03125 L 30.59375 -71.140625 L 32.625 -70.9375 L 37.09375 -71.140625 L 39.125 -70.828125 L 40.953125 -71.03125 L 49.078125 -70.9375 L 51.21875 -70.015625 L 52.234375 -67.984375 L 51.9375 -66.0625 L 51.828125 -63.828125 L 52.140625 -61.890625 L 52.34375 -57.71875 L 51.21875 -55.890625 L 49.078125 -54.78125 L 29.578125 -54.671875 L 26.421875 -53.765625 L 25.40625 -50.8125 L 25.609375 -47.65625 L 26.828125 -45.828125 L 28.5625 -44.71875 L 36.578125 -44.8125 L 38.921875 -44.609375 L 41.0625 -44.609375 L 43.09375 -44.8125 L 47.15625 -44.71875 L 48.875 -43.59375 L 49.796875 -41.671875 L 50 -39.640625 L 49.796875 -31.609375 L 48.78125 -29.671875 L 46.75 -28.5625 L 44.921875 -28.453125 L 42.78125 -28.65625 L 40.046875 -28.453125 L 34.65625 -28.765625 L 32.625 -28.5625 L 28.65625 -28.5625 L 26.828125 -27.4375 L 25.921875 -25.296875 L 25.8125 -20.328125 L 26.734375 -17.171875 L 28.859375 -15.953125 L 31.09375 -16.15625 L 33.328125 -15.953125 L 35.265625 -16.265625 L 48.671875 -16.0625 L 51.734375 -15.046875 L 53.046875 -13.015625 L 52.84375 -11.078125 L 52.953125 -4.78125 L 52.75 -2.84375 L 51.828125 -0.921875 L 49.6875 0.109375 L 47.765625 0.3125 L 41.5625 -0.109375 L 35.359375 0.203125 L 33.53125 -0.109375 L 10.5625 0.109375 L 8.640625 -1.015625 Z M 7.3125 -2.953125 "/></g></g></g><g fill="#8c52ff" fill-opacity="1"><g transform="translate(337.537802, 119.711218)"><g><path d="M 59.953125 -1.625 L 58.640625 -2.953125 L 57.421875 -4.46875 L 55.796875 -5.796875 L 54.46875 -7.421875 L 44.609375 -17.28125 L 42.984375 -18.59375 L 28.453125 -32.828125 L 27.140625 -33.125 L 26.125 -31.90625 L 26.53125 -29.78125 L 26.21875 -4.875 L 26.53125 -2.84375 L 25.609375 -0.8125 L 23.578125 0.203125 L 21.234375 0 L 19.109375 0.3125 L 14.03125 0 L 10.5625 0.203125 L 8.640625 -0.921875 L 7.71875 -3.15625 L 7.71875 -5.078125 L 7.421875 -7.109375 L 7.71875 -10.96875 L 7.515625 -13.015625 L 7.625 -17.171875 L 7.3125 -19.3125 L 7.3125 -21.234375 L 7.515625 -23.46875 L 7.515625 -25.40625 L 7.71875 -27.234375 L 7.3125 -41.765625 L 7.625 -43.90625 L 7.515625 -46.03125 L 7.71875 -47.859375 L 7.421875 -52.03125 L 7.625 -54.0625 L 7.421875 -68.296875 L 8.734375 -70.21875 L 11.171875 -71.4375 L 13.921875 -70.625 L 17.984375 -67.890625 L 23.46875 -62.296875 L 24.796875 -60.5625 L 26.53125 -59.34375 L 27.546875 -57.828125 L 29.46875 -56.5 L 30.59375 -54.984375 L 33.734375 -52.34375 L 35.875 -50.09375 L 36.984375 -48.671875 L 38.625 -47.453125 L 42.171875 -43.796875 L 43.703125 -42.578125 L 48.171875 -38 L 49.59375 -37.59375 L 50.09375 -39.234375 L 50 -43.296875 L 50.40625 -45.421875 L 50.40625 -47.359375 L 50 -49.484375 L 50.09375 -67.984375 L 51.125 -70.125 L 53.5625 -71.140625 L 55.59375 -71.03125 L 57.421875 -71.234375 L 59.546875 -70.9375 L 61.78125 -71.140625 L 63.71875 -71.140625 L 65.75 -70.9375 L 67.984375 -69.921875 L 69.203125 -68.09375 L 69 -62.796875 L 69.203125 -59.75 L 68.796875 -57.71875 L 68.796875 -53.65625 L 69 -51.734375 L 68.703125 -47.65625 L 69.109375 -35.46875 L 68.90625 -33.234375 L 69.3125 -30.390625 L 68.796875 -2.75 L 67.890625 -0.609375 L 65.546875 0.515625 L 62.90625 -0.3125 Z M 59.953125 -1.625 "/></g></g></g><g fill="#8c52ff" fill-opacity="1"><g transform="translate(414.156736, 119.711218)"><g><path d="M 19.515625 -3.15625 L 19.40625 -11.078125 L 19.609375 -13.109375 L 19.3125 -19.3125 L 19.40625 -21.4375 L 19.3125 -23.46875 L 19.71875 -26.53125 L 19.40625 -29.46875 L 19.40625 -33.53125 L 19.609375 -35.5625 L 19.40625 -37.5 L 19.71875 -40.65625 L 19.40625 -51.828125 L 18.390625 -53.765625 L 16.5625 -54.875 L 7.515625 -54.984375 L 4.875 -54.671875 L 2.84375 -55.6875 L 1.734375 -57.921875 L 1.828125 -68.09375 L 2.84375 -70.125 L 5.078125 -71.140625 L 35.359375 -70.9375 L 37.703125 -71.234375 L 39.734375 -71.234375 L 41.765625 -71.03125 L 43.796875 -71.03125 L 46.03125 -71.34375 L 47.96875 -71.34375 L 49.59375 -71.140625 L 52.03125 -71.34375 L 54.0625 -70.328125 L 55.078125 -68.296875 L 54.875 -59.953125 L 55.078125 -57.828125 L 54.0625 -55.796875 L 51.734375 -54.875 L 46.140625 -54.984375 L 44.3125 -54.78125 L 42.28125 -54.875 L 40.546875 -54.78125 L 38.3125 -53.859375 L 37.5 -52.03125 L 37.703125 -49.796875 L 37.390625 -47.765625 L 37.796875 -27.546875 L 37.5 -23.265625 L 37.703125 -21.4375 L 37.5 -15.25 L 37.1875 -13.109375 L 37.5 -11.375 L 37.59375 -7.3125 L 37.390625 -4.984375 L 37.5 -3.046875 L 36.6875 -1.015625 L 34.65625 -0.203125 L 28.359375 -0.203125 L 26.421875 0 L 24.390625 -0.203125 L 22.453125 0 L 20.328125 -1.015625 Z M 19.515625 -3.15625 "/></g></g></g><g fill="#8c52ff" fill-opacity="1"><g transform="translate(470.960432, 119.711218)"><g><path d="M 1.328125 -2.75 L 2.546875 -7.015625 L 3.453125 -9.046875 L 4.671875 -10.671875 L 7.625 -18.09375 L 10.46875 -23.375 L 11.171875 -25.40625 L 12.09375 -27.03125 L 12.703125 -29.171875 L 14.125 -31.8125 L 14.84375 -33.734375 L 16.359375 -36.375 L 17.984375 -40.046875 L 19.109375 -41.875 L 19.609375 -43.59375 L 25.296875 -56.40625 L 26.421875 -58.234375 L 30.796875 -67.375 L 31.40625 -69.203125 L 33.328125 -71.03125 L 36.578125 -72.046875 L 40.046875 -71.140625 L 41.875 -69.203125 L 42.484375 -67.28125 L 43.390625 -65.75 L 45.015625 -61.890625 L 47.046875 -58.125 L 48.578125 -54.578125 L 49.078125 -52.953125 L 50.921875 -49.078125 L 51.53125 -47.15625 L 53.5625 -43.59375 L 54.0625 -41.671875 L 55.078125 -39.9375 L 55.890625 -38.21875 L 57.015625 -36.375 L 57.625 -34.34375 L 58.53125 -32.828125 L 59.25 -30.796875 L 60.15625 -29.0625 L 60.96875 -27.03125 L 62.09375 -25.40625 L 63.515625 -21.640625 L 64.53125 -19.921875 L 65.25 -17.984375 L 66.96875 -14.328125 L 67.578125 -12.390625 L 68.59375 -10.875 L 69.203125 -8.84375 L 70.53125 -7.109375 L 71.234375 -5.28125 L 71.84375 -2.75 L 71.4375 -0.609375 L 69.609375 0 L 63.3125 0.203125 L 59.75 -0.109375 L 57.921875 0.109375 L 55.28125 -0.921875 L 53.5625 -2.546875 L 52.4375 -4.375 L 51.9375 -6.203125 L 49.796875 -7.828125 L 46.4375 -8.9375 L 41.671875 -8.734375 L 39.53125 -8.9375 L 37.703125 -8.9375 L 35.359375 -8.640625 L 33.234375 -8.9375 L 27.546875 -8.84375 L 25.515625 -9.046875 L 23.0625 -8.03125 L 21.34375 -6.09375 L 19.609375 -2.640625 L 17.78125 -0.8125 L 15.453125 0.203125 L 12.8125 -0.109375 L 3.859375 -0.109375 L 1.828125 -0.609375 Z M 32.71875 -25.09375 L 40.65625 -25.203125 L 42.375 -26.015625 L 42.578125 -27.84375 L 41.875 -29.671875 L 40.859375 -31.703125 L 40.453125 -33.328125 L 39.328125 -35.0625 L 38 -39.03125 L 36.78125 -39.84375 L 35.46875 -38.828125 L 34.546875 -37.1875 L 30.484375 -27.953125 L 30.796875 -25.921875 Z M 32.71875 -25.09375 "/></g></g></g><g fill="#8c52ff" fill-opacity="1"><g transform="translate(544.734083, 119.711218)"><g><path d="M 7.625 -2.953125 L 7.421875 -5.078125 L 7.828125 -7.015625 L 7.625 -9.046875 L 7.71875 -21.4375 L 7.515625 -23.265625 L 7.421875 -27.34375 L 7.71875 -29.375 L 7.421875 -33.4375 L 7.71875 -35.359375 L 7.421875 -39.734375 L 7.71875 -41.671875 L 7.515625 -43.703125 L 7.828125 -45.53125 L 7.515625 -47.65625 L 7.71875 -49.6875 L 7.625 -51.625 L 7.921875 -53.859375 L 7.71875 -55.796875 L 7.421875 -57.828125 L 7.71875 -59.953125 L 7.921875 -61.890625 L 7.3125 -67.171875 L 8.640625 -69.921875 L 11.578125 -71.03125 L 22.15625 -71.234375 L 24.796875 -70.015625 L 25.8125 -66.96875 L 26.015625 -61.984375 L 25.8125 -59.75 L 26.125 -43.90625 L 25.8125 -41.765625 L 26.125 -39.53125 L 25.8125 -36.6875 L 25.921875 -31.609375 L 25.71875 -29.46875 L 25.921875 -27.4375 L 25.8125 -25.203125 L 26.125 -23.265625 L 26.015625 -19.515625 L 26.625 -17.28125 L 28.765625 -16.359375 L 46.640625 -16.15625 L 48.875 -16.46875 L 50.5 -15.453125 L 51.828125 -13.21875 L 51.53125 -11.28125 L 51.828125 -9.046875 L 51.625 -7.21875 L 51.53125 -5.1875 L 51.734375 -2.953125 L 50.609375 -1.125 L 47.765625 -0.109375 L 11.78125 0.109375 L 8.53125 -1.125 Z M 7.625 -2.953125 "/></g></g></g><g fill="#8c52ff" fill-opacity="1"><g transform="translate(200.767666, 213.170236)"><g><path d="M 7.421875 -2.84375 L 7.71875 -11.171875 L 7.421875 -13.015625 L 7.421875 -43.390625 L 7.625 -45.421875 L 7.515625 -47.859375 L 7.71875 -51.734375 L 7.3125 -55.890625 L 7.515625 -57.921875 L 7.3125 -65.859375 L 7.515625 -68.09375 L 8.53125 -70.125 L 10.765625 -71.140625 L 20.828125 -70.9375 L 23.0625 -71.140625 L 25.203125 -70.015625 L 26.125 -68.09375 L 26.328125 -64.328125 L 26.125 -62.09375 L 26.015625 -54.171875 L 26.125 -52.34375 L 26.125 -50.203125 L 26.21875 -47.96875 L 27.234375 -46.03125 L 29.171875 -45.125 L 35.15625 -45.015625 L 36.984375 -45.21875 L 39.125 -45.015625 L 43.09375 -45.421875 L 45.015625 -45.125 L 47.046875 -46.234375 L 48.171875 -48.265625 L 48.265625 -56.203125 L 47.96875 -58.125 L 48.171875 -62.296875 L 47.96875 -64.03125 L 48.0625 -67.890625 L 49.078125 -70.328125 L 52.03125 -71.03125 L 63.71875 -70.9375 L 65.75 -70.125 L 66.671875 -67.984375 L 66.5625 -16.96875 L 66.875 -15.34375 L 66.5625 -12.09375 L 66.765625 -2.84375 L 65.546875 -1.125 L 63.625 0.203125 L 59.453125 -0.109375 L 57.421875 0.109375 L 52.140625 0.109375 L 49.1875 -1.21875 L 48.0625 -2.84375 L 47.96875 -25.296875 L 46.953125 -27.234375 L 45.015625 -28.359375 L 43.1875 -28.359375 L 41.0625 -28.65625 L 29.0625 -28.5625 L 26.9375 -27.234375 L 26.015625 -25.09375 L 26.015625 -7.109375 L 26.21875 -4.875 L 26.015625 -2.953125 L 25.203125 -1.015625 L 23.0625 0.203125 L 18.796875 0.109375 L 16.671875 0.3125 L 12.59375 0.109375 L 10.5625 0.203125 L 8.640625 -0.921875 Z M 7.421875 -2.84375 "/></g></g></g><g fill="#8c52ff" fill-opacity="1"><g transform="translate(275.151036, 213.170236)"><g><path d="M 7.3125 -2.953125 L 7.71875 -4.984375 L 7.828125 -7.015625 L 7.625 -10.96875 L 7.625 -13.015625 L 7.421875 -15.34375 L 7.71875 -17.171875 L 7.625 -19.109375 L 7.828125 -21.34375 L 7.515625 -23.46875 L 7.71875 -27.546875 L 7.421875 -31.5 L 7.71875 -33.640625 L 7.71875 -51.828125 L 7.515625 -53.65625 L 7.71875 -55.796875 L 7.3125 -60.96875 L 7.71875 -63.921875 L 7.515625 -67.984375 L 8.53125 -70.21875 L 11.484375 -70.9375 L 24.796875 -71.234375 L 26.625 -71.03125 L 30.59375 -71.140625 L 32.625 -70.9375 L 37.09375 -71.140625 L 39.125 -70.828125 L 40.953125 -71.03125 L 49.078125 -70.9375 L 51.21875 -70.015625 L 52.234375 -67.984375 L 51.9375 -66.0625 L 51.828125 -63.828125 L 52.140625 -61.890625 L 52.34375 -57.71875 L 51.21875 -55.890625 L 49.078125 -54.78125 L 29.578125 -54.671875 L 26.421875 -53.765625 L 25.40625 -50.8125 L 25.609375 -47.65625 L 26.828125 -45.828125 L 28.5625 -44.71875 L 36.578125 -44.8125 L 38.921875 -44.609375 L 41.0625 -44.609375 L 43.09375 -44.8125 L 47.15625 -44.71875 L 48.875 -43.59375 L 49.796875 -41.671875 L 50 -39.640625 L 49.796875 -31.609375 L 48.78125 -29.671875 L 46.75 -28.5625 L 44.921875 -28.453125 L 42.78125 -28.65625 L 40.046875 -28.453125 L 34.65625 -28.765625 L 32.625 -28.5625 L 28.65625 -28.5625 L 26.828125 -27.4375 L 25.921875 -25.296875 L 25.8125 -20.328125 L 26.734375 -17.171875 L 28.859375 -15.953125 L 31.09375 -16.15625 L 33.328125 -15.953125 L 35.265625 -16.265625 L 48.671875 -16.0625 L 51.734375 -15.046875 L 53.046875 -13.015625 L 52.84375 -11.078125 L 52.953125 -4.78125 L 52.75 -2.84375 L 51.828125 -0.921875 L 49.6875 0.109375 L 47.765625 0.3125 L 41.5625 -0.109375 L 35.359375 0.203125 L 33.53125 -0.109375 L 10.5625 0.109375 L 8.640625 -1.015625 Z M 7.3125 -2.953125 "/></g></g></g><g fill="#8c52ff" fill-opacity="1"><g transform="translate(333.377362, 213.170236)"><g><path d="M 1.328125 -2.75 L 2.546875 -7.015625 L 3.453125 -9.046875 L 4.671875 -10.671875 L 7.625 -18.09375 L 10.46875 -23.375 L 11.171875 -25.40625 L 12.09375 -27.03125 L 12.703125 -29.171875 L 14.125 -31.8125 L 14.84375 -33.734375 L 16.359375 -36.375 L 17.984375 -40.046875 L 19.109375 -41.875 L 19.609375 -43.59375 L 25.296875 -56.40625 L 26.421875 -58.234375 L 30.796875 -67.375 L 31.40625 -69.203125 L 33.328125 -71.03125 L 36.578125 -72.046875 L 40.046875 -71.140625 L 41.875 -69.203125 L 42.484375 -67.28125 L 43.390625 -65.75 L 45.015625 -61.890625 L 47.046875 -58.125 L 48.578125 -54.578125 L 49.078125 -52.953125 L 50.921875 -49.078125 L 51.53125 -47.15625 L 53.5625 -43.59375 L 54.0625 -41.671875 L 55.078125 -39.9375 L 55.890625 -38.21875 L 57.015625 -36.375 L 57.625 -34.34375 L 58.53125 -32.828125 L 59.25 -30.796875 L 60.15625 -29.0625 L 60.96875 -27.03125 L 62.09375 -25.40625 L 63.515625 -21.640625 L 64.53125 -19.921875 L 65.25 -17.984375 L 66.96875 -14.328125 L 67.578125 -12.390625 L 68.59375 -10.875 L 69.203125 -8.84375 L 70.53125 -7.109375 L 71.234375 -5.28125 L 71.84375 -2.75 L 71.4375 -0.609375 L 69.609375 0 L 63.3125 0.203125 L 59.75 -0.109375 L 57.921875 0.109375 L 55.28125 -0.921875 L 53.5625 -2.546875 L 52.4375 -4.375 L 51.9375 -6.203125 L 49.796875 -7.828125 L 46.4375 -8.9375 L 41.671875 -8.734375 L 39.53125 -8.9375 L 37.703125 -8.9375 L 35.359375 -8.640625 L 33.234375 -8.9375 L 27.546875 -8.84375 L 25.515625 -9.046875 L 23.0625 -8.03125 L 21.34375 -6.09375 L 19.609375 -2.640625 L 17.78125 -0.8125 L 15.453125 0.203125 L 12.8125 -0.109375 L 3.859375 -0.109375 L 1.828125 -0.609375 Z M 32.71875 -25.09375 L 40.65625 -25.203125 L 42.375 -26.015625 L 42.578125 -27.84375 L 41.875 -29.671875 L 40.859375 -31.703125 L 40.453125 -33.328125 L 39.328125 -35.0625 L 38 -39.03125 L 36.78125 -39.84375 L 35.46875 -38.828125 L 34.546875 -37.1875 L 30.484375 -27.953125 L 30.796875 -25.921875 Z M 32.71875 -25.09375 "/></g></g></g><g fill="#8c52ff" fill-opacity="1"><g transform="translate(407.151037, 213.170236)"><g><path d="M 7.625 -2.953125 L 7.421875 -5.078125 L 7.828125 -7.015625 L 7.625 -9.046875 L 7.71875 -21.4375 L 7.515625 -23.265625 L 7.421875 -27.34375 L 7.71875 -29.375 L 7.421875 -33.4375 L 7.71875 -35.359375 L 7.421875 -39.734375 L 7.71875 -41.671875 L 7.515625 -43.703125 L 7.828125 -45.53125 L 7.515625 -47.65625 L 7.71875 -49.6875 L 7.625 -51.625 L 7.921875 -53.859375 L 7.71875 -55.796875 L 7.421875 -57.828125 L 7.71875 -59.953125 L 7.921875 -61.890625 L 7.3125 -67.171875 L 8.640625 -69.921875 L 11.578125 -71.03125 L 22.15625 -71.234375 L 24.796875 -70.015625 L 25.8125 -66.96875 L 26.015625 -61.984375 L 25.8125 -59.75 L 26.125 -43.90625 L 25.8125 -41.765625 L 26.125 -39.53125 L 25.8125 -36.6875 L 25.921875 -31.609375 L 25.71875 -29.46875 L 25.921875 -27.4375 L 25.8125 -25.203125 L 26.125 -23.265625 L 26.015625 -19.515625 L 26.625 -17.28125 L 28.765625 -16.359375 L 46.640625 -16.15625 L 48.875 -16.46875 L 50.5 -15.453125 L 51.828125 -13.21875 L 51.53125 -11.28125 L 51.828125 -9.046875 L 51.625 -7.21875 L 51.53125 -5.1875 L 51.734375 -2.953125 L 50.609375 -1.125 L 47.765625 -0.109375 L 11.78125 0.109375 L 8.53125 -1.125 Z M 7.625 -2.953125 "/></g></g></g><g fill="#8c52ff" fill-opacity="1"><g transform="translate(461.820765, 213.170236)"><g><path d="M 19.515625 -3.15625 L 19.40625 -11.078125 L 19.609375 -13.109375 L 19.3125 -19.3125 L 19.40625 -21.4375 L 19.3125 -23.46875 L 19.71875 -26.53125 L 19.40625 -29.46875 L 19.40625 -33.53125 L 19.609375 -35.5625 L 19.40625 -37.5 L 19.71875 -40.65625 L 19.40625 -51.828125 L 18.390625 -53.765625 L 16.5625 -54.875 L 7.515625 -54.984375 L 4.875 -54.671875 L 2.84375 -55.6875 L 1.734375 -57.921875 L 1.828125 -68.09375 L 2.84375 -70.125 L 5.078125 -71.140625 L 35.359375 -70.9375 L 37.703125 -71.234375 L 39.734375 -71.234375 L 41.765625 -71.03125 L 43.796875 -71.03125 L 46.03125 -71.34375 L 47.96875 -71.34375 L 49.59375 -71.140625 L 52.03125 -71.34375 L 54.0625 -70.328125 L 55.078125 -68.296875 L 54.875 -59.953125 L 55.078125 -57.828125 L 54.0625 -55.796875 L 51.734375 -54.875 L 46.140625 -54.984375 L 44.3125 -54.78125 L 42.28125 -54.875 L 40.546875 -54.78125 L 38.3125 -53.859375 L 37.5 -52.03125 L 37.703125 -49.796875 L 37.390625 -47.765625 L 37.796875 -27.546875 L 37.5 -23.265625 L 37.703125 -21.4375 L 37.5 -15.25 L 37.1875 -13.109375 L 37.5 -11.375 L 37.59375 -7.3125 L 37.390625 -4.984375 L 37.5 -3.046875 L 36.6875 -1.015625 L 34.65625 -0.203125 L 28.359375 -0.203125 L 26.421875 0 L 24.390625 -0.203125 L 22.453125 0 L 20.328125 -1.015625 Z M 19.515625 -3.15625 "/></g></g></g><g fill="#8c52ff" fill-opacity="1"><g transform="translate(518.624461, 213.170236)"><g><path d="M 7.71875 -2.84375 L 7.515625 -13.21875 L 7.71875 -15.25 L 7.421875 -17.078125 L 7.71875 -19.109375 L 7.515625 -21.34375 L 7.828125 -26.125 L 7.625 -28.453125 L 7.828125 -31.609375 L 7.515625 -33.53125 L 7.515625 -39.4375 L 7.71875 -41.5625 L 7.3125 -47.765625 L 7.71875 -49.796875 L 7.515625 -51.53125 L 7.828125 -53.765625 L 7.3125 -59.859375 L 7.625 -61.78125 L 7.421875 -64.03125 L 7.421875 -65.953125 L 7.71875 -68.1875 L 8.84375 -69.921875 L 11.984375 -70.828125 L 13.921875 -71.03125 L 15.953125 -70.828125 L 21.953125 -71.03125 L 25.09375 -70.015625 L 26.328125 -67.890625 L 26.21875 -66.15625 L 26.53125 -56.09375 L 26.328125 -54.265625 L 26.328125 -48.171875 L 27.140625 -46.234375 L 29.265625 -45.328125 L 39.125 -45.421875 L 40.953125 -45.21875 L 45.015625 -45.21875 L 46.75 -46.234375 L 47.859375 -48.265625 L 47.859375 -54.171875 L 48.265625 -55.890625 L 48.0625 -66.96875 L 48.875 -69.921875 L 51.9375 -70.828125 L 53.96875 -70.828125 L 57.21875 -71.140625 L 62.390625 -71.03125 L 65.546875 -70.015625 L 66.5625 -67.984375 L 66.765625 -65.953125 L 66.359375 -63.921875 L 66.5625 -61.984375 L 66.96875 -60.0625 L 66.46875 -51.625 L 66.765625 -41.671875 L 66.5625 -39.4375 L 66.671875 -35.5625 L 66.359375 -33.4375 L 66.359375 -31.40625 L 66.5625 -29.265625 L 66.46875 -27.234375 L 66.875 -23.375 L 66.875 -7.015625 L 66.46875 -2.84375 L 65.34375 -0.921875 L 63.3125 0.203125 L 56.296875 0.203125 L 53.25 -0.109375 L 51.21875 0.109375 L 49.1875 -0.921875 L 48.171875 -3.046875 L 47.859375 -7.015625 L 48.265625 -10.0625 L 47.859375 -17.28125 L 48.171875 -19.203125 L 47.859375 -25.40625 L 46.84375 -27.4375 L 45.015625 -28.453125 L 43.09375 -28.453125 L 41.0625 -28.65625 L 39.03125 -28.453125 L 33.03125 -28.453125 L 31.203125 -28.65625 L 29.0625 -28.65625 L 27.03125 -27.4375 L 26.015625 -25.296875 L 26.328125 -17.28125 L 26.125 -15.140625 L 26.21875 -12.90625 L 26.015625 -10.96875 L 26.21875 -8.9375 L 26.015625 -7.109375 L 26.328125 -4.875 L 26.21875 -2.84375 L 25.40625 -0.8125 L 23.171875 0.109375 L 21.03125 0.3125 L 18.90625 0 L 15.953125 -0.109375 L 12.8125 0.203125 L 10.875 0.203125 L 8.53125 -0.71875 Z M 7.71875 -2.84375 "/></g></g></g></svg>